<svg xmlns="http://www.w3.org/2000/svg" enable-background="new 0 0 64 64" viewBox="0 0 64 64"><path fill="#010101" d="M63.39,9.66c-0.01-0.01-0.01-0.03-0.02-0.04c-0.01-0.01-0.03-0.02-0.04-0.03c-0.39-0.38-0.92-0.61-1.51-0.61
		H2.19c-0.58,0-1.11,0.23-1.5,0.61C0.67,9.61,0.65,9.61,0.64,9.63C0.63,9.64,0.62,9.66,0.61,9.67C0.23,10.06,0,10.59,0,11.18v41.64
		c0,0.64,0.28,1.22,0.73,1.62c0,0,0.01,0.01,0.01,0.01c0.01,0.01,0.03,0.02,0.04,0.03c0.38,0.33,0.87,0.53,1.41,0.53h59.62
		c0.54,0,1.03-0.21,1.42-0.53c0.01-0.01,0.02-0.01,0.04-0.02c0,0,0-0.01,0.01-0.01c0.44-0.4,0.73-0.97,0.73-1.62V11.18
		C64,10.59,63.76,10.06,63.39,9.66z M60.65,10.93L32.18,38.9c-0.1,0.1-0.26,0.1-0.36,0L3.35,10.93H60.65z M1.94,51.88V12.27
		L21.92,31.9L1.94,51.88z M3.49,53.07l19.82-19.82l7.16,7.03c0.42,0.41,0.98,0.62,1.53,0.62c0.56,0,1.11-0.21,1.54-0.62l7.16-7.03
		l19.82,19.82H3.49z M62.06,51.88L42.08,31.9l19.98-19.63V51.88z"/></svg>