<svg xmlns="http://www.w3.org/2000/svg" data-name="Layer 1" viewBox="0 0 512 512"><path fill="#fbfbfb" d="M414.5,258.5l-37.0064-81.41409A30,30,0,0,0,350.1826,159.5H37.5a30,30,0,0,0-30,30V371a30,30,0,0,0,30,30h437a30,30,0,0,0,30-30V310.12278a30,30,0,0,0-20.51317-28.4605Z"/><path fill="#f2f2f2" d="M483.98688,281.66235,414.5,258.5l-37.00641-81.41406A29.99979,29.99979,0,0,0,350.18262,159.5h-30a29.99979,29.99979,0,0,1,27.311,17.58594L384.5,258.5l69.48688,23.16235A29.99973,29.99973,0,0,1,474.5,310.1228V371a30,30,0,0,1-30,30h30a30,30,0,0,0,30-30V310.1228A29.99973,29.99973,0,0,0,483.98688,281.66235Z"/><path fill="#b3e0ff" d="M373.74,258.5H260a3.999,3.999,0,0,1-4-4v-61a3.999,3.999,0,0,1,4-4h85.45a3.98044,3.98044,0,0,1,3.62,2.32007l28.29,61A3.99436,3.99436,0,0,1,373.74,258.5Z"/><path fill="#eee" d="M7.5,189.5v126H169v-156H37.5A29.99993,29.99993,0,0,0,7.5,189.5Z"/><path fill="#f66" d="M504.5 315.5V371a29.99808 29.99808 0 0 1-30 30H37.5a29.998 29.998 0 0 1-30-30V315.5zM129 222.5H106v-23a10 10 0 0 0-10-10H86a10 10 0 0 0-10 10v23H53a10 10 0 0 0-10 10v10a10 10 0 0 0 10 10H76v23a10 10 0 0 0 10 10H96a10 10 0 0 0 10-10v-23h23a10 10 0 0 0 10-10v-10A10 10 0 0 0 129 222.5z"/><path fill="#ff4e4e" d="M181.5,401H70.5a55.5,55.5,0,0,1,111,0Z"/><circle cx="111" cy="401" r="55.5" fill="#4a4f60"/><path fill="#3b3f4d" d="M111,345.5a55.92113,55.92113,0,0,0-7.5.51855,55.48917,55.48917,0,0,1,0,109.9629A55.49559,55.49559,0,1,0,111,345.5Z"/><path fill="#ff4e4e" d="M421.5,401h-111a55.5,55.5,0,0,1,111,0Z"/><circle cx="351" cy="401" r="55.5" fill="#4a4f60"/><path fill="#3b3f4d" d="M351,345.5a55.92113,55.92113,0,0,0-7.5.51855,55.48917,55.48917,0,0,1,0,109.9629A55.49559,55.49559,0,1,0,351,345.5Z"/><path fill="#f66" d="M315.5,112.5H315.5a26,26,0,0,1,26,26v21a0,0,0,0,1,0,0h-52a0,0,0,0,1,0,0v-21A26,26,0,0,1,315.5,112.5Z"/><path fill="#ff4e4e" d="M315.5,112.5h0a25.99061,25.99061,0,0,0-7.5,1.10315,26.00762,26.00762,0,0,1,18.5,24.89679V159.5h15V138.49994A25.99994,25.99994,0,0,0,315.5,112.5Z"/><circle cx="351" cy="401" r="15" fill="#676e87"/><circle cx="111" cy="401" r="15" fill="#676e87"/><path fill="#ff4e4e" d="M474.5,371a30,30,0,0,1-30,30h30a30,30,0,0,0,30-30V315.5h-30Z"/><polygon fill="#d9f0ff" points="345.97 258.5 328.43 258.5 278.76 189.5 296.31 189.5 345.97 258.5"/><polygon fill="#d9f0ff" points="323.78 258.5 316.83 258.5 267.16 189.5 274.11 189.5 323.78 258.5"/><path fill="#313440" d="M342.188,83.53223a7.495,7.495,0,0,0,10.2168-2.84766L361.915,63.82422a7.49973,7.49973,0,1,0-13.06445-7.36914l-9.51026,16.86035A7.49932,7.49932,0,0,0,342.188,83.53223ZM84.50488,106H195.7876a7.5,7.5,0,0,0,0-15H84.50488a7.5,7.5,0,0,0,0,15Zm-42.43847,0H54.32617a7.5,7.5,0,0,0,0-15H42.06641a7.5,7.5,0,1,0,0,15Zm84.87646-28.22119h82.99072a7.5,7.5,0,1,0,0-15H126.94287a7.5,7.5,0,0,0,0,15Zm151.65234,2.90576a7.49974,7.49974,0,0,0,13.06446-7.36914l-9.51026-16.86035A7.49973,7.49973,0,1,0,269.085,63.82422ZM315.5,84.5A7.50006,7.50006,0,0,0,323,77V55a7.5,7.5,0,0,0-15,0V77A7.50006,7.50006,0,0,0,315.5,84.5Zm98.038,324H474.5A37.54227,37.54227,0,0,0,512,371V310.12256a37.45245,37.45245,0,0,0-25.6416-35.57568L419.97461,252.419l-35.65332-78.43653A37.57874,37.57874,0,0,0,350.18262,152H349V138.5a33.5,33.5,0,0,0-67,0V152H37.5A37.54227,37.54227,0,0,0,0,189.5V371a37.54227,37.54227,0,0,0,37.5,37.5H48.46191a62.961,62.961,0,0,0,22.37671,41H7.5a7.5,7.5,0,0,0,0,15h497a7.5,7.5,0,0,0,0-15H391.16138A62.96084,62.96084,0,0,0,413.538,408.5ZM297,138.5a18.5,18.5,0,0,1,37,0V152H297ZM176.5,167H350.18262a22.54785,22.54785,0,0,1,20.4834,13.18945l37.00634,81.41407a7.50057,7.50057,0,0,0,4.45606,4.01171l69.48681,23.16211A22.4616,22.4616,0,0,1,496.89032,308H176.5ZM15,189.5A22.52523,22.52523,0,0,1,37.5,167h124V308H15Zm22.5,204A22.52523,22.52523,0,0,1,15,371V323H497v48a22.52523,22.52523,0,0,1-22.5,22.5H413.538a62.98431,62.98431,0,0,0-125.07611,0H173.53809a62.98435,62.98435,0,0,0-125.07618,0ZM111,449a48,48,0,1,1,48-48A48.05436,48.05436,0,0,1,111,449Zm40.16138.5a62.961,62.961,0,0,0,22.37671-41H288.46191a62.961,62.961,0,0,0,22.37671,41ZM351,449a48,48,0,1,1,48-48A48.05436,48.05436,0,0,1,351,449Zm0-70.5A22.5,22.5,0,1,0,373.5,401,22.52523,22.52523,0,0,0,351,378.5Zm0,30a7.5,7.5,0,1,1,7.5-7.5A7.5082,7.5082,0,0,1,351,408.5ZM129,215H113.5V199.5A17.52,17.52,0,0,0,96,182H86a17.52,17.52,0,0,0-17.5,17.5V215H53a17.52,17.52,0,0,0-17.5,17.5v10A17.52,17.52,0,0,0,53,260H68.5v15.5A17.52,17.52,0,0,0,86,293H96a17.52,17.52,0,0,0,17.5-17.5V260H129a17.52,17.52,0,0,0,17.5-17.5v-10A17.52,17.52,0,0,0,129,215Zm2.5,27.5A2.50294,2.50294,0,0,1,129,245H106a7.50006,7.50006,0,0,0-7.5,7.5v23A2.50294,2.50294,0,0,1,96,278H86a2.50294,2.50294,0,0,1-2.5-2.5v-23A7.50006,7.50006,0,0,0,76,245H53a2.50294,2.50294,0,0,1-2.5-2.5v-10A2.50294,2.50294,0,0,1,53,230H76a7.50006,7.50006,0,0,0,7.5-7.5v-23A2.50294,2.50294,0,0,1,86,197H96a2.50294,2.50294,0,0,1,2.5,2.5v23A7.50006,7.50006,0,0,0,106,230h23a2.50294,2.50294,0,0,1,2.5,2.5Zm223.30371-56.15527A7.49955,7.49955,0,0,0,348,182H256a7.50006,7.50006,0,0,0-7.5,7.5v69A7.50006,7.50006,0,0,0,256,266H380a7.4998,7.4998,0,0,0,6.80371-10.65527ZM263.5,251V197h79.71094l25.04345,54ZM111,378.5A22.5,22.5,0,1,0,133.5,401,22.52523,22.52523,0,0,0,111,378.5Zm0,30a7.5,7.5,0,1,1,7.5-7.5A7.5082,7.5082,0,0,1,111,408.5Z"/></svg>