<svg width="100" height="100" viewBox="0 0 100 100" fill="none" xmlns="http://www.w3.org/2000/svg">
<path d="M38.8022 54.9844H31.4039C31.1957 54.9844 30.9895 55.0192 30.7972 55.087C30.6048 55.1547 30.43 55.2539 30.2828 55.3791C30.1356 55.5042 30.0188 55.6528 29.9392 55.8163C29.8595 55.9798 29.8185 56.1551 29.8185 56.332V62.6211C29.8185 62.7981 29.8595 62.9733 29.9392 63.1368C30.0188 63.3003 30.1356 63.4489 30.2828 63.5741C30.43 63.6992 30.6048 63.7985 30.7972 63.8662C30.9895 63.9339 31.1957 63.9688 31.4039 63.9688H38.8022C39.0104 63.9688 39.2166 63.9339 39.4089 63.8662C39.6013 63.7985 39.7761 63.6992 39.9233 63.5741C40.0705 63.4489 40.1873 63.3003 40.2669 63.1368C40.3466 62.9733 40.3876 62.7981 40.3876 62.6211V56.332C40.3876 56.1551 40.3466 55.9798 40.2669 55.8163C40.1873 55.6528 40.0705 55.5042 39.9233 55.3791C39.7761 55.2539 39.6013 55.1547 39.4089 55.087C39.2166 55.0192 39.0104 54.9844 38.8022 54.9844V54.9844ZM37.2169 61.2734H32.9892V57.6797H37.2169V61.2734ZM38.8022 69.3594H31.4039C31.1957 69.3594 30.9895 69.3942 30.7972 69.462C30.6048 69.5297 30.43 69.6289 30.2828 69.7541C30.1356 69.8792 30.0188 70.0278 29.9392 70.1913C29.8595 70.3548 29.8185 70.5301 29.8185 70.707V76.9961C29.8185 77.1731 29.8595 77.3483 29.9392 77.5118C30.0188 77.6753 30.1356 77.8239 30.2828 77.9491C30.43 78.0742 30.6048 78.1735 30.7972 78.2412C30.9895 78.3089 31.1957 78.3438 31.4039 78.3438H38.8022C39.0104 78.3438 39.2166 78.3089 39.4089 78.2412C39.6013 78.1735 39.7761 78.0742 39.9233 77.9491C40.0705 77.8239 40.1873 77.6753 40.2669 77.5118C40.3466 77.3483 40.3876 77.1731 40.3876 76.9961V70.707C40.3876 70.5301 40.3466 70.3548 40.2669 70.1913C40.1873 70.0278 40.0705 69.8792 39.9233 69.7541C39.7761 69.6289 39.6013 69.5297 39.4089 69.462C39.2166 69.3942 39.0104 69.3594 38.8022 69.3594V69.3594ZM37.2169 75.6484H32.9892V72.0547H37.2169V75.6484ZM61.6315 75.6484H48.3144C47.894 75.6484 47.4907 75.7904 47.1934 76.0432C46.8961 76.2959 46.7291 76.6387 46.7291 76.9961C46.7291 77.3535 46.8961 77.6963 47.1934 77.949C47.4907 78.2018 47.894 78.3438 48.3144 78.3438H61.6315C62.052 78.3438 62.4552 78.2018 62.7525 77.949C63.0499 77.6963 63.2169 77.3535 63.2169 76.9961C63.2169 76.6387 63.0499 76.2959 62.7525 76.0432C62.4552 75.7904 62.052 75.6484 61.6315 75.6484ZM56.8613 31.4453H74.5258C74.9463 31.4453 75.3495 31.3033 75.6468 31.0506C75.9442 30.7979 76.1112 30.4551 76.1112 30.0977C76.1112 29.7402 75.9442 29.3975 75.6468 29.1447C75.3495 28.892 74.9463 28.75 74.5258 28.75H56.8613C56.4408 28.75 56.0376 28.892 55.7403 29.1447C55.4429 29.3975 55.2759 29.7402 55.2759 30.0977C55.2759 30.4551 55.4429 30.7979 55.7403 31.0506C56.0376 31.3033 56.4408 31.4453 56.8613 31.4453ZM56.8613 36.8359H68.1844C68.6048 36.8359 69.0081 36.694 69.3054 36.4412C69.6027 36.1885 69.7697 35.8457 69.7697 35.4883C69.7697 35.1309 69.6027 34.7881 69.3054 34.5354C69.0081 34.2826 68.6048 34.1406 68.1844 34.1406H56.8613C56.4408 34.1406 56.0376 34.2826 55.7403 34.5354C55.4429 34.7881 55.2759 35.1309 55.2759 35.4883C55.2759 35.8457 55.4429 36.1885 55.7403 36.4412C56.0376 36.694 56.4408 36.8359 56.8613 36.8359ZM31.093 48.9822C31.2971 49.017 31.5074 49.0172 31.7116 48.9828C31.9158 48.9485 32.1101 48.8803 32.2834 48.7821C32.4566 48.6839 32.6054 48.5577 32.7212 48.4106C32.8371 48.2636 32.9177 48.0985 32.9585 47.925C33.3805 46.148 34.5127 44.5499 36.1631 43.4018C37.8136 42.2537 39.8805 41.6265 42.013 41.6264C44.1456 41.6264 46.2125 42.2536 47.863 43.4017C49.5134 44.5497 50.6458 46.1478 51.0678 47.9248C51.1502 48.2753 51.393 48.5836 51.7428 48.7819C52.0926 48.9802 52.5207 49.0523 52.9331 48.9822C53.3454 48.9122 53.7081 48.7058 53.9413 48.4084C54.1746 48.1111 54.2594 47.7471 54.177 47.3966C53.7893 45.7651 52.9537 44.2344 51.7383 42.9293C50.523 41.6242 48.9622 40.5816 47.183 39.8864C48.2939 39.0041 49.0668 37.8581 49.401 36.5974C49.7352 35.3368 49.6154 34.0198 49.0571 32.8177C48.4988 31.6157 47.5279 30.5844 46.2706 29.8579C45.0134 29.1313 43.528 28.7432 42.0078 28.7441C40.4875 28.745 39.0027 29.1347 37.7466 29.8627C36.4905 30.5906 35.5212 31.6231 34.9648 32.8257C34.4084 34.0283 34.2906 35.3455 34.6268 36.6058C34.963 37.8661 35.7376 39.0112 36.8499 39.8922C35.0696 40.5852 33.5073 41.6263 32.2906 42.9305C31.074 44.2347 30.2374 45.765 29.8493 47.3964C29.7668 47.7469 29.8515 48.1109 30.0848 48.4083C30.318 48.7057 30.6807 48.9121 31.093 48.9822V48.9822ZM42.0129 31.4453C42.8837 31.4453 43.735 31.6648 44.459 32.0761C45.1831 32.4873 45.7474 33.0719 46.0807 33.7558C46.4139 34.4397 46.5011 35.1922 46.3312 35.9182C46.1613 36.6442 45.742 37.3111 45.1262 37.8346C44.5105 38.358 43.726 38.7144 42.8719 38.8589C42.0178 39.0033 41.1325 38.9292 40.328 38.6459C39.5235 38.3626 38.8358 37.8829 38.352 37.2674C37.8683 36.6519 37.61 35.9283 37.61 35.188C37.6113 34.1958 38.0756 33.2444 38.901 32.5428C39.7265 31.8411 40.8456 31.4464 42.0129 31.4453V31.4453ZM61.6315 69.3594H48.3144C47.894 69.3594 47.4907 69.5014 47.1934 69.7541C46.8961 70.0068 46.7291 70.3496 46.7291 70.707C46.7291 71.0645 46.8961 71.4072 47.1934 71.66C47.4907 71.9127 47.894 72.0547 48.3144 72.0547H61.6315C62.052 72.0547 62.4552 71.9127 62.7525 71.66C63.0499 71.4072 63.2169 71.0645 63.2169 70.707C63.2169 70.3496 63.0499 70.0068 62.7525 69.7541C62.4552 69.5014 62.052 69.3594 61.6315 69.3594ZM84.038 11.6797H73.7758C73.4294 10.6457 72.6964 9.73574 71.6876 9.08735C70.6788 8.43897 69.4491 8.08745 68.1844 8.08595H64.31C63.8378 5.81989 62.442 3.76754 60.3675 2.28896C58.2929 0.810385 55.6721 1.04904e-05 52.9648 1.04904e-05C50.2576 1.04904e-05 47.6368 0.810385 45.5622 2.28896C43.4877 3.76754 42.0919 5.81989 41.6197 8.08595H37.7453C36.4806 8.08745 35.2509 8.43897 34.2421 9.08735C33.2333 9.73574 32.5002 10.6457 32.1539 11.6797H21.8917C19.7901 11.6817 17.7752 12.3923 16.2892 13.6555C14.8031 14.9188 13.9672 16.6315 13.9648 18.418V85.2617C13.9672 87.0482 14.8031 88.761 16.2892 90.0242C17.7752 91.2874 19.7901 91.998 21.8917 92H84.038C86.1396 91.998 88.1545 91.2874 89.6405 90.0242C91.1266 88.761 91.9625 87.0482 91.9648 85.2617V18.418C91.9625 16.6315 91.1266 14.9188 89.6405 13.6555C88.1545 12.3923 86.1396 11.6817 84.038 11.6797ZM35.1031 13.0274C35.1038 12.4319 35.3825 11.8609 35.8778 11.4399C36.3732 11.0188 37.0448 10.7819 37.7453 10.7813H43.0406C43.4496 10.7813 43.8428 10.6469 44.1379 10.4063C44.4331 10.1657 44.6075 9.83737 44.6246 9.49002C44.7161 7.66185 45.6347 5.93437 47.1888 4.66827C48.7429 3.40216 50.8123 2.69531 52.9648 2.69531C55.1174 2.69531 57.1868 3.40216 58.7409 4.66827C60.295 5.93437 61.2136 7.66185 61.305 9.49002C61.3222 9.83737 61.4966 10.1657 61.7917 10.4063C62.0869 10.6469 62.4801 10.7813 62.8891 10.7813H68.1844C68.8849 10.7819 69.5565 11.0188 70.0519 11.4399C70.5472 11.8609 70.8258 12.4319 70.8266 13.0274V18.418C70.8258 19.0135 70.5472 19.5844 70.0519 20.0055C69.5565 20.4265 68.8849 20.6634 68.1844 20.6641H37.7453C37.0448 20.6634 36.3732 20.4265 35.8778 20.0055C35.3825 19.5844 35.1038 19.0135 35.1031 18.418V13.0274ZM37.7453 23.3594H68.1844C69.4491 23.3579 70.6788 23.0064 71.6876 22.358C72.6964 21.7096 73.4294 20.7996 73.7758 19.7656H82.4527V69.3594H72.412C71.6554 69.3601 70.9301 69.6159 70.3951 70.0707C69.8601 70.5254 69.5592 71.142 69.5583 71.7852V81.2188H23.477V19.7656H32.1539C32.5002 20.7996 33.2333 21.7096 34.2421 22.358C35.2509 23.0064 36.4806 23.3579 37.7453 23.3594ZM80.4139 72.0547L72.7291 79.1228V72.0547H80.4139ZM88.7941 85.2617C88.7927 86.3336 88.2911 87.3613 87.3995 88.1192C86.5079 88.8771 85.299 89.3035 84.038 89.3047H21.8917C20.6307 89.3035 19.4218 88.8771 18.5302 88.1192C17.6386 87.3613 17.137 86.3336 17.1356 85.2617V18.418C17.137 17.3461 17.6385 16.3184 18.5302 15.5605C19.4218 14.8025 20.6307 14.3762 21.8917 14.375H31.9323V17.0703H23.16C22.4034 17.0711 21.6781 17.3269 21.1431 17.7816C20.6081 18.2364 20.3072 18.853 20.3063 19.4961V81.4883C20.3072 82.1314 20.6081 82.748 21.1431 83.2028C21.678 83.6576 22.4034 83.9134 23.16 83.9141H71.1437C71.1987 83.914 71.2536 83.9116 71.3083 83.9068L71.3095 83.9066C71.3633 83.9018 71.4167 83.8947 71.4696 83.8853L71.4748 83.8841C71.5259 83.8749 71.5761 83.8637 71.6253 83.8503C71.6317 83.8486 71.6379 83.8462 71.6443 83.8444C71.6883 83.8319 71.7317 83.8184 71.7739 83.8028C71.7858 83.7984 71.7972 83.7931 71.809 83.7884C71.8448 83.7743 71.8804 83.7598 71.9148 83.7435C71.9306 83.736 71.9457 83.7274 71.9612 83.7195C71.9903 83.7045 72.0194 83.6895 72.0473 83.673C72.065 83.6626 72.0818 83.6512 72.099 83.6401C72.1236 83.6243 72.1481 83.6084 72.1716 83.5914C72.1891 83.5787 72.2058 83.5652 72.2227 83.5519C72.2446 83.5345 72.2663 83.5169 72.287 83.4985C72.2938 83.4925 72.3013 83.4873 72.308 83.4812L85.2023 71.6218C85.2126 71.6123 85.2216 71.6019 85.2316 71.5922C85.2479 71.5763 85.264 71.5603 85.2794 71.5438C85.2948 71.5273 85.3093 71.5105 85.3237 71.4934C85.3389 71.4755 85.3539 71.4575 85.3681 71.4389C85.3806 71.4225 85.3922 71.4057 85.4039 71.3889C85.4179 71.3686 85.4318 71.3482 85.4446 71.3273C85.4544 71.3113 85.4631 71.295 85.4721 71.2788C85.4846 71.2562 85.4969 71.2337 85.5079 71.2105C85.5155 71.1946 85.5219 71.1783 85.5287 71.1622C85.5388 71.1382 85.549 71.1143 85.5576 71.0897C85.5636 71.0724 85.5682 71.0548 85.5734 71.0373C85.5805 71.0135 85.588 70.9899 85.5935 70.9657C85.5986 70.9436 85.6017 70.9212 85.6055 70.8988C85.6089 70.8786 85.6133 70.8587 85.6156 70.8382C85.6206 70.7948 85.6234 70.751 85.6234 70.707V19.4961C85.6225 18.853 85.3216 18.2364 84.7866 17.7816C84.2516 17.3269 83.5263 17.0711 82.7697 17.0703H73.9974V14.375H84.038C85.299 14.3762 86.5079 14.8025 87.3995 15.5605C88.2912 16.3184 88.7927 17.3461 88.7941 18.418V85.2617ZM74.5258 54.9844H48.3144C47.894 54.9844 47.4907 55.1264 47.1934 55.3791C46.8961 55.6318 46.7291 55.9746 46.7291 56.332C46.7291 56.6895 46.8961 57.0322 47.1934 57.285C47.4907 57.5377 47.894 57.6797 48.3144 57.6797H74.5258C74.9463 57.6797 75.3495 57.5377 75.6468 57.285C75.9442 57.0322 76.1112 56.6895 76.1112 56.332C76.1112 55.9746 75.9442 55.6318 75.6468 55.3791C75.3495 55.1264 74.9463 54.9844 74.5258 54.9844ZM74.5258 61.2734H48.3144C47.894 61.2734 47.4907 61.4154 47.1934 61.6682C46.8961 61.9209 46.7291 62.2637 46.7291 62.6211C46.7291 62.9785 46.8961 63.3213 47.1934 63.574C47.4907 63.8268 47.894 63.9688 48.3144 63.9688H74.5258C74.9463 63.9688 75.3495 63.8268 75.6468 63.574C75.9442 63.3213 76.1112 62.9785 76.1112 62.6211C76.1112 62.2637 75.9442 61.9209 75.6468 61.6682C75.3495 61.4154 74.9463 61.2734 74.5258 61.2734Z" fill="white"/>
</svg>
