<svg id="SvgjsSvg1001" width="288" height="288" xmlns="http://www.w3.org/2000/svg" version="1.1" xmlns:xlink="http://www.w3.org/1999/xlink" xmlns:svgjs="http://svgjs.com/svgjs"><defs id="SvgjsDefs1002"></defs><g id="SvgjsG1008" transform="matrix(0.9167,0,0,0.9167,11.920231878781323,11.995200000000011)"><!--?xml version="1.0" encoding="UTF-8"?--><svg xmlns="http://www.w3.org/2000/svg" xmlns:xlink="http://www.w3.org/1999/xlink" id="Слой_1" version="1.1" viewBox="0 0 40 40" xml:space="preserve" width="288" height="288"><path d="M15.3 30.9C6.8 30.9-.1 24-.1 15.5S6.8 0 15.3 0s15.5 7 15.5 15.5c0 1.2-.1 2.4-.4 3.6-.1.5-.7.9-1.2.7-.5-.1-.9-.7-.7-1.2.2-1 .4-2 .4-3.1 0-7.4-6-13.5-13.5-13.5S1.9 8.1 1.9 15.5 7.9 29 15.4 29c1.1 0 2.1-.1 3.2-.4.5-.1 1.1.2 1.2.7.1.5-.2 1.1-.7 1.2-1.3.3-2.5.4-3.8.4z" fill="#3f4662" class="color000 svgShape"></path><path d="M36.4 40c-.9 0-1.8-.4-2.5-1l-11-11c-.4-.4-.4-1 0-1.4s1-.4 1.4 0l11 11c.6.6 1.6.6 2.1 0 .6-.6.6-1.6 0-2.1l-11-11c-.4-.4-.4-1 0-1.4s1-.4 1.4 0l11 11c1.4 1.4 1.4 3.6 0 5-.6.5-1.5.9-2.4.9z" fill="#3f4662" class="color000 svgShape"></path><path d="M15.3 27C9 27 3.8 21.8 3.8 15.5S9 4 15.3 4s11.5 5.2 11.5 11.5S21.7 27 15.3 27zm0-21c-5.2 0-9.5 4.3-9.5 9.5s4.3 9.5 9.5 9.5 9.5-4.3 9.5-9.5S20.6 6 15.3 6z" fill="#3f4662" class="color000 svgShape"></path><metadata><rdf:rdf xmlns:rdf="http://www.w3.org/1999/02/22-rdf-syntax-ns#" xmlns:rdfs="http://www.w3.org/2000/01/rdf-schema#" xmlns:dc="http://purl.org/dc/elements/1.1/"><rdf:description about="https://iconscout.com/legal#licenses" dc:title="find,magnifier,search,zoo" dc:description="find,magnifier,search,zoo" dc:publisher="Iconscout" dc:date="2017-09-26" dc:format="image/svg+xml" dc:language="en"><dc:creator><rdf:bag><rdf:li>The Eyecons</rdf:li></rdf:bag></dc:creator></rdf:description></rdf:rdf></metadata></svg></g></svg>