<svg width="100" height="100" viewBox="0 0 100 100" fill="none" xmlns="http://www.w3.org/2000/svg">
<g clip-path="url(#clip0)">
<g filter="url(#filter0_d)">
<path fill-rule="evenodd" clip-rule="evenodd" d="M81.9516 56.3903H71.629C70.1532 56.3903 69.171 55.4065 69.171 53.9323C69.171 52.4581 70.1548 51.4742 71.629 51.4742H81.9516C84.4081 51.4742 86.8661 50.9839 89.3242 50.4903C90.7984 50 91.7822 49.5081 92.7645 49.0161C93.7484 48.5258 94.2403 47.05 94.2403 46.0678C94.2403 45.0839 93.7484 44.1 93.2564 43.1178C90.7984 40.1694 86.3742 38.2032 80.4758 36.2371C79.9839 36.2371 79.9839 35.7452 79.4919 35.7452C78.0177 34.7613 77.0355 33.2871 76.5435 31.8129C76.5435 29.8452 77.5274 28.371 79.0016 27.3887C82.4419 22.4726 84.4081 18.05 83.9177 14.1161C83.4258 11.6597 82.4419 9.69356 80.4758 8.21775C77.0355 5.75969 72.121 5.75969 69.1693 8.21775C67.2048 9.69356 66.221 11.6597 65.729 14.1161C65.2387 18.0484 67.2048 22.4726 70.6451 27.3887C71.629 28.3726 71.1371 29.8468 70.1532 30.829C69.1693 31.8129 67.6951 31.321 66.7129 30.3387C61.7968 24.4387 59.8306 18.5403 60.8145 13.1339C61.3064 9.69356 63.2726 6.25163 66.221 4.2855C71.1371 0.353239 78.5113 0.353239 83.4258 4.2855C86.3742 6.74356 88.3403 9.69356 88.8323 13.1339C89.3242 18.5403 87.3581 24.4403 82.9339 30.3387C82.4419 30.829 82.4419 31.321 81.95 31.321C81.95 31.321 82.4419 31.321 82.4419 31.8129C88.8322 33.779 93.7484 36.7274 96.6968 40.1678C98.1726 41.6436 99.1548 44.1016 99.1548 46.5597C99.1549 47.8949 98.844 49.2119 98.2469 50.4061C97.6498 51.6004 96.7827 52.6392 95.7145 53.4403C94.2403 54.4242 92.7645 55.4081 90.7984 55.8984C87.85 55.8984 84.9 56.3903 81.9516 56.3903V56.3903Z" fill="white"/>
<path fill-rule="evenodd" clip-rule="evenodd" d="M28.371 56.3903H18.0484C14.6081 56.3903 11.6597 55.8984 9.20161 54.9161C7.23386 54.4242 5.75967 53.4403 4.28548 52.4581C2.31935 50.9839 0.845154 48.0339 0.845154 45.5758C0.845154 43.1177 1.82902 41.1516 3.30322 39.1855C6.74354 35.7452 11.6581 33.2871 18.0484 31.321C18.0484 31.321 18.5403 31.321 18.5403 30.829C18.5403 30.829 18.0484 30.3387 18.0484 29.8452C13.1339 23.95 10.6774 17.5597 11.6613 12.6436C12.1516 9.20324 14.1177 5.7613 17.0677 3.79517C21.9839 -0.137087 29.3564 -0.137087 34.2726 3.79517C37.221 6.25324 39.1871 9.20324 39.679 12.6436C40.171 18.05 38.2048 23.95 33.7806 29.8484C32.7968 30.8323 31.3226 30.8323 30.3403 30.3403C29.3564 29.3565 28.8645 27.8823 29.8484 26.8984C33.7806 21.9839 35.2548 17.0678 34.7629 13.6274C34.7629 11.1694 33.2887 9.20324 31.3226 7.72743C27.8823 5.27098 23.4581 5.27098 20.0161 7.72743C18.05 9.20324 16.5758 11.1694 16.5758 13.1355C16.0839 17.0678 18.05 21.4903 21.4919 26.4065C22.4758 27.8823 23.95 29.3565 23.4581 30.8307C23.4581 32.7984 21.9839 33.7807 20.5081 34.7629C20.5081 34.7629 20.0177 35.2548 19.5242 35.2548C14.1177 37.7129 10.1855 39.679 7.23709 42.629C6.74515 43.6129 6.25322 44.5952 6.25322 45.5774C6.25322 47.0516 6.74515 48.0355 7.72741 48.5274C8.71128 49.0177 9.69515 49.5113 11.1693 50.0016C13.1355 50.9855 15.5935 51.4758 18.05 51.4758H28.3726C29.8484 51.4758 30.8306 52.4597 30.8306 53.9339C30.8306 55.4081 29.8468 56.3919 28.3726 56.3919L28.371 56.3903Z" fill="white"/>
<path fill-rule="evenodd" clip-rule="evenodd" d="M60.3226 99.1549H40.1694C35.7452 99.1549 31.8129 98.6629 28.371 97.1887C25.9145 96.2048 23.9484 95.2226 22.4726 93.7484C19.5242 92.2742 18.0484 88.8323 18.0484 85.3919C18.0484 82.4419 19.0323 79.9839 20.9984 77.5274C24.9306 73.1032 31.321 69.6613 40.1694 66.7129L41.6435 65.2387L40.1694 63.7629C33.779 55.4081 30.8306 48.0339 31.8129 41.1516C32.7968 36.7274 34.7613 32.7968 38.6935 29.8452C45.0839 25.4226 54.9161 25.4226 60.8145 29.8452C64.7468 32.7968 67.2048 36.7274 67.6952 41.1516C68.679 48.0339 65.729 55.8984 59.8306 63.7645C58.3565 65.2387 58.3564 65.729 58.3564 65.729C58.3564 65.729 59.3403 66.221 59.8306 66.7129C68.679 69.6613 75.0694 73.1032 79.0016 77.5274C80.9677 79.4936 81.9516 82.4419 81.9516 85.3919C81.9516 88.8323 80.4758 92.2742 78.0177 94.2403C76.5435 95.7145 74.5774 96.6968 72.1194 97.6807C68.1871 98.6645 64.2548 99.1549 60.3226 99.1549V99.1549ZM50 30.829C47.05 30.829 44.1016 31.8129 41.6435 33.2871C38.6935 35.2548 37.2194 38.2032 36.7274 41.6436C36.2371 47.05 38.6952 53.4403 43.6097 60.3226C45.0839 61.7968 46.5597 63.2726 46.0677 65.729C46.0677 67.6968 44.1 69.171 42.6274 70.6452C42.6274 70.6452 42.1355 71.1371 41.6435 71.1371C33.2887 73.5952 27.8806 77.0355 23.9484 80.9678C23.4564 81.9516 22.9645 83.9178 22.9645 85.3919C22.9645 87.3581 23.9484 89.3242 25.4226 90.3065C26.4064 91.2903 28.371 92.2742 30.3387 92.7645C33.2871 93.7484 36.7274 94.2403 40.1694 94.2403H60.3226C63.7629 94.2403 67.2048 93.7484 70.1532 92.7645C72.121 92.2742 73.5952 91.2903 75.0694 90.3065C76.5435 89.3242 77.5274 87.3581 77.5274 85.3919C77.5274 83.9178 77.0355 81.9516 75.5597 80.9678C72.1194 77.0355 66.221 74.0855 57.8661 71.1371C57.3726 71.1371 57.3726 70.6452 56.8823 70.6452C55.4064 69.171 53.4403 67.6952 53.4403 65.729C53.4403 63.7629 54.9161 61.7968 56.3903 60.3226C61.3065 53.9323 63.7629 47.05 63.2726 41.6436C62.7806 38.2032 61.3048 35.7452 58.3564 33.2887C55.8984 31.8129 52.95 30.829 50 30.829V30.829Z" fill="white"/>
</g>
</g>
<defs>
<filter id="filter0_d" x="-15.1548" y="-11.154" width="130.31" height="130.309" filterUnits="userSpaceOnUse" color-interpolation-filters="sRGB">
<feFlood flood-opacity="0" result="BackgroundImageFix"/>
<feColorMatrix in="SourceAlpha" type="matrix" values="0 0 0 0 0 0 0 0 0 0 0 0 0 0 0 0 0 0 127 0"/>
<feOffset dy="4"/>
<feGaussianBlur stdDeviation="8"/>
<feColorMatrix type="matrix" values="0 0 0 0 0 0 0 0 0 0 0 0 0 0 0 0 0 0 0.25 0"/>
<feBlend mode="normal" in2="BackgroundImageFix" result="effect1_dropShadow"/>
<feBlend mode="normal" in="SourceGraphic" in2="effect1_dropShadow" result="shape"/>
</filter>
<clipPath id="clip0">
<rect width="100" height="100" fill="white"/>
</clipPath>
</defs>
</svg>
