<svg xmlns="http://www.w3.org/2000/svg" data-name="Layer 1" viewBox="0 0 512 512"><rect width="354" height="432" x="79" y="72.5" fill="#ffc166" rx="30"/><path fill="#fff" d="M363,102.5h34a6.00472,6.00472,0,0,1,6,6v285l-61,66H115a6.00472,6.00472,0,0,1-6-6v-345a6.00472,6.00472,0,0,1,6-6H363Z"/><path fill="#eee" d="M363,87.5v30a19.99447,19.99447,0,0,1-20,20H199a19.99447,19.99447,0,0,1-20-20v-30a19.91407,19.91407,0,0,1,6.78-15H356.22A19.91423,19.91423,0,0,1,363,87.5Z"/><path fill="#ffb74e" d="M363,87.5v15H179v-15a19.91407,19.91407,0,0,1,6.78-15H356.22A19.91423,19.91423,0,0,1,363,87.5Z"/><path fill="#bebebe" d="M302.9494,52.5a46.99162,46.99162,0,0,0-93.8988,0H184a20,20,0,0,0-20,20v30a20,20,0,0,0,20,20H328a20,20,0,0,0,20-20v-30a20,20,0,0,0-20-20Z"/><path fill="#adadad" d="M328 52.5H313a20 20 0 0 1 20 20v30a20 20 0 0 1-20 20h15a20 20 0 0 0 20-20v-30A20 20 0 0 0 328 52.5zM287.9494 52.5h15A46.9739 46.9739 0 0 0 248.5 8.10535 47.00486 47.00486 0 0 1 287.9494 52.5z"/><path fill="#eee" d="M342,459.5V399.50024a6,6,0,0,1,6-6h55Z"/><path fill="#ff8e66" d="M154,265.24232a51.19933,51.19933,0,0,1,100.3797,0l-.00763,7.50084-101.84277-.14648Z"/><path fill="#ff7c4e" d="M240.38745,239.1499a51.02854,51.02854,0,0,0-36.20178-14.99182,51.5532,51.5532,0,0,0-7.48578.55359,51.20422,51.20422,0,0,1,42.67981,40.53064h15A51.04863,51.04863,0,0,0,240.38745,239.1499Z"/><circle cx="204.189" cy="195.829" r="28.329" fill="#ffcd85"/><path fill="#ffc166" d="M204.18878,167.5a28.336,28.336,0,0,0-7.5,1.01123,28.3286,28.3286,0,0,1,0,54.63574,28.32892,28.32892,0,1,0,7.5-55.647Z"/><rect width="42.5" height="42.5" x="150.25" y="306" fill="#eee" rx="5"/><rect width="44.286" height="44.286" x="149.357" y="384.214" fill="#eee" rx="5"/><path fill="#313440" d="M189,306H154a7.49974,7.49974,0,0,0-7.5,7.5v35A7.49974,7.49974,0,0,0,154,356h35a7.49974,7.49974,0,0,0,7.5-7.5v-35A7.49974,7.49974,0,0,0,189,306Zm-7.5,35h-20V321h20Zm7.5,45H154a7.49974,7.49974,0,0,0-7.5,7.5v35A7.49974,7.49974,0,0,0,154,436h35a7.49974,7.49974,0,0,0,7.5-7.5v-35A7.49974,7.49974,0,0,0,189,386Zm-7.5,35h-20V401h20ZM297,421H234a7.5,7.5,0,0,0,0,15h63a7.5,7.5,0,0,0,0-15ZM274.43311,175H358a7.5,7.5,0,0,0,0-15H274.43311a7.5,7.5,0,0,0,0,15Zm0,30H328a7.5,7.5,0,0,0,0-15H274.43311a7.5,7.5,0,0,0,0,15ZM152.5293,272.59668a7.49912,7.49912,0,0,0,8.82519-5.88379,43.69956,43.69956,0,0,1,85.6709-.001,7.49991,7.49991,0,1,0,14.709-2.93945,58.81939,58.81939,0,0,0-33.08674-41.79626,35.8285,35.8285,0,1,0-48.88379.03247,58.7403,58.7403,0,0,0-33.11834,41.76281A7.50036,7.50036,0,0,0,152.5293,272.59668ZM204.189,175a20.8291,20.8291,0,1,1-20.8291,20.8291A20.8524,20.8524,0,0,1,204.189,175ZM297,386H234a7.5,7.5,0,0,0,0,15h63a7.5,7.5,0,0,0,0-15ZM403,65H354.4519A27.54343,27.54343,0,0,0,328,45H309.67139a54.50687,54.50687,0,0,0-107.34278,0H184a27.54343,27.54343,0,0,0-26.4519,20H109a37.54227,37.54227,0,0,0-37.5,37.5v372A37.54227,37.54227,0,0,0,109,512H403a37.54227,37.54227,0,0,0,37.5-37.5v-372A37.54227,37.54227,0,0,0,403,65ZM171.5,72.5A12.51408,12.51408,0,0,1,184,60h25.05078a7.50023,7.50023,0,0,0,7.49365-7.186,39.4912,39.4912,0,0,1,78.91114,0A7.50023,7.50023,0,0,0,302.94922,60H328a12.51408,12.51408,0,0,1,12.5,12.5v30A12.51408,12.51408,0,0,1,328,115H184a12.51408,12.51408,0,0,1-12.5-12.5ZM184,130H328a27.54343,27.54343,0,0,0,26.4519-20H395.5V386H348a13.51507,13.51507,0,0,0-13.5,13.5V452h-218V110h41.0481A27.54343,27.54343,0,0,0,184,130ZM385.8551,401,349.5,440.33545V401ZM425.5,474.5A22.52554,22.52554,0,0,1,403,497H109a22.52554,22.52554,0,0,1-22.5-22.5v-372A22.52523,22.52523,0,0,1,109,80h47.5V95H115a13.51539,13.51539,0,0,0-13.5,13.5v345A13.51507,13.51507,0,0,0,115,467H342a7.59758,7.59758,0,0,0,.77875-.04053l.00567-.001a7.43127,7.43127,0,0,0,.75739-.11866l.02435-.00634q.36292-.0769.71222-.18824c.0304-.00976.05951-.0227.08978-.033.20819-.06933.4134-.14477.613-.23144.0564-.02441.11017-.0542.166-.08008.16967-.07861.338-.15942.50048-.25.07477-.04175.14618-.08935.21955-.1333.138-.0835.27533-.16724.40729-.259.08374-.05811.16357-.12158.245-.18311.11633-.08813.23206-.17651.343-.27124.08282-.07056.162-.14551.24188-.21972.10388-.09668.20618-.19459.30444-.29688.03205-.03345.06757-.0625.09906-.09668l61-66c.04895-.053.09131-.11072.13861-.16492.07715-.08838.15326-.17712.22626-.26916.07269-.09155.14154-.18555.20966-.28028.0719-.09985.14288-.2.21-.30334.05914-.09131.11407-.18469.16906-.27832.06659-.11316.13221-.22644.19294-.34314.046-.08887.08746-.17932.12988-.26978.059-.12548.11743-.251.16956-.38024.03564-.08851.066-.17872.09826-.26856.048-.13367.09625-.26672.13678-.40369.02844-.09619.05023-.194.07483-.29126.03345-.13232.06879-.26367.095-.39868.02405-.123.03894-.2478.05683-.37207.016-.11255.03668-.22314.04766-.33716.02369-.24169.03687-.48535.03687-.73022v-285A13.51539,13.51539,0,0,0,397,95H355.5V80H403a22.52523,22.52523,0,0,1,22.5,22.5ZM358,306H234a7.5,7.5,0,0,0,0,15H358a7.5,7.5,0,0,0,0-15Zm0,35H234a7.5,7.5,0,0,0,0,15H358a7.5,7.5,0,0,0,0-15Z"/></svg>