<svg width="100" height="100" viewBox="0 0 100 100" fill="none" xmlns="http://www.w3.org/2000/svg">
<g clip-path="url(#clip0)">
<g filter="url(#filter0_d)">
<path d="M89.2 49.4L51.4 11.6C50.7 10.8 49.3 10.8 48.6 11.6L10.6 49.6C9.30001 50.8 10.2 53 12 53H22V87C22 88.1 22.9 89 24 89H42C43.1 89 44 88.1 44 87V71H56V87C56 88.1 56.9 89 58 89H76C77.1 89 78 88.1 78 87V53H88C90.2 53 90.5 50.7 89.2 49.4ZM74 85H60V69C60 67.9 59.1 67 58 67H42C40.9 67 40 67.9 40 69V85H26V53H74V85ZM16.8 49L50 15.8L83.2 49H16.8Z" fill="white"/>
</g>
<path d="M385 -370V1314H-1399V-370H385ZM393 -378H-1407V1322H393V-378Z" fill="white"/>
</g>
<defs>
<filter id="filter0_d" x="-6.01501" y="-1" width="111.988" height="110" filterUnits="userSpaceOnUse" color-interpolation-filters="sRGB">
<feFlood flood-opacity="0" result="BackgroundImageFix"/>
<feColorMatrix in="SourceAlpha" type="matrix" values="0 0 0 0 0 0 0 0 0 0 0 0 0 0 0 0 0 0 127 0"/>
<feOffset dy="4"/>
<feGaussianBlur stdDeviation="8"/>
<feColorMatrix type="matrix" values="0 0 0 0 0 0 0 0 0 0 0 0 0 0 0 0 0 0 0.25 0"/>
<feBlend mode="normal" in2="BackgroundImageFix" result="effect1_dropShadow"/>
<feBlend mode="normal" in="SourceGraphic" in2="effect1_dropShadow" result="shape"/>
</filter>
<clipPath id="clip0">
<rect width="100" height="100" fill="white"/>
</clipPath>
</defs>
</svg>
