<svg width="125" height="100" viewBox="0 0 125 100" fill="none" xmlns="http://www.w3.org/2000/svg">
<path d="M82.1746 15.6863V23.3085H75.0213V27.1197H82.1746V34.7419H85.7512V27.1197H92.9045V23.3085H85.7512V15.6863H82.1746ZM15.7833 19.3783C14.8853 19.4966 14.1553 20.4411 14.2185 21.403V55.2267C14.1999 55.3847 14.1999 55.5452 14.2185 55.7031V70.9476C14.1999 71.1056 14.1999 71.2661 14.2185 71.424V82.381C14.2052 83.3878 15.062 84.3137 16.0069 84.3137C16.9518 84.3137 17.8085 83.3878 17.7952 82.381V72.8532H107.211V82.381C107.198 83.3878 108.054 84.3137 108.999 84.3137C109.944 84.3137 110.801 83.3878 110.788 82.381V71.3049C110.798 71.1862 110.798 71.0664 110.788 70.9476V55.7031C110.798 55.5844 110.798 55.4646 110.788 55.3458V44.2697C110.862 43.1487 109.822 42.1019 108.776 42.2451C107.878 42.3633 107.148 43.3079 107.211 44.2697V53.7976H17.7952V21.403C17.8696 20.2819 16.8294 19.2352 15.7833 19.3783ZM30.3134 38.5531C27.3722 38.5531 24.9485 41.1355 24.9485 44.2697C24.9485 47.404 27.3722 49.9864 30.3134 49.9864H44.6199C47.5612 49.9864 49.9849 47.404 49.9849 44.2697C49.9849 41.1355 47.5612 38.5531 44.6199 38.5531H30.3134Z" fill="white"/>
</svg>
