<svg id="SvgjsSvg1001" width="288" height="288" xmlns="http://www.w3.org/2000/svg" version="1.1" xmlns:xlink="http://www.w3.org/1999/xlink" xmlns:svgjs="http://svgjs.com/svgjs"><defs id="SvgjsDefs1002"></defs><g id="SvgjsG1008" transform="matrix(0.9167,0,0,0.9167,11.949334777355205,11.99514631038474)"><!--?xml version="1.0" encoding="UTF-8"?--><svg xmlns="http://www.w3.org/2000/svg" xmlns:xlink="http://www.w3.org/1999/xlink" width="288" height="288" viewBox="0 0 72 80" version="1.1"><title>H</title><g id="Page-1" stroke="none" stroke-width="1" fill="none" fill-rule="evenodd"><path d="M69.8 51.8l-6.4-7-.4-.4V27.6A27.543 27.543 0 0 0 22.2 3.4a2.06 2.06 0 1 0 2 3.6 21.862 21.862 0 0 1 11.2-3c12.917.017 23.383 10.483 23.4 23.4V44H12V27.4a22.344 22.344 0 0 1 2-9.6 1.97 1.97 0 0 0-3.6-1.6A27.524 27.524 0 0 0 8 27.4v17.8l-6 6.6a7.551 7.551 0 0 0-2 5.4V63a7.81 7.81 0 0 0 7.8 7.8h15a11.34 11.34 0 0 0 11 9.2c5.41 0 10.043-3.876 11-9.2h19a7.81 7.81 0 0 0 7.8-7.8v-5.8c.37-1.99-.31-4.03-1.8-5.4zM34 76a7.321 7.321 0 0 1-7-5.2h14a7.511 7.511 0 0 1-7 5.2zm34-13a3.8 3.8 0 0 1-3.8 3.8H7.8A3.8 3.8 0 0 1 4 63v-5.8a4.212 4.212 0 0 1 1-2.6l5.8-6.4H61l5.8 6.4a4.212 4.212 0 0 1 1 2.6V63h.2z" id="H" fill="#3f4662" class="color3F4662 svgShape"></path></g><metadata><rdf:rdf xmlns:rdf="http://www.w3.org/1999/02/22-rdf-syntax-ns#" xmlns:rdfs="http://www.w3.org/2000/01/rdf-schema#" xmlns:dc="http://purl.org/dc/elements/1.1/"><rdf:description about="https://iconscout.com/legal#licenses" dc:title="h" dc:description="h" dc:publisher="Iconscout" dc:date="2017-09-26" dc:format="image/svg+xml" dc:language="en"><dc:creator><rdf:bag><rdf:li>The Eyecons</rdf:li></rdf:bag></dc:creator></rdf:description></rdf:rdf></metadata></svg></g></svg>