<svg width="100" height="100" viewBox="0 0 100 100" fill="none" xmlns="http://www.w3.org/2000/svg">
<g clip-path="url(#clip0)">
<g filter="url(#filter0_d)">
<path d="M36.9923 60.0526C33.8618 61.9497 31.2511 64.7102 29.4257 68.0542C27.6004 71.3979 26.6254 75.2053 26.6 79.0895V88.1911C26.6 88.3617 26.6628 88.5257 26.7744 88.6467C26.886 88.7677 27.0374 88.8353 27.1953 88.8353C27.3531 88.8353 27.5045 88.7677 27.6162 88.6467C27.7278 88.5257 27.7905 88.3617 27.7905 88.1911V79.0895C27.8142 75.4358 28.7311 71.8543 30.4481 68.7092C32.165 65.5641 34.6208 62.9672 37.5654 61.1833C37.6344 61.1427 37.6954 61.0877 37.7447 61.0217C37.7941 60.9556 37.8309 60.8798 37.8531 60.7982C37.8753 60.7166 37.8821 60.6312 37.8738 60.5468C37.8653 60.4623 37.8415 60.3803 37.8038 60.306C37.766 60.2314 37.715 60.1658 37.6537 60.1125C37.5925 60.0596 37.5221 60.0202 37.4467 59.9968C37.3713 59.973 37.2923 59.966 37.2143 59.9755C37.1363 59.9853 37.0609 60.0116 36.9923 60.0526ZM66.8246 67.7483C66.9875 67.7741 67.1436 67.8369 67.2822 67.9333C67.4208 68.0296 67.5386 68.1568 67.6284 68.3065C67.7242 68.4422 67.8659 68.5316 68.0223 68.5546C68.1 68.5661 68.1787 68.5607 68.2545 68.539C68.3299 68.5173 68.4011 68.4799 68.4632 68.4283C68.5253 68.377 68.5776 68.313 68.617 68.24C68.6564 68.1666 68.6821 68.0858 68.6924 68.0017C68.703 67.9181 68.698 67.8328 68.678 67.7508C68.6579 67.6687 68.6234 67.592 68.5761 67.5248C68.3867 67.2332 68.1428 66.9884 67.8602 66.8059C67.5776 66.6234 67.2629 66.5069 66.936 66.4647C66.1205 66.44 65.3262 66.7513 64.7145 67.3357L61.4767 70.6691C61.3631 70.7872 61.2972 70.9492 61.2934 71.1194C61.29 71.29 61.3487 71.4553 61.4574 71.5787C61.5661 71.7022 61.7153 71.7743 61.8729 71.7789C62.0301 71.7834 62.1831 71.7202 62.2975 71.6029L65.5171 68.2876C65.8792 67.9439 66.3432 67.7528 66.8246 67.7483ZM55.7311 59.9734C55.7311 59.8889 55.716 59.8049 55.686 59.7265C55.6561 59.6486 55.6122 59.5773 55.5569 59.5174C55.5016 59.4579 55.436 59.4103 55.3637 59.3779C55.2917 59.3455 55.2141 59.3287 55.1361 59.3287H42.0407C41.8828 59.3287 41.7316 59.3968 41.6199 59.5178C41.5081 59.6384 41.4456 59.8024 41.4456 59.9734C41.4456 60.1444 41.5081 60.3081 41.6199 60.4291C41.7316 60.55 41.8828 60.6177 42.0407 60.6177H55.1361C55.2141 60.6181 55.2917 60.6013 55.3637 60.5689C55.436 60.5365 55.5016 60.4889 55.5569 60.4291C55.6122 60.3692 55.6561 60.2982 55.686 60.2199C55.716 60.142 55.7311 60.0579 55.7311 59.9734ZM42.0407 61.9067C41.8828 61.9067 41.7316 61.9748 41.6199 62.0958C41.5081 62.2163 41.4456 62.3804 41.4456 62.5514C41.4456 62.7224 41.5081 62.886 41.6199 63.007C41.7316 63.128 41.8828 63.1957 42.0407 63.1957H49.1836C49.3416 63.1957 49.4931 63.128 49.6044 63.007C49.7162 62.886 49.7791 62.7224 49.7791 62.5514C49.7791 62.3804 49.7162 62.2163 49.6044 62.0958C49.4931 61.9748 49.3416 61.9067 49.1836 61.9067H42.0407ZM50.3741 51.5953C59.5783 51.5953 67.0409 42.9383 67.0409 32.261C67.0409 21.5829 59.5783 12.9262 50.3741 12.9262C41.1699 12.9262 33.7075 21.5829 33.7075 32.261C33.7075 42.9383 41.1699 51.5953 50.3741 51.5953ZM50.3741 14.2152C58.9075 14.2152 65.8504 22.3105 65.8504 32.261C65.8504 42.2111 58.9075 50.3063 50.3741 50.3063C41.8407 50.3063 34.8979 42.2111 34.8979 32.261C34.8979 22.3105 41.8407 14.2152 50.3741 14.2152Z" fill="white" stroke="white" stroke-width="3"/>
<path d="M76.8038 86.5859V85.2969H65.6758L64.452 86.5859H76.8038Z" fill="white"/>
<path d="M94.4217 9.38149C94.4217 9.12656 94.352 8.87734 94.2209 8.66539C94.0903 8.45341 93.9043 8.28821 93.6869 8.19065C93.4691 8.09308 93.2297 8.06757 92.999 8.11728C92.768 8.16703 92.5558 8.28977 92.3896 8.47006C92.2229 8.6503 92.1097 8.88 92.0634 9.13001C92.0176 9.38005 92.0411 9.63924 92.1312 9.87477C92.2214 10.1103 92.374 10.3116 92.5699 10.4532C92.7657 10.5948 92.9956 10.6705 93.2312 10.6705C93.5467 10.6701 93.8494 10.5341 94.0725 10.2925C94.2959 10.0509 94.4213 9.72323 94.4217 9.38149ZM92.6358 9.38149C92.6358 9.25402 92.671 9.12943 92.7361 9.02342C92.8017 8.91745 92.8945 8.83485 93.0036 8.78605C93.1123 8.73728 93.232 8.72453 93.3475 8.74938C93.4626 8.77428 93.5687 8.83563 93.652 8.92577C93.7353 9.01591 93.7922 9.13074 93.8149 9.25575C93.838 9.38079 93.8263 9.51034 93.7812 9.62813C93.7361 9.74587 93.6596 9.84655 93.5619 9.91738C93.4641 9.98816 93.349 10.026 93.2312 10.026C93.0733 10.0258 92.9221 9.95785 92.8104 9.83704C92.699 9.71618 92.6361 9.55238 92.6358 9.38149ZM6.92172 52.5619C6.56856 52.5619 6.2233 52.6751 5.92964 52.8875C5.63598 53.0999 5.40712 53.4022 5.27194 53.7553C5.13679 54.1088 5.10145 54.4976 5.17035 54.8724C5.23925 55.2477 5.40932 55.5922 5.65904 55.8624C5.90877 56.1327 6.22698 56.3168 6.57337 56.3915C6.91975 56.4661 7.27879 56.428 7.60511 56.2816C7.93138 56.1352 8.21027 55.8874 8.40652 55.5696C8.60272 55.2514 8.70745 54.8778 8.70745 54.4951C8.70692 53.9825 8.5186 53.4912 8.18384 53.1286C7.84908 52.7661 7.39515 52.5623 6.92172 52.5619ZM6.92172 55.4622C6.74514 55.4622 6.57253 55.4052 6.42568 55.2989C6.27887 55.1927 6.1644 55.0418 6.09683 54.865C6.02926 54.6887 6.01157 54.4943 6.04604 54.3065C6.08047 54.119 6.16554 53.9468 6.29038 53.8115C6.41527 53.6765 6.57435 53.5843 6.74756 53.5469C6.92074 53.5096 7.10028 53.5289 7.26342 53.6023C7.42655 53.6753 7.56602 53.7992 7.66412 53.9583C7.76222 54.117 7.81461 54.304 7.81461 54.4951C7.81434 54.7514 7.72022 54.9975 7.55284 55.1784C7.38542 55.3596 7.15846 55.4618 6.92172 55.4622ZM25.9693 37.0942C26.3225 37.0942 26.6678 36.9808 26.9614 36.7684C27.2551 36.5559 27.4839 36.254 27.6191 35.9007C27.7543 35.5474 27.7897 35.1586 27.7207 34.7836C27.6518 34.4085 27.4818 34.064 27.232 33.7936C26.9823 33.5232 26.6641 33.3391 26.3177 33.2645C25.9713 33.1899 25.6123 33.2282 25.286 33.3745C24.9597 33.5209 24.6808 33.7686 24.4846 34.0866C24.2884 34.4046 24.1836 34.7784 24.1836 35.1608C24.1841 35.6734 24.3725 36.1648 24.7072 36.5273C25.042 36.8897 25.4959 37.0937 25.9693 37.0942ZM25.9693 34.1941C26.1459 34.1941 26.3185 34.2508 26.4654 34.357C26.6122 34.4632 26.7267 34.6142 26.7942 34.7908C26.8618 34.9675 26.8795 35.1619 26.845 35.3494C26.8106 35.5369 26.7256 35.7092 26.6007 35.8443C26.4758 35.9796 26.3167 36.0716 26.1435 36.1089C25.9703 36.1462 25.7908 36.1271 25.6277 36.0539C25.4645 35.9807 25.3251 35.8568 25.227 35.6978C25.1288 35.5389 25.0765 35.352 25.0765 35.1608C25.0767 34.9044 25.1709 34.6587 25.3382 34.4775C25.5057 34.2963 25.7326 34.1943 25.9693 34.1941ZM94.4217 33.3884C94.6864 33.3884 94.9455 33.3034 95.1656 33.1441C95.386 32.9847 95.5576 32.7583 95.6591 32.4933C95.7603 32.2283 95.7868 31.9368 95.7353 31.6555C95.6834 31.3742 95.5561 31.1158 95.3686 30.913C95.1815 30.7102 94.9429 30.5721 94.683 30.5161C94.4232 30.4602 94.1539 30.4889 93.9092 30.5987C93.6645 30.7084 93.4554 30.8943 93.3081 31.1327C93.1608 31.3712 93.0823 31.6516 93.0823 31.9384C93.0827 32.3228 93.224 32.6914 93.4751 32.9632C93.7263 33.2351 94.0664 33.388 94.4217 33.3884ZM94.4217 31.2133C94.5543 31.2133 94.6834 31.2559 94.7936 31.3355C94.9039 31.4152 94.9895 31.5284 95.0402 31.6609C95.091 31.7934 95.1042 31.9392 95.0785 32.0798C95.0527 32.2205 94.9887 32.3497 94.8952 32.451C94.8016 32.5525 94.6823 32.6215 94.5524 32.6495C94.4224 32.6775 94.2876 32.6631 94.1653 32.6082C94.0429 32.5533 93.9384 32.4604 93.8649 32.3412C93.7914 32.222 93.752 32.0818 93.752 31.9384C93.752 31.7461 93.8228 31.5618 93.9482 31.4259C94.074 31.2899 94.244 31.2135 94.4217 31.2133ZM83.1123 57.0731C83.3475 57.0731 83.5778 56.9976 83.7736 56.8561C83.9694 56.7142 84.1221 56.5129 84.2118 56.2775C84.302 56.0421 84.3259 55.7829 84.2796 55.5327C84.2338 55.2825 84.1206 55.0529 83.9539 54.8728C83.7876 54.6924 83.5755 54.5698 83.3444 54.5201C83.1134 54.4701 82.874 54.4959 82.6566 54.5936C82.4392 54.6907 82.2532 54.856 82.1221 55.068C81.9915 55.2801 81.9218 55.5294 81.9218 55.7841C81.9222 56.1261 82.0475 56.4534 82.2706 56.6954C82.4941 56.9369 82.7964 57.0727 83.1123 57.0731ZM83.1123 55.1398C83.2301 55.1398 83.3448 55.1775 83.4429 55.2485C83.5407 55.319 83.6172 55.4199 83.6622 55.5376C83.7073 55.6553 83.7191 55.7849 83.696 55.91C83.6728 56.0351 83.6164 56.1499 83.5331 56.2397C83.4497 56.33 83.3437 56.3915 83.2282 56.4165C83.1126 56.4411 82.9929 56.4284 82.8842 56.3796C82.7755 56.3308 82.6827 56.2483 82.6172 56.1421C82.5517 56.0363 82.5168 55.9116 82.5168 55.7841C82.5172 55.6135 82.5797 55.4495 82.6914 55.3289C82.8032 55.2079 82.9543 55.1398 83.1123 55.1398ZM5.73128 10.6705C5.96672 10.6705 6.19686 10.5948 6.39265 10.4532C6.58844 10.3116 6.74101 10.1103 6.83112 9.87477C6.92123 9.63924 6.94479 9.38005 6.89885 9.13001C6.85294 8.88 6.73953 8.6503 6.57306 8.47006C6.40655 8.28977 6.19444 8.16703 5.9635 8.11728C5.73256 8.06757 5.49322 8.09308 5.27569 8.19065C5.05816 8.28821 4.87222 8.45341 4.74143 8.66539C4.6106 8.87734 4.54079 9.12656 4.54079 9.38149C4.54113 9.72323 4.66669 10.0509 4.88987 10.2925C5.11304 10.5341 5.41564 10.6701 5.73128 10.6705ZM5.73128 8.737C5.849 8.737 5.96407 8.77481 6.06195 8.84564C6.15986 8.91642 6.23614 9.0171 6.28118 9.13485C6.32625 9.25263 6.33803 9.38222 6.31504 9.50723C6.29209 9.63223 6.23539 9.74706 6.15217 9.8372C6.06891 9.92734 5.96286 9.98874 5.84737 10.0136C5.73192 10.0384 5.61223 10.0257 5.50348 9.97693C5.3947 9.92812 5.30175 9.84553 5.23633 9.73955C5.17092 9.63354 5.13603 9.50895 5.13603 9.38149C5.13618 9.21063 5.19895 9.04679 5.31053 8.92598C5.42212 8.80512 5.57344 8.73716 5.73128 8.737ZM90.8502 94.131H80.9718C81.2021 93.7238 81.3248 93.2559 81.3263 92.7785C81.3195 87.0767 81.315 77.3403 81.315 77.3403C81.315 63.3461 72.1468 52.5168 59.8525 49.7268C59.3556 50.0881 58.8423 50.4215 58.3139 50.7258C63.5603 51.5985 68.4507 54.1334 72.3687 58.0102C74.8338 60.47 76.7966 63.4601 78.1321 66.7886C79.4677 70.1174 80.1461 73.7117 80.1245 77.3411C80.1245 77.3411 80.129 87.078 80.1359 92.7797C80.1366 92.9569 80.1044 93.1324 80.0415 93.2961C79.9787 93.4597 79.8866 93.6086 79.7703 93.7332C79.6533 93.86 79.5139 93.9604 79.3605 94.0289C79.2075 94.097 79.0431 94.1319 78.8776 94.131H73.6365C75.0205 93.2833 76.1629 92.0411 76.9398 90.5393C77.7162 89.0375 78.0977 87.3335 78.042 85.6131C77.9863 83.8931 77.4962 82.2223 76.6242 80.7828C75.7523 79.3433 74.5323 78.1905 73.0971 77.4498C73.0001 77.5626 72.9088 77.6803 72.8054 77.789L72.2074 78.4193C73.8149 79.1366 75.1432 80.4358 75.9652 82.0951C76.7867 83.7544 77.0515 85.6713 76.714 87.518C76.3765 89.3652 75.4576 91.0286 74.1141 92.224C72.7706 93.4191 71.0858 94.0732 69.3469 94.0736H69.3147C67.7958 94.0679 66.3148 93.563 65.0667 92.6259C63.8187 91.6888 62.863 90.3634 62.3259 88.8254L61.4097 89.79C62.1683 91.6171 63.4418 93.1369 65.0482 94.131H55.3478C55.7875 93.8296 56.1974 93.4798 56.5712 93.0873L71.9752 76.8654C73.3888 75.398 74.2247 73.3963 74.3084 71.2781C74.3921 69.1598 73.7175 67.088 72.4244 65.4955C71.7778 64.7257 70.9896 64.1114 70.1101 63.6918C69.231 63.2723 68.2802 63.057 67.3193 63.0599H67.2454C65.3652 63.0902 63.5687 63.9055 62.2301 65.3352L46.8265 81.5579C45.4125 83.0248 44.5766 85.0266 44.4929 87.1448C44.4092 89.2634 45.0841 91.3349 46.3773 92.9274C46.7674 93.3863 47.2087 93.7902 47.6912 94.131H21.8741C21.5413 94.1323 21.2215 93.9908 20.9849 93.7373C20.7483 93.4835 20.6143 93.139 20.6122 92.7785V77.3403C20.5903 73.7117 21.2687 70.1175 22.6038 66.789C23.9389 63.4605 25.9013 60.4704 28.3654 58.0102C32.2854 54.1301 37.1795 51.5944 42.4297 50.7233C41.9017 50.4186 41.3884 50.0848 40.8915 49.7235C28.5944 52.5081 19.4217 63.3412 19.4217 77.3403V92.7785C19.4237 93.2559 19.5469 93.7238 19.7777 94.131H9.89794C9.74007 94.131 9.58867 94.1987 9.47704 94.3197C9.36538 94.4407 9.3027 94.6043 9.3027 94.7753C9.3027 94.9463 9.36538 95.1104 9.47704 95.231C9.58867 95.3519 9.74007 95.42 9.89794 95.42H90.8502C91.0082 95.42 91.1597 95.3519 91.271 95.231C91.3828 95.1104 91.4457 94.9463 91.4457 94.7753C91.4457 94.6043 91.3828 94.4407 91.271 94.3197C91.1597 94.1987 91.0082 94.131 90.8502 94.131ZM63.06 66.2587C64.194 65.0432 65.7228 64.3574 67.3185 64.3488H67.3193C68.1151 64.3447 68.9029 64.5223 69.6313 64.8697C70.3597 65.2175 71.012 65.7272 71.5464 66.3658C72.6301 67.7113 73.1933 69.4572 73.1187 71.2407C73.0441 73.0243 72.3373 74.7078 71.1453 75.9414L64.0868 83.3743L55.5678 74.1501L63.06 66.2587ZM47.2553 92.0571C46.1712 90.712 45.608 88.9657 45.6826 87.1825C45.7576 85.399 46.4644 83.7151 47.6564 82.4819L54.7145 75.049L63.2335 84.2728L55.7409 92.1633C54.6073 93.3789 53.0785 94.065 51.4831 94.0736C50.6873 94.0781 49.8991 93.9006 49.1707 93.5532C48.4423 93.2058 47.7897 92.6961 47.2553 92.0571ZM6.92172 94.131H3.94555C3.78767 94.131 3.63628 94.1987 3.52465 94.3197C3.41302 94.4407 3.35031 94.6043 3.35031 94.7753C3.35031 94.9463 3.41302 95.1104 3.52465 95.231C3.63628 95.3519 3.78767 95.42 3.94555 95.42H6.92172C7.0796 95.42 7.23099 95.3519 7.34262 95.231C7.45424 95.1104 7.51697 94.9463 7.51697 94.7753C7.51697 94.6043 7.45424 94.4407 7.34262 94.3197C7.23099 94.1987 7.0796 94.131 6.92172 94.131Z" fill="white" stroke="#FFFDFD" stroke-width="3"/>
<path d="M0.969368 95.42C1.29811 95.42 1.5646 95.1313 1.5646 94.7754C1.5646 94.4194 1.29811 94.1311 0.969368 94.1311C0.640627 94.1311 0.37413 94.4194 0.37413 94.7754C0.37413 95.1313 0.640627 95.42 0.969368 95.42Z" fill="white"/>
<path d="M96.8027 94.1311H93.8263C93.6687 94.1311 93.5172 94.1987 93.4054 94.3197C93.2941 94.4407 93.2312 94.6043 93.2312 94.7754C93.2312 94.9464 93.2941 95.1104 93.4054 95.231C93.5172 95.352 93.6687 95.42 93.8263 95.42H96.8027C96.9606 95.42 97.1118 95.352 97.2235 95.231C97.3352 95.1104 97.3977 94.9464 97.3977 94.7754C97.3977 94.6043 97.3352 94.4407 97.2235 94.3197C97.1118 94.1987 96.9606 94.1311 96.8027 94.1311Z" fill="white"/>
<path d="M99.7787 95.42C100.107 95.42 100.374 95.1313 100.374 94.7754C100.374 94.4194 100.107 94.1311 99.7787 94.1311C99.4499 94.1311 99.1836 94.4194 99.1836 94.7754C99.1836 95.1313 99.4499 95.42 99.7787 95.42Z" fill="white"/>
<path d="M15.6021 22.9227L16.4872 21.6627L15.9283 21.3199L15.3604 22.7313H15.3414L14.764 21.3296L14.1955 21.6828L15.0711 22.913V22.933L13.7021 22.7416V23.4274L15.0807 23.2359V23.2559L14.1955 24.4856L14.7265 24.8491L15.3324 23.4274H15.3503L15.9092 24.8388L16.4961 24.4759L15.6021 23.2656V23.2456L17.008 23.4274V22.7416L15.6021 22.9427V22.9227Z" fill="#0BCEB2"/>
<path d="M37.3015 3.07849L37.6229 3.89118L37.9609 3.68237L37.4461 2.98504V2.97344L38.2556 3.07849V2.68342L37.4461 2.79943V2.78783L37.9556 2.06214L37.6342 1.86493L37.3069 2.67762H37.2961L36.964 1.87008L36.636 2.07374L37.1408 2.78203V2.79363L36.3521 2.68342V3.07849L37.1461 2.96828V2.97988L36.636 3.68817L36.9419 3.89698L37.2908 3.07849H37.3015Z" fill="#0BCEB2"/>
<path d="M78.3503 29.82V29.1478L76.9712 29.3456V29.3257L77.8394 28.0896L77.2913 27.7531L76.7341 29.1375H76.7152L76.1489 27.7628L75.5913 28.1095L76.4504 29.316V29.336L75.1073 29.1478V29.82L76.4591 29.6324V29.6524L75.5913 30.8589L76.1122 31.2153L76.7061 29.82H76.7242L77.2723 31.205L77.8481 30.8492L76.9712 29.6621V29.6421L78.3503 29.82Z" fill="#0BCEB2"/>
<path d="M75.4247 8.89691L75.8978 10.0911L76.3943 9.78435L75.6379 8.76026V8.74287L76.8277 8.89691V8.31685L75.6379 8.487V8.47023L76.3864 7.40362L75.9141 7.11359L75.433 8.30783H75.4175L74.9289 7.12199L74.4478 7.421L75.1891 8.46186V8.47864L74.03 8.31685V8.89691L75.1967 8.73446V8.7519L74.4478 9.79271L74.8967 10.1001L75.4099 8.89691H75.4247Z" fill="#0BCEB2"/>
<path d="M27.1598 91.5532C27.4886 91.5532 27.755 91.2645 27.755 90.9085C27.755 90.5525 27.4886 90.2642 27.1598 90.2642C26.8311 90.2642 26.5646 90.5525 26.5646 90.9085C26.5646 91.2645 26.8311 91.5532 27.1598 91.5532Z" fill="#0BCEB2"/>
<path d="M60.0222 73.8277C60.3654 73.8277 60.6438 73.5267 60.6438 73.1552C60.6438 72.7832 60.3654 72.4822 60.0222 72.4822C59.6791 72.4822 59.401 72.7832 59.401 73.1552C59.401 73.5267 59.6791 73.8277 60.0222 73.8277Z" fill="#0BCEB2"/>
<path d="M51.5646 63.1957C51.8934 63.1957 52.1596 62.9074 52.1596 62.5514C52.1596 62.1954 51.8934 61.9067 51.5646 61.9067C51.2358 61.9067 50.9692 62.1954 50.9692 62.5514C50.9692 62.9074 51.2358 63.1957 51.5646 63.1957Z" fill="#0BCEB2"/>
<path d="M62.874 97.998H37.8741C37.7162 97.998 37.5648 98.0656 37.4532 98.1866C37.3416 98.3076 37.2789 98.4712 37.2789 98.6422C37.2789 98.8133 37.3416 98.9773 37.4532 99.0979C37.5648 99.2188 37.7162 99.2869 37.8741 99.2869H48.5886V100.576H42.6361C42.4782 100.576 42.3267 100.644 42.2149 100.765C42.1036 100.886 42.0407 101.049 42.0407 101.22C42.0407 101.391 42.1036 101.555 42.2149 101.676C42.3267 101.797 42.4782 101.865 42.6361 101.865H58.7075C58.8654 101.865 59.0166 101.797 59.1283 101.676C59.2401 101.555 59.3026 101.391 59.3026 101.22C59.3026 101.049 59.2401 100.886 59.1283 100.765C59.0166 100.644 58.8654 100.576 58.7075 100.576H52.1596V99.2869H62.874C63.032 99.2869 63.1835 99.2188 63.2948 99.0979C63.4066 98.9773 63.4694 98.8133 63.4694 98.6422C63.4694 98.4712 63.4066 98.3076 63.2948 98.1866C63.1835 98.0656 63.032 97.998 62.874 97.998ZM71.2074 97.998H65.255C65.097 97.998 64.9459 98.0656 64.8342 98.1866C64.7224 98.3076 64.6599 98.4712 64.6599 98.6422C64.6599 98.8133 64.7224 98.9773 64.8342 99.0979C64.9459 99.2188 65.097 99.2869 65.255 99.2869H71.2074C71.3654 99.2869 71.5165 99.2188 71.6282 99.0979C71.74 98.9773 71.8025 98.8133 71.8025 98.6422C71.8025 98.4712 71.74 98.3076 71.6282 98.1866C71.5165 98.0656 71.3654 97.998 71.2074 97.998ZM35.4931 97.998H29.5408C29.3829 97.998 29.2315 98.0656 29.1199 98.1866C29.0083 98.3076 28.9455 98.4712 28.9455 98.6422C28.9455 98.8133 29.0083 98.9773 29.1199 99.0979C29.2315 99.2188 29.3829 99.2869 29.5408 99.2869H35.4931C35.651 99.2869 35.8024 99.2188 35.9141 99.0979C36.0257 98.9773 36.0884 98.8133 36.0884 98.6422C36.0884 98.4712 36.0257 98.3076 35.9141 98.1866C35.8024 98.0656 35.651 97.998 35.4931 97.998Z" fill="#0BCEB2" stroke="#0BCEB2"/>
</g>
</g>
<defs>
<filter id="filter0_d" x="-15.6259" y="-10.1351" width="132" height="132.5" filterUnits="userSpaceOnUse" color-interpolation-filters="sRGB">
<feFlood flood-opacity="0" result="BackgroundImageFix"/>
<feColorMatrix in="SourceAlpha" type="matrix" values="0 0 0 0 0 0 0 0 0 0 0 0 0 0 0 0 0 0 127 0"/>
<feOffset dy="4"/>
<feGaussianBlur stdDeviation="8"/>
<feColorMatrix type="matrix" values="0 0 0 0 0 0 0 0 0 0 0 0 0 0 0 0 0 0 0.25 0"/>
<feBlend mode="normal" in2="BackgroundImageFix" result="effect1_dropShadow"/>
<feBlend mode="normal" in="SourceGraphic" in2="effect1_dropShadow" result="shape"/>
</filter>
<clipPath id="clip0">
<rect width="100" height="100" fill="white"/>
</clipPath>
</defs>
</svg>
