<?xml version="1.0" encoding="UTF-8"?>
<!DOCTYPE svg PUBLIC "-//W3C//DTD SVG 1.1//EN" "http://www.w3.org/Graphics/SVG/1.1/DTD/svg11.dtd">
<!-- Creator: CorelDRAW X6 -->
<svg xmlns="http://www.w3.org/2000/svg" xml:space="preserve" width="26.3889in" height="21.7222in" version="1.1" style="shape-rendering:geometricPrecision; text-rendering:geometricPrecision; image-rendering:optimizeQuality; fill-rule:evenodd; clip-rule:evenodd"
viewBox="0 0 26389 21722"
 xmlns:xlink="http://www.w3.org/1999/xlink">
 <defs>
  <style type="text/css">
   <![CDATA[
    .fil53 {fill:#1D1D1B;fill-rule:nonzero}
    .fil27 {fill:#3C3C3B;fill-rule:nonzero}
    .fil185 {fill:#B2B2B2;fill-rule:nonzero}
    .fil34 {fill:#FFCC88;fill-rule:nonzero}
    .fil59 {fill:url(#id44)}
    .fil1 {fill:url(#id45)}
    .fil3 {fill:url(#id46)}
    .fil2 {fill:url(#id47)}
    .fil162 {fill:url(#id48)}
    .fil32 {fill:url(#id49)}
    .fil168 {fill:url(#id50)}
    .fil30 {fill:url(#id51)}
    .fil156 {fill:url(#id52)}
    .fil18 {fill:url(#id53)}
    .fil205 {fill:url(#id54)}
    .fil213 {fill:url(#id55)}
    .fil195 {fill:url(#id56)}
    .fil201 {fill:url(#id57)}
    .fil202 {fill:url(#id58)}
    .fil204 {fill:url(#id59)}
    .fil196 {fill:url(#id60)}
    .fil163 {fill:url(#id61)}
    .fil160 {fill:url(#id62)}
    .fil154 {fill:url(#id63)}
    .fil152 {fill:url(#id64)}
    .fil48 {fill:url(#id65)}
    .fil192 {fill:url(#id66)}
    .fil191 {fill:url(#id67)}
    .fil193 {fill:url(#id68)}
    .fil28 {fill:url(#id69)}
    .fil22 {fill:url(#id70)}
    .fil51 {fill:url(#id71)}
    .fil167 {fill:url(#id72)}
    .fil25 {fill:url(#id73)}
    .fil26 {fill:url(#id74)}
    .fil181 {fill:url(#id75)}
    .fil171 {fill:url(#id76)}
    .fil206 {fill:url(#id77)}
    .fil203 {fill:url(#id78)}
    .fil52 {fill:url(#id79)}
    .fil184 {fill:url(#id80)}
    .fil183 {fill:url(#id81)}
    .fil186 {fill:url(#id82)}
    .fil194 {fill:url(#id83)}
    .fil67 {fill:url(#id84)}
    .fil33 {fill:url(#id85)}
    .fil189 {fill:url(#id86)}
    .fil177 {fill:url(#id87)}
    .fil179 {fill:url(#id88)}
    .fil50 {fill:url(#id89)}
    .fil29 {fill:url(#id90)}
    .fil17 {fill:url(#id91)}
    .fil71 {fill:url(#id92)}
    .fil158 {fill:url(#id93)}
    .fil56 {fill:url(#id94)}
    .fil66 {fill:url(#id95)}
    .fil49 {fill:url(#id96)}
    .fil43 {fill:url(#id97)}
    .fil39 {fill:url(#id98)}
    .fil164 {fill:url(#id99)}
    .fil170 {fill:url(#id100)}
    .fil161 {fill:url(#id101)}
    .fil175 {fill:url(#id102)}
    .fil21 {fill:url(#id103)}
    .fil72 {fill:url(#id104)}
    .fil65 {fill:url(#id105)}
    .fil70 {fill:url(#id106)}
    .fil208 {fill:url(#id107)}
    .fil176 {fill:url(#id108)}
    .fil174 {fill:url(#id109)}
    .fil214 {fill:url(#id110)}
    .fil188 {fill:url(#id111)}
    .fil35 {fill:url(#id112)}
    .fil73 {fill:url(#id113)}
    .fil60 {fill:url(#id114)}
    .fil37 {fill:url(#id115)}
    .fil198 {fill:url(#id116)}
    .fil190 {fill:url(#id117)}
    .fil165 {fill:url(#id118)}
    .fil210 {fill:url(#id119)}
    .fil209 {fill:url(#id120)}
    .fil207 {fill:url(#id121)}
    .fil157 {fill:url(#id122)}
    .fil166 {fill:url(#id123)}
    .fil38 {fill:url(#id124)}
    .fil54 {fill:url(#id125)}
    .fil57 {fill:url(#id126)}
    .fil44 {fill:url(#id127)}
    .fil41 {fill:url(#id128)}
    .fil23 {fill:url(#id129)}
    .fil187 {fill:url(#id130)}
    .fil215 {fill:url(#id131)}
    .fil19 {fill:url(#id132)}
    .fil216 {fill:url(#id133)}
    .fil173 {fill:url(#id134)}
    .fil61 {fill:url(#id135)}
    .fil63 {fill:url(#id136)}
    .fil151 {fill:url(#id137)}
    .fil24 {fill:url(#id138)}
    .fil36 {fill:url(#id139)}
    .fil199 {fill:url(#id140)}
    .fil200 {fill:url(#id141)}
    .fil31 {fill:url(#id142)}
    .fil68 {fill:url(#id143)}
    .fil42 {fill:url(#id144)}
    .fil55 {fill:url(#id145)}
    .fil169 {fill:url(#id146)}
    .fil0 {fill:url(#id147)}
    .fil197 {fill:url(#id148)}
    .fil212 {fill:url(#id149)}
    .fil211 {fill:url(#id150)}
    .fil20 {fill:url(#id151)}
    .fil159 {fill:url(#id152)}
    .fil62 {fill:url(#id153)}
    .fil64 {fill:url(#id154)}
    .fil45 {fill:url(#id155)}
    .fil40 {fill:url(#id156)}
    .fil153 {fill:url(#id157)}
    .fil6 {fill:url(#id158)}
    .fil10 {fill:url(#id159)}
    .fil14 {fill:url(#id160)}
    .fil5 {fill:url(#id161)}
    .fil4 {fill:url(#id162)}
    .fil7 {fill:url(#id163)}
    .fil8 {fill:url(#id164)}
    .fil9 {fill:url(#id165)}
    .fil11 {fill:url(#id166)}
    .fil12 {fill:url(#id167)}
    .fil13 {fill:url(#id168)}
    .fil16 {fill:url(#id169)}
    .fil15 {fill:url(#id170)}
    .fil85 {fill:url(#id171)}
    .fil126 {fill:url(#id172)}
    .fil124 {fill:url(#id173)}
    .fil110 {fill:url(#id174)}
    .fil81 {fill:url(#id175)}
    .fil100 {fill:url(#id176)}
    .fil117 {fill:url(#id177)}
    .fil107 {fill:url(#id178)}
    .fil129 {fill:url(#id179)}
    .fil116 {fill:url(#id180)}
    .fil105 {fill:url(#id181)}
    .fil93 {fill:url(#id182)}
    .fil94 {fill:url(#id183)}
    .fil120 {fill:url(#id184)}
    .fil123 {fill:url(#id185)}
    .fil130 {fill:url(#id186)}
    .fil112 {fill:url(#id187)}
    .fil95 {fill:url(#id188)}
    .fil133 {fill:url(#id189)}
    .fil104 {fill:url(#id190)}
    .fil118 {fill:url(#id191)}
    .fil86 {fill:url(#id192)}
    .fil103 {fill:url(#id193)}
    .fil122 {fill:url(#id194)}
    .fil113 {fill:url(#id195)}
    .fil84 {fill:url(#id196)}
    .fil88 {fill:url(#id197)}
    .fil115 {fill:url(#id198)}
    .fil106 {fill:url(#id199)}
    .fil87 {fill:url(#id200)}
    .fil125 {fill:url(#id201)}
    .fil111 {fill:url(#id202)}
    .fil82 {fill:url(#id203)}
    .fil127 {fill:url(#id204)}
    .fil83 {fill:url(#id205)}
    .fil128 {fill:url(#id206)}
    .fil102 {fill:url(#id207)}
    .fil114 {fill:url(#id208)}
    .fil90 {fill:url(#id209)}
    .fil92 {fill:url(#id210)}
    .fil131 {fill:url(#id211)}
    .fil121 {fill:url(#id212)}
    .fil132 {fill:url(#id213)}
    .fil109 {fill:url(#id214)}
    .fil119 {fill:url(#id215)}
    .fil97 {fill:url(#id216)}
    .fil99 {fill:url(#id217)}
    .fil108 {fill:url(#id218)}
    .fil96 {fill:url(#id219)}
    .fil98 {fill:url(#id220)}
    .fil91 {fill:url(#id221)}
    .fil89 {fill:url(#id222)}
    .fil101 {fill:url(#id223)}
    .fil178 {fill:url(#id224)}
    .fil79 {fill:url(#id225)}
    .fil140 {fill:url(#id226)}
    .fil135 {fill:url(#id227)}
    .fil138 {fill:url(#id228)}
    .fil76 {fill:url(#id229)}
    .fil148 {fill:url(#id230)}
    .fil147 {fill:url(#id231)}
    .fil144 {fill:url(#id232)}
    .fil143 {fill:url(#id233)}
    .fil141 {fill:url(#id234)}
    .fil137 {fill:url(#id235)}
    .fil134 {fill:url(#id236)}
    .fil149 {fill:url(#id237)}
    .fil150 {fill:url(#id238)}
    .fil139 {fill:url(#id239)}
    .fil77 {fill:url(#id240)}
    .fil75 {fill:url(#id241)}
    .fil146 {fill:url(#id242)}
    .fil145 {fill:url(#id243)}
    .fil142 {fill:url(#id244)}
    .fil136 {fill:url(#id245)}
    .fil78 {fill:url(#id246)}
    .fil80 {fill:url(#id247)}
    .fil74 {fill:url(#id248)}
    .fil172 {fill:url(#id249)}
    .fil155 {fill:url(#id250)}
    .fil58 {fill:url(#id251)}
    .fil180 {fill:url(#id252)}
    .fil182 {fill:url(#id253)}
    .fil47 {fill:url(#id254)}
    .fil46 {fill:url(#id255)}
    .fil69 {fill:url(#id256)}
   ]]>
  </style>
   <clipPath id="id0" style="clip-rule:nonzero">
    <path d="M8989 12986c-160,0 -303,-35 -431,-94 -95,-86 -204,-165 -330,-233 -504,-497 -654,-1385 -654,-1385l4961 -1922 484 300c465,287 536,751 58,1012l-3946 2314c-48,5 -95,8 -141,8l0 0z"/>
   </clipPath>
   <clipPath id="id1" style="clip-rule:nonzero">
    <path d="M9995 3141c-14,0 -28,-1 -41,-3 -39,-5 -74,-18 -106,-37l0 0c-8,-8 -15,-17 -22,-26 24,11 50,19 78,22 13,2 27,3 41,3 70,0 148,-23 231,-70 288,-166 523,-574 523,-907 0,-113 -27,-203 -74,-267 10,4 19,9 28,16 61,64 96,164 96,292 0,332 -235,740 -523,906 -83,48 -162,71 -231,71l0 0z"/>
   </clipPath>
   <clipPath id="id2" style="clip-rule:nonzero">
    <path d="M9945 3100c-14,0 -28,-1 -41,-3 -27,-4 -54,-11 -78,-23l0 0c-47,-64 -74,-154 -74,-268 0,-3 0,-5 0,-8l0 -2c4,-332 238,-734 523,-897 66,-38 129,-60 188,-67 14,-2 28,-3 42,-3 17,0 33,1 49,4 25,4 49,11 71,22l0 0c47,64 74,154 74,267 0,332 -236,741 -523,907 -83,47 -162,70 -231,70zm114 -581c-10,0 -20,7 -21,18 -2,12 6,23 17,25l217 42c1,0 3,0 4,0 8,0 15,-4 19,-12l218 -412c6,-11 2,-23 -9,-29 -3,-2 -7,-3 -10,-3 -8,0 -15,4 -19,12l-211 398 -201 -38c-1,0 -3,0 -4,0l0 0z"/>
   </clipPath>
   <clipPath id="id3" style="clip-rule:nonzero">
    <path d="M10276 2604c-1,0 -3,0 -4,0l-217 -41c-12,-2 -20,-13 -17,-25 2,-10 11,-18 21,-18 1,0 3,0 4,0l201 38 211 -398c4,-7 11,-12 19,-12 3,0 7,1 10,3 11,6 15,19 9,29l-218 412c-4,7 -11,12 -19,12l0 0z"/>
   </clipPath>
   <clipPath id="id4" style="clip-rule:nonzero">
    <path d="M2400 6572c-653,-58 -1208,-499 -1374,-1017l434 -252 938 -545 2 1814 0 0z"/>
   </clipPath>
   <clipPath id="id5" style="clip-rule:nonzero">
    <path d="M800 11133l0 0 1604 -932 0 0 -1604 932zm-24 -5434l0 0 684 -398 -434 252 -250 146 0 0z"/>
   </clipPath>
   <clipPath id="id6" style="clip-rule:nonzero">
    <path d="M4182 5893l-7 -1573c293,-66 281,-466 470,-811l882 -513c47,-4 91,-7 133,-7 48,0 93,3 135,8l2 1964 -1615 932 0 0z"/>
   </clipPath>
   <clipPath id="id7" style="clip-rule:nonzero">
    <path d="M4197 9215l0 0 1604 -931 0 0 -1604 931zm-24 -5433l0 0 350 -202 -350 202 0 0z"/>
   </clipPath>
   <clipPath id="id8" style="clip-rule:nonzero">
    <path d="M6527 16951l0 -208c0,-36 -29,-65 -66,-65 -36,0 -65,29 -65,65l0 208 -610 -352 2049 -1183 -167 876 -1141 659 0 0z"/>
   </clipPath>
   <clipPath id="id9" style="clip-rule:nonzero">
    <path d="M5786 16598l-519 -300 0 -265c0,-36 -30,-65 -66,-65 -36,0 -66,29 -66,65l0 190 -277 -161 2630 -1518 53 236 42 184 302 183 -51 268 -2049 1183zm2115 -1532l-187 -210 -18 -149 -32 -264 51 -30 106 0 -9 -55 154 -89 47 206 -112 591 0 0z"/>
   </clipPath>
   <clipPath id="id10" style="clip-rule:nonzero">
    <path d="M8013 14475l-47 -207 97 -56 -50 263 0 0z"/>
   </clipPath>
   <clipPath id="id11" style="clip-rule:nonzero">
    <path d="M7901 15066l-187 -210 -18 -148 -155 73 -54 -236 176 -102 32 264 18 148 187 210 0 0z"/>
   </clipPath>
   <clipPath id="id12" style="clip-rule:nonzero">
    <path d="M6462 16989l-66 -38 0 -208c0,-36 29,-66 66,-66 36,0 66,29 66,66l0 208 -66 38 0 0z"/>
   </clipPath>
   <clipPath id="id13" style="clip-rule:nonzero">
    <path d="M5267 16299l-131 -76 0 -189c0,-36 29,-66 66,-66 36,0 66,29 66,66l0 265 0 0z"/>
   </clipPath>
   <clipPath id="id14" style="clip-rule:nonzero">
    <path d="M4754 16002l-11 -6 2718 -1569 3 11 -2710 1564zm3039 -1755l-2 -11 148 -86 3 11 -149 86 0 0z"/>
   </clipPath>
   <clipPath id="id15" style="clip-rule:nonzero">
    <path d="M12186 13684l-712 -411 2 -6 -1004 -579 -867 501 -6 16 -600 346c-1,-3 -3,-7 -4,-10l1477 -853 1720 992 -5 3 0 0z"/>
   </clipPath>
   <clipPath id="id16" style="clip-rule:nonzero">
    <path d="M8270 13960l0 0 725 -419c1,3 3,7 4,10l-232 134 1 -13 -498 288 0 0z"/>
   </clipPath>
   <clipPath id="id17" style="clip-rule:nonzero">
    <path d="M7942 14162l-3 -11 23 -13 22 0 -42 24 0 0z"/>
   </clipPath>
   <clipPath id="id18" style="clip-rule:nonzero">
    <path d="M7463 14438l-3 -11 24 -14 22 0 -43 25 0 0z"/>
   </clipPath>
   <clipPath id="id19" style="clip-rule:nonzero">
    <path d="M8559 15778l82 -826c1,0 3,0 4,0 172,0 312,-78 312,-175 0,-45 -30,-86 -79,-117 191,-291 254,-658 154,-1007l503 -290 -962 2406 -15 9 0 0z"/>
   </clipPath>
   <clipPath id="id20" style="clip-rule:nonzero">
    <path d="M8878 14660c-51,-32 -122,-53 -202,-58l79 -789 278 -160c100,349 37,716 -154,1007l0 0z"/>
   </clipPath>
   <clipPath id="id21" style="clip-rule:nonzero">
    <path d="M11224 14239l223 -861 634 366 -293 169 0 -169c0,-36 -29,-66 -65,-66 -36,0 -65,29 -65,66l0 245 -432 250 0 0z"/>
   </clipPath>
   <clipPath id="id22" style="clip-rule:nonzero">
    <path d="M11657 13989l0 -245c0,-36 29,-65 66,-65 36,0 66,29 66,65l0 170 -131 76 0 0z"/>
   </clipPath>
   <clipPath id="id23" style="clip-rule:nonzero">
    <path d="M4858 16063l-105 -60 2710 -1564 44 -25 287 -166 147 -86 43 -25 105 -60 -25 136 -98 56 -154 89 -96 56 -51 29 -176 102 -2630 1519zm3896 -2250l12 -128 232 -134 600 -346 -62 157 -503 291 -278 161 0 0z"/>
   </clipPath>
   <clipPath id="id24" style="clip-rule:nonzero">
    <path d="M12081 13744l-634 -366 27 -105 711 411 -105 60 0 0z"/>
   </clipPath>
   <clipPath id="id25" style="clip-rule:nonzero">
    <path d="M8574 15769l962 -2407 937 -541 0 -6 975 563 -223 860 -130 75 -567 327 0 -1606c0,-36 -30,-66 -66,-66 -36,0 -66,30 -66,66l0 1681 -1822 1053 0 0z"/>
   </clipPath>
   <clipPath id="id26" style="clip-rule:nonzero">
    <path d="M10397 14717l0 -1682c0,-36 29,-65 66,-65 36,0 66,29 66,65l0 1606 -44 25 -87 51 0 0z"/>
   </clipPath>
   <clipPath id="id27" style="clip-rule:nonzero">
    <path d="M11475 13273l-1002 -579 0 6 -874 505 7 -16 867 -501 1004 579 -2 6 0 0z"/>
   </clipPath>
   <clipPath id="id28" style="clip-rule:nonzero">
    <path d="M9536 13362l62 -157 874 -505 0 115 0 6 -937 541 0 0z"/>
   </clipPath>
   <clipPath id="id29" style="clip-rule:nonzero">
    <path d="M11447 13378l-975 -563 0 -115 0 -6 1002 579 -27 105 0 0z"/>
   </clipPath>
   <clipPath id="id30" style="clip-rule:nonzero">
    <path d="M7668 16292l167 -876 627 -362c54,-31 104,-66 151,-103 9,0 18,1 28,1l-82 827 -891 514 0 0z"/>
   </clipPath>
   <clipPath id="id31" style="clip-rule:nonzero">
    <path d="M7835 15416l51 -268 193 117 -177 -199 112 -591 17 73 32 141 494 301 -50 -56c33,9 69,15 107,17 -47,37 -98,72 -152,103l-627 362zm503 -672l-145 -163 -13 -104 -38 -310 51 -29 106 0 -9 -56 465 -268 -79 789c-10,0 -21,-1 -31,-1 -152,0 -279,61 -307,142l0 0z"/>
   </clipPath>
   <clipPath id="id32" style="clip-rule:nonzero">
    <path d="M8338 14743l-145 -163 -13 -104 -150 71 -17 -73 50 -263 79 -46 38 310 13 104 145 163 0 0 0 0z"/>
   </clipPath>
   <clipPath id="id33" style="clip-rule:nonzero">
    <path d="M8299 14138l-106 0 97 -56 9 56 0 0z"/>
   </clipPath>
   <clipPath id="id34" style="clip-rule:nonzero">
    <path d="M8078 15265l-193 -117 16 -82 177 199 0 0z"/>
   </clipPath>
   <clipPath id="id35" style="clip-rule:nonzero">
    <path d="M8557 14990l-494 -301 -32 -141 150 -71 13 104 145 163c-4,11 -6,22 -6,33 0,69 71,128 174,157l50 56 0 0z"/>
   </clipPath>
   <clipPath id="id36" style="clip-rule:nonzero">
    <path d="M8272 13971l-2 -12 498 -288 -1 13 -495 286 0 0z"/>
   </clipPath>
   <clipPath id="id37" style="clip-rule:nonzero">
    <path d="M8089 14077l3 -14 178 -103 2 12 -183 106 0 0z"/>
   </clipPath>
   <clipPath id="id38" style="clip-rule:nonzero">
    <path d="M8063 14212l26 -136 183 -106 495 -286 -13 128 -464 268 -97 56 -50 29 -79 46 0 0z"/>
   </clipPath>
   <clipPath id="id39" style="clip-rule:nonzero">
    <path d="M8645 14952c-1,0 -2,0 -4,0l3 -26c92,-78 171,-167 235,-266 49,31 79,72 79,116 0,97 -140,175 -312,175l0 0z"/>
   </clipPath>
   <clipPath id="id40" style="clip-rule:nonzero">
    <path d="M8644 14926l32 -324c80,4 152,26 202,58 -64,98 -143,188 -235,266l0 0z"/>
   </clipPath>
   <clipPath id="id41" style="clip-rule:nonzero">
    <path d="M8641 14952c-9,0 -19,0 -28,-1 10,-8 20,-16 30,-25l-3 26 0 0z"/>
   </clipPath>
   <clipPath id="id42" style="clip-rule:nonzero">
    <path d="M8613 14951c-38,-2 -74,-8 -107,-17l-169 -190c27,-81 154,-142 307,-142 11,0 21,0 31,1l-32 324c-10,9 -20,17 -30,25l0 0z"/>
   </clipPath>
   <clipPath id="id43" style="clip-rule:nonzero">
    <path d="M8507 14933c-103,-29 -174,-88 -174,-157 0,-11 2,-22 5,-33l169 190 0 0z"/>
   </clipPath>
  <linearGradient id="id44" gradientUnits="userSpaceOnUse" x1="22640.1" y1="8989.91" x2="17954.2" y2="13901.3">
   <stop offset="0" style="stop-color:#F6F6F6"/>
   <stop offset="1" style="stop-color:#DCCCCA"/>
  </linearGradient>
  <linearGradient id="id45" gradientUnits="userSpaceOnUse" x1="23509.8" y1="2558.13" x2="21269.5" y2="5557.8">
   <stop offset="0" style="stop-color:#FAD6C7"/>
   <stop offset="1" style="stop-color:#E4857F"/>
  </linearGradient>
  <linearGradient id="id46" gradientUnits="userSpaceOnUse" xlink:href="#id45" x1="22364.4" y1="2775.97" x2="20124.2" y2="5775.62">
  </linearGradient>
  <linearGradient id="id47" gradientUnits="userSpaceOnUse" xlink:href="#id45" x1="22184.4" y1="1319.12" x2="19944.1" y2="4318.83">
  </linearGradient>
  <linearGradient id="id48" gradientUnits="userSpaceOnUse" xlink:href="#id45" x1="21098.7" y1="10784.5" x2="21036.9" y2="13318">
  </linearGradient>
  <linearGradient id="id49" gradientUnits="userSpaceOnUse" xlink:href="#id44" x1="8039.89" y1="9744.74" x2="8002.47" y2="11952.6">
  </linearGradient>
  <linearGradient id="id50" gradientUnits="userSpaceOnUse" x1="10151.1" y1="1395.59" x2="10151.1" y2="2062.23">
   <stop offset="0" style="stop-color:#00BF81"/>
   <stop offset="1" style="stop-color:#026370"/>
  </linearGradient>
  <linearGradient id="id51" gradientUnits="userSpaceOnUse" xlink:href="#id44" x1="12230.2" y1="7325.02" x2="12230.2" y2="8299.11">
  </linearGradient>
  <linearGradient id="id52" gradientUnits="userSpaceOnUse" xlink:href="#id45" x1="20154.9" y1="12352.6" x2="20154.9" y2="14520">
  </linearGradient>
  <linearGradient id="id53" gradientUnits="userSpaceOnUse" xlink:href="#id45" x1="24680.3" y1="3238.9" x2="24733.5" y2="7842.06">
  </linearGradient>
  <linearGradient id="id54" gradientUnits="userSpaceOnUse" x1="8398.58" y1="11981.6" x2="8453.34" y2="13870.6">
   <stop offset="0" style="stop-color:#A1D9D6"/>
   <stop offset="1" style="stop-color:#00A19A"/>
  </linearGradient>
  <linearGradient id="id55" gradientUnits="userSpaceOnUse" xlink:href="#id45" x1="19029.4" y1="5921.54" x2="19662.3" y2="6436.4">
  </linearGradient>
  <linearGradient id="id56" gradientUnits="userSpaceOnUse" xlink:href="#id44" x1="4742.64" y1="16066.2" x2="4858.34" y2="16066.2">
  </linearGradient>
  <linearGradient id="id57" gradientUnits="userSpaceOnUse" xlink:href="#id44" x1="4742.68" y1="16552.8" x2="6461.54" y2="16552.8">
  </linearGradient>
  <linearGradient id="id58" gradientUnits="userSpaceOnUse" xlink:href="#id44" x1="6461.54" y1="15394.8" x2="12191.4" y2="15394.8">
  </linearGradient>
  <linearGradient id="id59" gradientUnits="userSpaceOnUse" xlink:href="#id44" x1="8235.19" y1="13825.9" x2="8744.51" y2="13825.9">
  </linearGradient>
  <linearGradient id="id60" gradientUnits="userSpaceOnUse" xlink:href="#id44" x1="12081.2" y1="13746" x2="12191.3" y2="13746">
  </linearGradient>
  <linearGradient id="id61" gradientUnits="userSpaceOnUse" xlink:href="#id45" x1="18035.6" y1="11415.4" x2="20877.3" y2="11415.4">
  </linearGradient>
  <linearGradient id="id62" gradientUnits="userSpaceOnUse" xlink:href="#id45" x1="18522.4" y1="12941.9" x2="21350.4" y2="12941.9">
  </linearGradient>
  <linearGradient id="id63" gradientUnits="userSpaceOnUse" xlink:href="#id45" x1="19084.4" y1="12635.5" x2="21212.9" y2="12635.5">
  </linearGradient>
  <linearGradient id="id64" gradientUnits="userSpaceOnUse" xlink:href="#id45" x1="19580.5" y1="14491.3" x2="20729.4" y2="14491.3">
  </linearGradient>
  <linearGradient id="id65" gradientUnits="userSpaceOnUse" xlink:href="#id45" x1="17059.4" y1="7460.46" x2="17222.2" y2="7056.23">
  </linearGradient>
  <linearGradient id="id66" gradientUnits="userSpaceOnUse" xlink:href="#id44" x1="5160.6" y1="17812.7" x2="5242.18" y2="16221.9">
  </linearGradient>
  <linearGradient id="id67" gradientUnits="userSpaceOnUse" xlink:href="#id44" x1="6421.23" y1="18521.4" x2="6501.84" y2="16949.5">
  </linearGradient>
  <linearGradient id="id68" gradientUnits="userSpaceOnUse" xlink:href="#id44" x1="11681" y1="15522.9" x2="11763.6" y2="13912.4">
  </linearGradient>
  <linearGradient id="id69" gradientUnits="userSpaceOnUse" xlink:href="#id45" x1="19635.6" y1="9202.54" x2="19651.2" y2="8313.61">
  </linearGradient>
  <linearGradient id="id70" gradientUnits="userSpaceOnUse" xlink:href="#id44" x1="13194.4" y1="21186.4" x2="13194.4" y2="5781">
  </linearGradient>
  <linearGradient id="id71" gradientUnits="userSpaceOnUse" xlink:href="#id45" x1="17062.6" y1="7279.01" x2="17062.6" y2="4951.04">
  </linearGradient>
  <linearGradient id="id72" gradientUnits="userSpaceOnUse" xlink:href="#id45" x1="20437.8" y1="10176.7" x2="20437.8" y2="9216.41">
  </linearGradient>
  <linearGradient id="id73" gradientUnits="userSpaceOnUse" xlink:href="#id45" x1="19070.4" y1="6360.98" x2="19016.2" y2="3273.24">
  </linearGradient>
  <linearGradient id="id74" gradientUnits="userSpaceOnUse" xlink:href="#id45" x1="18746.9" y1="9202.54" x2="18731.3" y2="8313.61">
  </linearGradient>
  <linearGradient id="id75" gradientUnits="userSpaceOnUse" xlink:href="#id45" x1="8385.81" y1="12738.1" x2="6925.64" y2="9817.75">
  </linearGradient>
  <linearGradient id="id76" gradientUnits="userSpaceOnUse" xlink:href="#id45" x1="8322.18" y1="9718.09" x2="6485.33" y2="13715.9">
  </linearGradient>
  <linearGradient id="id77" gradientUnits="userSpaceOnUse" xlink:href="#id54" x1="9067.05" y1="12707.4" x2="8551.3" y2="13882.2">
  </linearGradient>
  <linearGradient id="id78" gradientUnits="userSpaceOnUse" xlink:href="#id44" x1="8685.81" y1="13815.5" x2="8293.87" y2="14844.4">
  </linearGradient>
  <linearGradient id="id79" gradientUnits="userSpaceOnUse" x1="17173.4" y1="4610.36" x2="17034.7" y2="5439">
   <stop offset="0" style="stop-color:#F6F6F6"/>
   <stop offset="1" style="stop-color:#00A19A"/>
  </linearGradient>
  <linearGradient id="id80" gradientUnits="userSpaceOnUse" xlink:href="#id45" x1="6834.52" y1="11914.9" x2="6653.63" y2="14447.4">
  </linearGradient>
  <linearGradient id="id81" gradientUnits="userSpaceOnUse" xlink:href="#id45" x1="7310.08" y1="11639.3" x2="7129.23" y2="14171.3">
  </linearGradient>
  <linearGradient id="id82" gradientUnits="userSpaceOnUse" xlink:href="#id54" x1="6443.37" y1="9742.01" x2="6640.03" y2="12213">
  </linearGradient>
  <linearGradient id="id83" gradientUnits="userSpaceOnUse" xlink:href="#id44" x1="10457.7" y1="14814.4" x2="10466.7" y2="14639.9">
  </linearGradient>
  <linearGradient id="id84" gradientUnits="userSpaceOnUse" xlink:href="#id44" x1="18412.7" y1="8133.97" x2="16776.9" y2="9266.44">
  </linearGradient>
  <linearGradient id="id85" gradientUnits="userSpaceOnUse" xlink:href="#id44" x1="11422.7" y1="7252.45" x2="7566.13" y2="10070.7">
  </linearGradient>
  <linearGradient id="id86" gradientUnits="userSpaceOnUse" xlink:href="#id45" x1="6811.41" y1="9736.11" x2="6407.07" y2="10414.8">
  </linearGradient>
  <linearGradient id="id87" gradientUnits="userSpaceOnUse" xlink:href="#id44" x1="2771.11" y1="4761.27" x2="468.193" y2="11094.3">
  </linearGradient>
  <linearGradient id="id88" gradientUnits="userSpaceOnUse" xlink:href="#id44" x1="6168.2" y1="2843.65" x2="3865.25" y2="9176.77">
  </linearGradient>
  <linearGradient id="id89" gradientUnits="userSpaceOnUse" xlink:href="#id54" x1="16751.3" y1="4733.15" x2="16098.9" y2="7560.21">
  </linearGradient>
  <linearGradient id="id90" gradientUnits="userSpaceOnUse" xlink:href="#id44" x1="19607.4" y1="3525.53" x2="19413.5" y2="5696.92">
  </linearGradient>
  <linearGradient id="id91" gradientUnits="userSpaceOnUse" xlink:href="#id45" x1="19299.4" y1="-106.055" x2="24534" y2="3431.3">
  </linearGradient>
  <linearGradient id="id92" gradientUnits="userSpaceOnUse" xlink:href="#id44" x1="17636.9" y1="11007.5" x2="19223.3" y2="10391.3">
  </linearGradient>
  <linearGradient id="id93" gradientUnits="userSpaceOnUse" xlink:href="#id44" x1="18820.6" y1="13002.7" x2="21623.8" y2="11913.8">
  </linearGradient>
  <linearGradient id="id94" gradientUnits="userSpaceOnUse" xlink:href="#id54" x1="20254.2" y1="11728.7" x2="20340" y2="8812.5">
  </linearGradient>
  <linearGradient id="id95" gradientUnits="userSpaceOnUse" xlink:href="#id44" x1="17979.3" y1="10613.9" x2="17541.9" y2="9606.55">
  </linearGradient>
  <linearGradient id="id96" gradientUnits="userSpaceOnUse" xlink:href="#id45" x1="17161.6" y1="4270.31" x2="16678.7" y2="3565.18">
  </linearGradient>
  <linearGradient id="id97" gradientUnits="userSpaceOnUse" xlink:href="#id54" x1="19281.1" y1="7913.21" x2="15039.9" y2="4758.88">
  </linearGradient>
  <linearGradient id="id98" gradientUnits="userSpaceOnUse" xlink:href="#id44" x1="19749.2" y1="5598.63" x2="15363.2" y2="10195.7">
  </linearGradient>
  <linearGradient id="id99" gradientUnits="userSpaceOnUse" xlink:href="#id45" x1="19970.8" y1="10644.5" x2="19827.1" y2="11912.2">
  </linearGradient>
  <linearGradient id="id100" gradientUnits="userSpaceOnUse" xlink:href="#id44" x1="10182" y1="1817.37" x2="10370.1" y2="3196.44">
  </linearGradient>
  <linearGradient id="id101" gradientUnits="userSpaceOnUse" xlink:href="#id45" x1="19960.6" y1="9990.02" x2="21000.1" y2="12772.5">
  </linearGradient>
  <linearGradient id="id102" gradientUnits="userSpaceOnUse" xlink:href="#id45" x1="1871.7" y1="9396" x2="7226.26" y2="14158.7">
  </linearGradient>
  <linearGradient id="id103" gradientUnits="userSpaceOnUse" xlink:href="#id44" x1="-271.846" y1="9181.5" x2="26661.3" y2="18321.7">
  </linearGradient>
  <linearGradient id="id104" gradientUnits="userSpaceOnUse" xlink:href="#id44" x1="18152.1" y1="11081.3" x2="19216.1" y2="10668">
  </linearGradient>
  <linearGradient id="id105" gradientUnits="userSpaceOnUse" xlink:href="#id44" x1="17661.1" y1="10649.9" x2="17833" y2="9645.19">
  </linearGradient>
  <linearGradient id="id106" gradientUnits="userSpaceOnUse" x1="17495" y1="10373.9" x2="17784.3" y2="8282.9">
   <stop offset="0" style="stop-color:#105081"/>
   <stop offset="1" style="stop-color:#1DDFFF"/>
  </linearGradient>
  <linearGradient id="id107" gradientUnits="userSpaceOnUse" xlink:href="#id45" x1="19507.1" y1="3568.35" x2="19661.4" y2="2416.65">
  </linearGradient>
  <linearGradient id="id108" gradientUnits="userSpaceOnUse" xlink:href="#id45" x1="5819.91" y1="16496.4" x2="5478.58" y2="10999.2">
  </linearGradient>
  <linearGradient id="id109" gradientUnits="userSpaceOnUse" xlink:href="#id45" x1="6283.87" y1="9936.16" x2="2805.32" y2="14122.7">
  </linearGradient>
  <linearGradient id="id110" gradientUnits="userSpaceOnUse" xlink:href="#id45" x1="19936.9" y1="5736.22" x2="19765.9" y2="6462.91">
  </linearGradient>
  <linearGradient id="id111" gradientUnits="userSpaceOnUse" xlink:href="#id54" x1="6074.14" y1="10166.1" x2="6499.7" y2="12593.4">
  </linearGradient>
  <linearGradient id="id112" gradientUnits="userSpaceOnUse" xlink:href="#id54" x1="9098.7" y1="7495.2" x2="11309" y2="10021.3">
  </linearGradient>
  <linearGradient id="id113" gradientUnits="userSpaceOnUse" xlink:href="#id44" x1="17649.9" y1="11130.6" x2="18164.8" y2="10930.6">
  </linearGradient>
  <linearGradient id="id114" gradientUnits="userSpaceOnUse" xlink:href="#id44" x1="17974" y1="13173.9" x2="22620.4" y2="9578.53">
  </linearGradient>
  <linearGradient id="id115" gradientUnits="userSpaceOnUse" xlink:href="#id44" x1="5614.45" y1="17725.6" x2="5161.04" y2="12435.8">
  </linearGradient>
  <linearGradient id="id116" gradientUnits="userSpaceOnUse" x1="7910.53" y1="15105.1" x2="7532.2" y2="14750.2">
   <stop offset="0" style="stop-color:#0A865D"/>
   <stop offset="1" style="stop-color:#0B4B52"/>
  </linearGradient>
  <linearGradient id="id117" gradientUnits="userSpaceOnUse" xlink:href="#id45" x1="6685.34" y1="8620.81" x2="5851.59" y2="10020.3">
  </linearGradient>
  <linearGradient id="id118" gradientUnits="userSpaceOnUse" xlink:href="#id44" x1="21481.2" y1="10201" x2="20635.6" y2="12194.5">
  </linearGradient>
  <linearGradient id="id119" gradientUnits="userSpaceOnUse" xlink:href="#id44" x1="19942.6" y1="6338.43" x2="19733.1" y2="6888.35">
  </linearGradient>
  <linearGradient id="id120" gradientUnits="userSpaceOnUse" xlink:href="#id44" x1="19537.3" y1="6338.91" x2="19328.1" y2="6887.87">
  </linearGradient>
  <linearGradient id="id121" gradientUnits="userSpaceOnUse" xlink:href="#id54" x1="8098.63" y1="12736" x2="8627.93" y2="13764.6">
  </linearGradient>
  <linearGradient id="id122" gradientUnits="userSpaceOnUse" xlink:href="#id44" x1="18876.7" y1="13078.2" x2="20158.9" y2="12855.2">
  </linearGradient>
  <linearGradient id="id123" gradientUnits="userSpaceOnUse" xlink:href="#id44" x1="20772.1" y1="12175.7" x2="21612.4" y2="10307.8">
  </linearGradient>
  <linearGradient id="id124" gradientUnits="userSpaceOnUse" xlink:href="#id44" x1="8616.88" y1="19832.4" x2="9109.76" y2="14706.5">
  </linearGradient>
  <linearGradient id="id125" gradientUnits="userSpaceOnUse" xlink:href="#id79" x1="19352.7" y1="11768.7" x2="19671.6" y2="8048.78">
  </linearGradient>
  <linearGradient id="id126" gradientUnits="userSpaceOnUse" xlink:href="#id54" x1="17113.8" y1="11723.9" x2="17207.2" y2="10634.2">
  </linearGradient>
  <linearGradient id="id127" gradientUnits="userSpaceOnUse" xlink:href="#id54" x1="20343.8" y1="7789.36" x2="20250.4" y2="6699.63">
  </linearGradient>
  <linearGradient id="id128" gradientUnits="userSpaceOnUse" xlink:href="#id79" x1="18104.9" y1="7834.07" x2="17786.1" y2="4114.19">
  </linearGradient>
  <linearGradient id="id129" gradientUnits="userSpaceOnUse" xlink:href="#id44" x1="13840.2" y1="20996.7" x2="12548.5" y2="5926.22">
  </linearGradient>
  <linearGradient id="id130" gradientUnits="userSpaceOnUse" xlink:href="#id45" x1="7141.07" y1="13154" x2="5665.13" y2="10202.2">
  </linearGradient>
  <linearGradient id="id131" gradientUnits="userSpaceOnUse" xlink:href="#id45" x1="19945" y1="5965" x2="19681.6" y2="6452.48">
  </linearGradient>
  <linearGradient id="id132" gradientUnits="userSpaceOnUse" x1="13497.5" y1="874.327" x2="12860.6" y2="5545.25">
   <stop offset="0" style="stop-color:#FAFAFA"/>
   <stop offset="1" style="stop-color:#EDE5E4"/>
  </linearGradient>
  <linearGradient id="id133" gradientUnits="userSpaceOnUse" xlink:href="#id45" x1="19394.5" y1="5883.96" x2="19541.6" y2="6446.2">
  </linearGradient>
  <linearGradient id="id134" gradientUnits="userSpaceOnUse" xlink:href="#id45" x1="1310.49" y1="16001.3" x2="3829.27" y2="13015.1">
  </linearGradient>
  <linearGradient id="id135" gradientUnits="userSpaceOnUse" xlink:href="#id44" x1="21300.5" y1="11126.7" x2="22014.9" y2="9038.57">
  </linearGradient>
  <linearGradient id="id136" gradientUnits="userSpaceOnUse" xlink:href="#id44" x1="20984.6" y1="11618.1" x2="21384.4" y2="10449.3">
  </linearGradient>
  <linearGradient id="id137" gradientUnits="userSpaceOnUse" xlink:href="#id45" x1="20570.1" y1="9700.58" x2="19904.4" y2="11448.2">
  </linearGradient>
  <linearGradient id="id138" gradientUnits="userSpaceOnUse" xlink:href="#id44" x1="20284.5" y1="11072.8" x2="19707.9" y2="15300.9">
  </linearGradient>
  <linearGradient id="id139" gradientUnits="userSpaceOnUse" xlink:href="#id54" x1="8674.71" y1="6969.3" x2="11175.4" y2="10387.9">
  </linearGradient>
  <linearGradient id="id140" gradientUnits="userSpaceOnUse" xlink:href="#id116" x1="8224.67" y1="14150.5" x2="8007.47" y2="13946.8">
  </linearGradient>
  <linearGradient id="id141" gradientUnits="userSpaceOnUse" x1="7747.68" y1="14426.4" x2="7530.46" y2="14222.6">
   <stop offset="0" style="stop-color:#159169"/>
   <stop offset="1" style="stop-color:#16555E"/>
  </linearGradient>
  <linearGradient id="id142" gradientUnits="userSpaceOnUse" xlink:href="#id44" x1="9836.51" y1="7978.87" x2="11677.6" y2="12017.4">
  </linearGradient>
  <linearGradient id="id143" gradientUnits="userSpaceOnUse" xlink:href="#id44" x1="18554.1" y1="8754.09" x2="16725.1" y2="10020.3">
  </linearGradient>
  <linearGradient id="id144" gradientUnits="userSpaceOnUse" xlink:href="#id54" x1="19913.6" y1="3732.72" x2="15977.4" y2="7858.33">
  </linearGradient>
  <linearGradient id="id145" gradientUnits="userSpaceOnUse" xlink:href="#id54" x1="17544.1" y1="7667.31" x2="21480.2" y2="11792.9">
  </linearGradient>
  <linearGradient id="id146" gradientUnits="userSpaceOnUse" xlink:href="#id44" x1="9657.87" y1="2356.78" x2="10681.4" y2="2596.04">
  </linearGradient>
  <linearGradient id="id147" gradientUnits="userSpaceOnUse" xlink:href="#id45" x1="19022.4" y1="4574.83" x2="24703.6" y2="3352.58">
  </linearGradient>
  <linearGradient id="id148" gradientUnits="userSpaceOnUse" xlink:href="#id141" x1="7802.54" y1="14417.5" x2="7734.01" y2="14353.2">
  </linearGradient>
  <linearGradient id="id149" gradientUnits="userSpaceOnUse" xlink:href="#id44" x1="19900" y1="6099.04" x2="19775.6" y2="6425.65">
  </linearGradient>
  <linearGradient id="id150" gradientUnits="userSpaceOnUse" xlink:href="#id44" x1="19494.6" y1="6099.28" x2="19370.8" y2="6424.17">
  </linearGradient>
  <linearGradient id="id151" gradientUnits="userSpaceOnUse" xlink:href="#id132" x1="5482.29" y1="2756.79" x2="4953.52" y2="6634.35">
  </linearGradient>
  <linearGradient id="id152" gradientUnits="userSpaceOnUse" xlink:href="#id44" x1="20612.7" y1="13555.7" x2="21133" y2="12399.3">
  </linearGradient>
  <linearGradient id="id153" gradientUnits="userSpaceOnUse" xlink:href="#id44" x1="19569.7" y1="10129.8" x2="20304.7" y2="12622.6">
  </linearGradient>
  <linearGradient id="id154" gradientUnits="userSpaceOnUse" xlink:href="#id44" x1="19479" y1="12437.6" x2="20395.4" y2="9759.03">
  </linearGradient>
  <linearGradient id="id155" gradientUnits="userSpaceOnUse" xlink:href="#id44" x1="16271.3" y1="10257.9" x2="16336.4" y2="9580.74">
  </linearGradient>
  <linearGradient id="id156" gradientUnits="userSpaceOnUse" xlink:href="#id44" x1="21328.3" y1="7714.26" x2="19422.1" y2="9712.29">
  </linearGradient>
  <linearGradient id="id157" gradientUnits="userSpaceOnUse" xlink:href="#id45" x1="20414.6" y1="14095.8" x2="19895.3" y2="14827.1">
  </linearGradient>
  <linearGradient id="id158" gradientUnits="userSpaceOnUse" xlink:href="#id45" x1="20758.6" y1="1968.74" x2="19772.2" y2="4091.02">
  </linearGradient>
  <linearGradient id="id159" gradientUnits="userSpaceOnUse" xlink:href="#id45" x1="22388.5" y1="2909.7" x2="21402.1" y2="5031.97">
  </linearGradient>
  <linearGradient id="id160" gradientUnits="userSpaceOnUse" xlink:href="#id45" x1="23953.8" y1="3836.45" x2="22967.3" y2="5958.81">
  </linearGradient>
  <linearGradient id="id161" gradientUnits="userSpaceOnUse" xlink:href="#id45" x1="20351.3" y1="1733.44" x2="19364.8" y2="3855.83">
  </linearGradient>
  <linearGradient id="id162" gradientUnits="userSpaceOnUse" xlink:href="#id45" x1="19943.7" y1="1498.2" x2="18957.3" y2="3620.57">
  </linearGradient>
  <linearGradient id="id163" gradientUnits="userSpaceOnUse" xlink:href="#id45" x1="21166.2" y1="2203.85" x2="20179.7" y2="4326.28">
  </linearGradient>
  <linearGradient id="id164" gradientUnits="userSpaceOnUse" xlink:href="#id45" x1="21573.7" y1="2439.16" x2="20587.2" y2="4561.53">
  </linearGradient>
  <linearGradient id="id165" gradientUnits="userSpaceOnUse" xlink:href="#id45" x1="21976.6" y1="2671.91" x2="20990.2" y2="4794.23">
  </linearGradient>
  <linearGradient id="id166" gradientUnits="userSpaceOnUse" xlink:href="#id45" x1="22795.9" y1="3144.86" x2="21809.4" y2="5267.15">
  </linearGradient>
  <linearGradient id="id167" gradientUnits="userSpaceOnUse" xlink:href="#id45" x1="23203.4" y1="3380.11" x2="22217" y2="5502.43">
  </linearGradient>
  <linearGradient id="id168" gradientUnits="userSpaceOnUse" xlink:href="#id45" x1="23546.3" y1="3601.23" x2="22559.9" y2="5723.54">
  </linearGradient>
  <linearGradient id="id169" gradientUnits="userSpaceOnUse" xlink:href="#id45" x1="24768.6" y1="4306.88" x2="23782.1" y2="6429.23">
  </linearGradient>
  <linearGradient id="id170" gradientUnits="userSpaceOnUse" xlink:href="#id45" x1="24361.2" y1="4071.57" x2="23374.8" y2="6193.99">
  </linearGradient>
  <linearGradient id="id171" gradientUnits="userSpaceOnUse" xlink:href="#id44" x1="17862.5" y1="10843.5" x2="17845.2" y2="10906.9">
  </linearGradient>
  <linearGradient id="id172" gradientUnits="userSpaceOnUse" xlink:href="#id44" x1="17994.4" y1="10764.7" x2="17977.1" y2="10828.1">
  </linearGradient>
  <linearGradient id="id173" gradientUnits="userSpaceOnUse" xlink:href="#id44" x1="18127" y1="10686.9" x2="18109.7" y2="10750.3">
  </linearGradient>
  <linearGradient id="id174" gradientUnits="userSpaceOnUse" xlink:href="#id44" x1="18158.9" y1="10754.1" x2="18141.6" y2="10817.4">
  </linearGradient>
  <linearGradient id="id175" gradientUnits="userSpaceOnUse" xlink:href="#id44" x1="18237.3" y1="10972" x2="18220" y2="11035.4">
  </linearGradient>
  <linearGradient id="id176" gradientUnits="userSpaceOnUse" xlink:href="#id44" x1="18259.2" y1="10773.7" x2="18242" y2="10837.1">
  </linearGradient>
  <linearGradient id="id177" gradientUnits="userSpaceOnUse" xlink:href="#id44" x1="18355.1" y1="10637.6" x2="18337.8" y2="10701">
  </linearGradient>
  <linearGradient id="id178" gradientUnits="userSpaceOnUse" xlink:href="#id44" x1="18455.5" y1="10657.3" x2="18438.2" y2="10720.6">
  </linearGradient>
  <linearGradient id="id179" gradientUnits="userSpaceOnUse" xlink:href="#id44" x1="18456.6" y1="10491.6" x2="18439.3" y2="10555.1">
  </linearGradient>
  <linearGradient id="id180" gradientUnits="userSpaceOnUse" xlink:href="#id44" x1="18553.7" y1="10520.2" x2="18536.4" y2="10583.6">
  </linearGradient>
  <linearGradient id="id181" gradientUnits="userSpaceOnUse" xlink:href="#id44" x1="18588.1" y1="10579.4" x2="18570.8" y2="10642.8">
  </linearGradient>
  <linearGradient id="id182" gradientUnits="userSpaceOnUse" xlink:href="#id44" x1="18620.4" y1="10645.4" x2="18603.2" y2="10708.8">
  </linearGradient>
  <linearGradient id="id183" gradientUnits="userSpaceOnUse" xlink:href="#id44" x1="18686.5" y1="10605.8" x2="18669.2" y2="10669.2">
  </linearGradient>
  <linearGradient id="id184" gradientUnits="userSpaceOnUse" xlink:href="#id44" x1="18817.6" y1="10365.6" x2="18800.3" y2="10429">
  </linearGradient>
  <linearGradient id="id185" gradientUnits="userSpaceOnUse" xlink:href="#id44" x1="18061.6" y1="10725.5" x2="18044.3" y2="10788.9">
  </linearGradient>
  <linearGradient id="id186" gradientUnits="userSpaceOnUse" xlink:href="#id44" x1="18258" y1="10609.1" x2="18240.7" y2="10672.5">
  </linearGradient>
  <linearGradient id="id187" gradientUnits="userSpaceOnUse" xlink:href="#id44" x1="18290.2" y1="10675.9" x2="18272.9" y2="10739.3">
  </linearGradient>
  <linearGradient id="id188" gradientUnits="userSpaceOnUse" xlink:href="#id44" x1="18487.7" y1="10723.2" x2="18470.4" y2="10786.6">
  </linearGradient>
  <linearGradient id="id189" gradientUnits="userSpaceOnUse" xlink:href="#id44" x1="18521.7" y1="10454.4" x2="18504.4" y2="10517.8">
  </linearGradient>
  <linearGradient id="id190" gradientUnits="userSpaceOnUse" xlink:href="#id44" x1="18522.9" y1="10618.1" x2="18505.6" y2="10681.4">
  </linearGradient>
  <linearGradient id="id191" gradientUnits="userSpaceOnUse" xlink:href="#id44" x1="18686.3" y1="10443.8" x2="18669" y2="10507.2">
  </linearGradient>
  <linearGradient id="id192" gradientUnits="userSpaceOnUse" xlink:href="#id44" x1="18124.7" y1="10854.1" x2="18107.4" y2="10917.5">
  </linearGradient>
  <linearGradient id="id193" gradientUnits="userSpaceOnUse" xlink:href="#id44" x1="18192" y1="10812.9" x2="18174.7" y2="10876.3">
  </linearGradient>
  <linearGradient id="id194" gradientUnits="userSpaceOnUse" xlink:href="#id44" x1="17928.8" y1="10803.9" x2="17911.6" y2="10867.3">
  </linearGradient>
  <linearGradient id="id195" gradientUnits="userSpaceOnUse" xlink:href="#id44" x1="18091.4" y1="10793.3" x2="18074.1" y2="10856.7">
  </linearGradient>
  <linearGradient id="id196" gradientUnits="userSpaceOnUse" xlink:href="#id44" x1="18170" y1="11011.2" x2="18152.7" y2="11074.6">
  </linearGradient>
  <linearGradient id="id197" gradientUnits="userSpaceOnUse" xlink:href="#id44" x1="18291.4" y1="10839.7" x2="18274.2" y2="10903">
  </linearGradient>
  <linearGradient id="id198" gradientUnits="userSpaceOnUse" xlink:href="#id44" x1="18487.7" y1="10559.8" x2="18470.4" y2="10623.2">
  </linearGradient>
  <linearGradient id="id199" gradientUnits="userSpaceOnUse" xlink:href="#id44" x1="18654.3" y1="10539.8" x2="18637" y2="10603.2">
  </linearGradient>
  <linearGradient id="id200" gradientUnits="userSpaceOnUse" xlink:href="#id44" x1="18026.3" y1="10831.5" x2="18009" y2="10894.9">
  </linearGradient>
  <linearGradient id="id201" gradientUnits="userSpaceOnUse" xlink:href="#id44" x1="18193.1" y1="10647.3" x2="18175.8" y2="10710.7">
  </linearGradient>
  <linearGradient id="id202" gradientUnits="userSpaceOnUse" xlink:href="#id44" x1="18224.2" y1="10715.5" x2="18206.9" y2="10778.8">
  </linearGradient>
  <linearGradient id="id203" gradientUnits="userSpaceOnUse" xlink:href="#id44" x1="18302.6" y1="10933.4" x2="18285.3" y2="10996.8">
  </linearGradient>
  <linearGradient id="id204" gradientUnits="userSpaceOnUse" xlink:href="#id44" x1="18325.3" y1="10569.9" x2="18308" y2="10633.2">
  </linearGradient>
  <linearGradient id="id205" gradientUnits="userSpaceOnUse" xlink:href="#id44" x1="18368.8" y1="10893.8" x2="18351.5" y2="10957.2">
  </linearGradient>
  <linearGradient id="id206" gradientUnits="userSpaceOnUse" xlink:href="#id44" x1="18390.6" y1="10531.2" x2="18373.3" y2="10594.6">
  </linearGradient>
  <linearGradient id="id207" gradientUnits="userSpaceOnUse" xlink:href="#id44" x1="18390.7" y1="10695.5" x2="18373.5" y2="10758.9">
  </linearGradient>
  <linearGradient id="id208" gradientUnits="userSpaceOnUse" xlink:href="#id44" x1="18422.4" y1="10598.4" x2="18405.1" y2="10661.8">
  </linearGradient>
  <linearGradient id="id209" gradientUnits="userSpaceOnUse" xlink:href="#id44" x1="18422.9" y1="10761.5" x2="18405.6" y2="10824.9">
  </linearGradient>
  <linearGradient id="id210" gradientUnits="userSpaceOnUse" xlink:href="#id44" x1="18555" y1="10684" x2="18537.7" y2="10747.4">
  </linearGradient>
  <linearGradient id="id211" gradientUnits="userSpaceOnUse" xlink:href="#id44" x1="18589" y1="10415.2" x2="18571.7" y2="10478.6">
  </linearGradient>
  <linearGradient id="id212" gradientUnits="userSpaceOnUse" xlink:href="#id44" x1="18619" y1="10483" x2="18601.7" y2="10546.4">
  </linearGradient>
  <linearGradient id="id213" gradientUnits="userSpaceOnUse" xlink:href="#id44" x1="18654.4" y1="10376.6" x2="18637.2" y2="10440">
  </linearGradient>
  <linearGradient id="id214" gradientUnits="userSpaceOnUse" xlink:href="#id44" x1="18719.4" y1="10502.6" x2="18702.1" y2="10566">
  </linearGradient>
  <linearGradient id="id215" gradientUnits="userSpaceOnUse" xlink:href="#id44" x1="18751.4" y1="10405.2" x2="18734.1" y2="10468.6">
  </linearGradient>
  <linearGradient id="id216" gradientUnits="userSpaceOnUse" xlink:href="#id44" x1="18751.6" y1="10568.6" x2="18734.3" y2="10632">
  </linearGradient>
  <linearGradient id="id217" gradientUnits="userSpaceOnUse" xlink:href="#id44" x1="18785.2" y1="10648.5" x2="18767.9" y2="10711.9">
  </linearGradient>
  <linearGradient id="id218" gradientUnits="userSpaceOnUse" xlink:href="#id44" x1="18786.7" y1="10463.4" x2="18769.4" y2="10526.8">
  </linearGradient>
  <linearGradient id="id219" gradientUnits="userSpaceOnUse" xlink:href="#id44" x1="18818.9" y1="10529.4" x2="18801.6" y2="10592.8">
  </linearGradient>
  <linearGradient id="id220" gradientUnits="userSpaceOnUse" xlink:href="#id44" x1="18852.5" y1="10609.3" x2="18835.2" y2="10672.6">
  </linearGradient>
  <linearGradient id="id221" gradientUnits="userSpaceOnUse" xlink:href="#id44" x1="18224.4" y1="10878.9" x2="18207.1" y2="10942.3">
  </linearGradient>
  <linearGradient id="id222" gradientUnits="userSpaceOnUse" xlink:href="#id44" x1="18356.7" y1="10801.1" x2="18339.5" y2="10864.5">
  </linearGradient>
  <linearGradient id="id223" gradientUnits="userSpaceOnUse" xlink:href="#id44" x1="18324.5" y1="10735.1" x2="18307.3" y2="10798.5">
  </linearGradient>
  <linearGradient id="id224" gradientUnits="userSpaceOnUse" x1="2847.56" y1="6820.78" x2="331.882" y2="9866.02">
   <stop offset="0" style="stop-color:#FAFAFA"/>
   <stop offset="1" style="stop-color:#7FD0CC"/>
  </linearGradient>
  <linearGradient id="id225" gradientUnits="userSpaceOnUse" xlink:href="#id44" x1="18967.1" y1="10431.7" x2="18893.5" y2="10557.6">
  </linearGradient>
  <linearGradient id="id226" gradientUnits="userSpaceOnUse" xlink:href="#id44" x1="18416.5" y1="10446" x2="18382.2" y2="10504.5">
  </linearGradient>
  <linearGradient id="id227" gradientUnits="userSpaceOnUse" xlink:href="#id44" x1="18715.6" y1="10274.4" x2="18681.4" y2="10333">
  </linearGradient>
  <linearGradient id="id228" gradientUnits="userSpaceOnUse" xlink:href="#id44" x1="18489.8" y1="10404.8" x2="18455.5" y2="10463.5">
  </linearGradient>
  <linearGradient id="id229" gradientUnits="userSpaceOnUse" xlink:href="#id44" x1="18053.3" y1="10890.3" x2="17995" y2="10990.1">
  </linearGradient>
  <linearGradient id="id230" gradientUnits="userSpaceOnUse" xlink:href="#id44" x1="19019.6" y1="10536.7" x2="18985.4" y2="10595.3">
  </linearGradient>
  <linearGradient id="id231" gradientUnits="userSpaceOnUse" xlink:href="#id44" x1="17974.5" y1="10706.6" x2="17940.3" y2="10765.2">
  </linearGradient>
  <linearGradient id="id232" gradientUnits="userSpaceOnUse" xlink:href="#id44" x1="18047.8" y1="10665.5" x2="18013.5" y2="10724.1">
  </linearGradient>
  <linearGradient id="id233" gradientUnits="userSpaceOnUse" xlink:href="#id44" x1="18200.2" y1="10576.1" x2="18165.9" y2="10634.8">
  </linearGradient>
  <linearGradient id="id234" gradientUnits="userSpaceOnUse" xlink:href="#id44" x1="18273.7" y1="10535.1" x2="18239.4" y2="10593.7">
  </linearGradient>
  <linearGradient id="id235" gradientUnits="userSpaceOnUse" xlink:href="#id44" x1="18642.2" y1="10315.5" x2="18607.9" y2="10374.1">
  </linearGradient>
  <linearGradient id="id236" gradientUnits="userSpaceOnUse" xlink:href="#id44" x1="18947.3" y1="10577.8" x2="18913.1" y2="10636.4">
  </linearGradient>
  <linearGradient id="id237" gradientUnits="userSpaceOnUse" xlink:href="#id44" x1="18985.1" y1="10516.2" x2="18950.9" y2="10574.7">
  </linearGradient>
  <linearGradient id="id238" gradientUnits="userSpaceOnUse" xlink:href="#id44" x1="19092.7" y1="10496.2" x2="19058.4" y2="10554.8">
  </linearGradient>
  <linearGradient id="id239" gradientUnits="userSpaceOnUse" xlink:href="#id44" x1="18343.5" y1="10491.2" x2="18309.2" y2="10549.8">
  </linearGradient>
  <linearGradient id="id240" gradientUnits="userSpaceOnUse" xlink:href="#id44" x1="18772" y1="10302.9" x2="18713.7" y2="10402.6">
  </linearGradient>
  <linearGradient id="id241" gradientUnits="userSpaceOnUse" xlink:href="#id44" x1="18145.2" y1="10914" x2="18077.3" y2="11030.1">
  </linearGradient>
  <linearGradient id="id242" gradientUnits="userSpaceOnUse" xlink:href="#id44" x1="17818.2" y1="10803.5" x2="17784" y2="10862.1">
  </linearGradient>
  <linearGradient id="id243" gradientUnits="userSpaceOnUse" xlink:href="#id44" x1="17901.5" y1="10751.9" x2="17867.2" y2="10810.5">
  </linearGradient>
  <linearGradient id="id244" gradientUnits="userSpaceOnUse" xlink:href="#id44" x1="18127.2" y1="10621.4" x2="18093" y2="10680">
  </linearGradient>
  <linearGradient id="id245" gradientUnits="userSpaceOnUse" xlink:href="#id44" x1="18569.2" y1="10360.8" x2="18535" y2="10419.4">
  </linearGradient>
  <linearGradient id="id246" gradientUnits="userSpaceOnUse" xlink:href="#id44" x1="18903.2" y1="10388.9" x2="18844.9" y2="10488.6">
  </linearGradient>
  <linearGradient id="id247" gradientUnits="userSpaceOnUse" xlink:href="#id44" x1="17962.3" y1="10866.5" x2="17914.1" y2="10949">
  </linearGradient>
  <linearGradient id="id248" gradientUnits="userSpaceOnUse" xlink:href="#id44" x1="18639.2" y1="10685.9" x2="18505.7" y2="10914.4">
  </linearGradient>
  <linearGradient id="id249" gradientUnits="userSpaceOnUse" xlink:href="#id45" x1="6543.94" y1="11331.5" x2="4316.23" y2="15269.4">
  </linearGradient>
  <linearGradient id="id250" gradientUnits="userSpaceOnUse" xlink:href="#id45" x1="20275.7" y1="14149.1" x2="20034" y2="14753.5">
  </linearGradient>
  <linearGradient id="id251" gradientUnits="userSpaceOnUse" xlink:href="#id44" x1="16719.9" y1="11765.1" x2="18120.6" y2="13233.3">
  </linearGradient>
  <linearGradient id="id252" gradientUnits="userSpaceOnUse" xlink:href="#id224" x1="6351.49" y1="4375.51" x2="3622.11" y2="7679.44">
  </linearGradient>
  <linearGradient id="id253" gradientUnits="userSpaceOnUse" xlink:href="#id54" x1="7790.25" y1="11737.9" x2="6746.66" y2="10810.2">
  </linearGradient>
  <linearGradient id="id254" gradientUnits="userSpaceOnUse" xlink:href="#id45" x1="15598" y1="8556.82" x2="16978.3" y2="7636.61">
  </linearGradient>
  <linearGradient id="id255" gradientUnits="userSpaceOnUse" xlink:href="#id45" x1="16173.8" y1="8480.15" x2="17324" y2="7713.3">
  </linearGradient>
  <linearGradient id="id256" gradientUnits="userSpaceOnUse" xlink:href="#id44" x1="16910" y1="9733.25" x2="16572.3" y2="9967.06">
  </linearGradient>
 </defs>
 <g id="Layer_x0020_1">
  <metadata id="CorelCorpID_0Corel-Layer"/>
  <polygon class="fil0" points="19073,4620 19073,86 24653,3331 24653,7842 "/>
  <path class="fil1" d="M21914 2773c-90,0 -172,21 -244,62 -179,103 -278,326 -278,628 0,659 464,1462 1034,1792 261,151 503,177 683,73 179,-103 278,-326 278,-628 0,-659 -464,-1462 -1035,-1792 -156,-90 -306,-136 -439,-136zm952 2766c-159,0 -334,-52 -513,-156 -611,-353 -1108,-1214 -1108,-1920 0,-357 125,-625 352,-756 227,-131 522,-105 831,73 611,353 1108,1214 1108,1920 0,357 -125,625 -352,756 -95,55 -202,82 -317,82z"/>
  <path class="fil2" d="M20589 1535c-90,0 -172,21 -244,62 -179,103 -278,326 -278,628 0,659 464,1462 1034,1792 261,151 504,177 683,73 179,-103 278,-326 278,-628 0,-659 -464,-1462 -1034,-1792 -156,-90 -305,-136 -439,-136zm952 2765c-159,0 -334,-52 -513,-156 -611,-353 -1108,-1214 -1108,-1920 0,-357 125,-625 352,-756 227,-131 522,-105 830,73 611,353 1108,1214 1108,1920 0,357 -125,625 -352,756 -95,55 -202,82 -317,82z"/>
  <path class="fil3" d="M20769 2991c-90,0 -172,21 -244,62 -179,103 -278,326 -278,628 0,659 464,1462 1035,1792 261,151 503,177 682,73 179,-103 278,-326 278,-628 0,-659 -464,-1462 -1034,-1792 -156,-90 -306,-136 -439,-136zm952 2766c-159,0 -334,-52 -513,-156 -611,-353 -1108,-1214 -1108,-1920 0,-357 125,-625 352,-756 227,-131 522,-105 831,74 611,353 1108,1214 1108,1920 0,357 -125,625 -352,756 -95,55 -202,82 -317,82z"/>
  <path class="fil4" d="M19451 4241c-19,0 -35,-16 -35,-35l0 -3293c0,-19 16,-35 35,-35 19,0 35,16 35,35l0 3293c0,19 -16,35 -35,35z"/>
  <path class="fil5" d="M19858 4476l0 0c-19,0 -35,-16 -35,-35l0 -3293c0,-19 16,-35 35,-35 19,0 35,16 35,35l0 3293c0,19 -16,35 -35,35z"/>
  <path class="fil6" d="M20265 4711c-19,0 -35,-16 -35,-35l0 -3293c0,-19 16,-35 35,-35 19,0 35,16 35,35l0 3293c0,19 -15,35 -35,35z"/>
  <path class="fil7" d="M20673 4947c-19,0 -35,-16 -35,-35l0 -3293c0,-19 16,-35 35,-35 19,0 35,16 35,35l0 3293c0,19 -16,35 -35,35z"/>
  <path class="fil8" d="M21080 5182c-19,0 -35,-16 -35,-35l0 -3293c0,-19 16,-35 35,-35 19,0 35,16 35,35l0 3293c0,19 -16,35 -35,35z"/>
  <path class="fil9" d="M21483 5415c-19,0 -35,-16 -35,-35l0 -3293c0,-19 16,-35 35,-35 19,0 35,16 35,35l0 3293c0,19 -16,35 -35,35z"/>
  <path class="fil10" d="M21895 5652c-19,0 -35,-16 -35,-35l0 -3293c0,-19 16,-35 35,-35 19,0 35,16 35,35l0 3293c0,19 -16,35 -35,35z"/>
  <path class="fil11" d="M22303 5888c-19,0 -35,-16 -35,-35l0 -3293c0,-19 16,-35 35,-35 19,0 35,16 35,35l0 3293c0,19 -15,35 -35,35z"/>
  <path class="fil12" d="M22710 6123c-19,0 -35,-16 -35,-35l0 -3293c0,-19 16,-35 35,-35 19,0 35,16 35,35l0 3293c0,19 -16,35 -35,35z"/>
  <path class="fil13" d="M23053 6344c-19,0 -35,-16 -35,-35l0 -3293c0,-19 15,-35 35,-35 19,0 35,16 35,35l0 3293c0,19 -15,35 -35,35z"/>
  <path class="fil14" d="M23461 6579l0 0c-19,0 -35,-16 -35,-35l0 -3293c0,-19 16,-35 35,-35 19,0 35,16 35,35l0 3293c0,19 -16,35 -35,35z"/>
  <path class="fil15" d="M23868 6814c-19,0 -35,-16 -35,-35l0 -3293c0,-19 16,-35 35,-35 19,0 35,16 35,35l0 3293c0,19 -16,35 -35,35z"/>
  <path class="fil16" d="M24275 7050c-19,0 -35,-16 -35,-35l0 -3293c0,-19 16,-35 35,-35 19,0 35,16 35,35l0 3293c0,19 -16,35 -35,35z"/>
  <polygon class="fil17" points="19180,-6 19181,-6 23523,2520 23523,2520 23523,2520 23777,2667 24031,2815 24031,2815 24031,2815 24207,2917 24207,2917 24207,2917 24461,3065 24461,3065 24461,3065 24714,3212 24714,3212 24714,3212 24761,3239 24653,3331 19073,86 "/>
  <polygon class="fil18" points="24761,3239 24761,7741 24653,7842 24653,3331 "/>
  <path class="fil19" d="M10669 5522l0 0 -9 0c-11,-1 -22,-2 -33,-3l0 0 -2 0c-3,-1 -7,-1 -10,-2l0 0 0 0c-8,-2 -17,-3 -25,-5l0 0 0 0c-2,0 -4,-1 -5,-1l0 0 -1 0c-2,-1 -4,-1 -6,-2l0 0 0 0c-5,-2 -11,-3 -16,-5l0 0 -1 0c-1,0 -3,-1 -4,-1l0 0 -1 0c-2,-1 -3,-1 -5,-2l0 0 0 0c-7,-3 -14,-6 -21,-9l0 0 0 0 -3 -2 0 0 -1 0 -3 -1 0 0 -1 0c-7,-3 -14,-7 -21,-11l0 0 0 0c-3,-2 -6,-3 -9,-5l0 0 0 0c-3,-2 -6,-4 -9,-5l0 0 0 0c-4,-2 -7,-5 -11,-7l0 0 0 0c-2,-2 -5,-3 -7,-5l0 0 -1 0c-2,-1 -3,-2 -5,-4l0 0 0 0c-6,-5 -12,-9 -18,-14l0 0 0 0 -2 -1 0 0 0 0c-13,-12 -26,-24 -37,-37l0 0 0 0 -1 -2 0 0 0 0c-2,-3 -5,-6 -7,-9l0 0 0 0c-2,-2 -3,-4 -5,-7l0 -1 0 0 -1 -2 0 0 0 0c-1,-2 -2,-3 -4,-5l0 -1 0 0c-2,-2 -3,-5 -5,-7l0 0 0 0c-1,-2 -2,-4 -4,-5l0 0 0 0c-2,-3 -4,-6 -5,-8l0 -1 0 0c-2,-3 -3,-6 -5,-9l0 0 0 0c-7,-11 -12,-23 -18,-35l0 -1 0 0c-2,-6 -5,-12 -7,-18l0 0 0 0 -2 -5 0 -1 0 0c-1,-2 -1,-3 -2,-5l0 -1 0 0c-1,-2 -1,-3 -2,-5l0 -1 0 0c-1,-2 -1,-3 -2,-5l0 0 0 0c-1,-4 -2,-9 -4,-13l0 -1 0 0c-1,-2 -1,-4 -1,-6l0 -1 0 0c-1,-2 -1,-5 -2,-7l0 -2 0 0c-1,-6 -2,-13 -3,-19l0 -3 0 0c-1,-4 -1,-8 -1,-13l0 -4 0 0c-1,-9 -1,-19 -1,-29l0 -6c0,-5 0,-10 0,-16 48,-1053 869,-669 1220,-2093 5,-21 10,-41 16,-62l0 0 0 -1 2 -6 0 0 0 -1 2 -7 0 0 0 0 2 -7 0 0 0 0c6,-23 12,-46 18,-68l0 0 0 0c2,-6 3,-13 5,-20l0 0 0 -1 2 -6 0 0 0 0c2,-7 4,-13 5,-20 7,-24 13,-47 20,-70l0 0 0 -1c1,-4 2,-8 3,-12l0 0 0 -1 3 -12 0 0 0 0c1,-4 2,-8 4,-12l0 0 0 0c5,-16 10,-32 14,-48l0 0 0 0c2,-8 5,-16 7,-23l0 0 0 0 5 -17 0 0 0 0 2 -5 0 0 0 0c2,-8 5,-15 7,-23l0 0 0 0c4,-13 8,-26 13,-39l0 0 0 0 2 -5 0 0 0 0 2 -5 0 0 0 0 2 -5 0 0 0 -1c8,-26 17,-50 25,-75l0 0 0 0 2 -5 0 0 0 0c4,-10 7,-20 11,-31l0 0 0 -1 2 -5 0 0 0 0c10,-27 19,-53 29,-79l0 0 0 0c18,-49 37,-96 56,-140l0 0 0 0c2,-4 4,-8 5,-12l0 0 0 0c2,-4 3,-8 5,-12l0 0 0 0c2,-4 4,-8 5,-12l0 0 0 0c7,-16 14,-33 22,-48l0 0 0 0c4,-8 7,-16 11,-23l0 0 0 0c17,-37 35,-72 52,-106l0 0 0 0c5,-9 9,-18 14,-27l0 0 0 0 2 -3 0 0 0 0c9,-17 18,-33 27,-49l0 0 0 0c4,-7 8,-14 12,-21l0 0 0 0c7,-12 14,-24 22,-36l0 0 0 0c3,-5 6,-10 9,-14l0 0 0 0c9,-14 18,-28 27,-41l0 0 0 0c1,-2 2,-3 3,-5l0 0 0 0 3 -5 0 0 0 0c8,-12 17,-24 25,-36l0 0 0 0c2,-2 3,-5 5,-7l0 0 0 0c11,-15 23,-30 34,-45l0 0 0 0c2,-3 5,-6 7,-9l0 0 0 0c9,-12 19,-23 29,-34l0 0 0 0c4,-5 8,-10 13,-14l0 0 0 0c7,-8 14,-16 22,-23l0 0 0 0 2 -2 0 0 0 0 2 -2 0 0 0 0 2 -2 0 0 0 0 1 -1 0 0 0 0c10,-10 19,-19 29,-28l0 0 0 0 2 -2 0 0 0 0c7,-7 14,-13 21,-20l0 0 0 0c5,-4 10,-8 14,-12l0 0 0 0c3,-3 7,-6 10,-9l0 0 0 0c9,-7 18,-14 27,-21l0 0 0 0c2,-2 5,-4 7,-5l0 0 0 0c2,-2 5,-4 7,-5l0 0 0 0c11,-8 22,-16 34,-23l0 0 0 0c2,-1 3,-2 5,-3l0 0 0 0c8,-5 16,-10 23,-14l0 0 0 0c4,-2 8,-5 12,-7l0 0 0 0c8,-4 15,-8 23,-12l0 0 0 0 3 -2 0 0 0 0 3 -2 0 0 0 0c1,-1 2,-1 3,-2l0 0 0 0 3 -2 0 0 0 0c1,-1 2,-1 4,-2l0 0 0 0c7,-3 13,-6 20,-9l0 0 0 0c4,-2 8,-4 12,-5l0 0 0 0c3,-1 6,-2 9,-3l0 0 0 0c10,-4 19,-7 29,-11l0 0 0 0c2,-1 4,-1 5,-2l0 0 0 0c12,-4 24,-8 35,-11l1 0 0 0c2,-1 4,-1 6,-2l1 0 0 0c10,-3 20,-5 30,-7l1 0 0 0c3,-1 6,-1 8,-2l1 0 0 0c3,-1 6,-1 9,-2l0 0 0 0c3,-1 7,-1 10,-2l0 0 0 0c4,-1 7,-1 11,-2l2 0 0 0c4,-1 8,-1 12,-2l0 0 0 0c5,-1 10,-1 16,-2l1 0 0 0c7,-1 14,-1 21,-2l1 0 0 0c16,-1 33,-2 49,-2 24,0 47,1 71,3l0 0 3 0c5,0 10,1 15,2l0 0 3 0c9,1 17,2 26,3l0 0 1 0c4,1 7,1 11,2l0 0 1 0c3,1 7,1 10,2l0 0 1 0c3,1 7,1 10,2 6,1 12,2 18,3l0 0 1 0c3,1 5,1 8,2l0 0 0 0c5,1 10,2 16,3l0 0 1 0c14,3 28,7 42,11l0 0 1 0 6 2 0 0 0 0c14,4 28,8 43,13l0 0 0 0 5 2 0 0 0 0 5 2 0 0 1 0c11,3 21,7 32,11l0 0 0 0 5 2 0 0 0 0c7,2 13,5 20,7l0 0 0 0c9,3 19,7 28,11l0 0 0 0 9 3 0 0 0 0 9 3 0 0 0 0 9 3 0 0 0 0 9 4 0 0 0 0c7,3 14,6 21,9l0 0 0 0c4,2 8,4 13,5l4 2 0 0 1 0c4,2 8,4 12,5l0 0 0 0c5,2 11,5 16,7l0 0 0 0c8,4 16,7 23,11l0 0 0 0 3 2 0 0 0 0c10,5 20,9 30,14l0 0 0 0 3 2 0 0 0 0c23,11 45,22 68,34l0 0 0 0 3 2 0 0 0 0 3 2 0 0 0 0c13,6 25,13 38,20l0 0 0 0c9,5 18,10 27,14l0 0 0 0c8,4 16,8 23,13l0 0 0 0c49,27 98,54 147,82 284,161 559,321 806,321 223,0 422,-130 585,-508 3,-7 6,-14 9,-21l0 0 0 0c2,-5 5,-11 7,-16l0 0 0 0c2,-5 5,-11 7,-16l0 0 0 0c2,-5 5,-11 7,-16l0 0 0 0c3,-7 6,-13 9,-20l0 0 0 0c4,-9 8,-18 13,-27l0 0 0 0 2 -4 0 0 0 0 2 -3 0 0 0 -1c7,-14 13,-28 20,-41l0 0 0 0 2 -4 0 0 0 0 2 -4 0 0 0 0 2 -3 0 0 0 0 2 -3 0 0 0 0 2 -3 0 0 0 0 2 -3 0 0 0 0 2 -3 0 0 0 0 2 -3 0 0 0 0 2 -3 0 0 0 0c7,-14 14,-28 21,-41l0 0 0 0c4,-7 7,-13 11,-20l0 0 0 0 2 -3 0 0 0 0c3,-5 6,-11 9,-16l0 0 0 0c5,-10 11,-19 16,-28l0 0 0 0 5 -9 0 0 0 0c2,-3 3,-6 5,-9l0 0 0 0c2,-3 3,-6 5,-9l0 0 0 0c7,-11 13,-22 20,-32l0 0 0 0 3 -5 0 0 0 0c11,-17 22,-33 32,-48l0 0 0 0c3,-4 6,-8 9,-12l0 0 0 0c2,-2 3,-5 5,-7l0 0 0 0c5,-7 11,-14 16,-21l0 0 0 0c2,-3 5,-6 7,-9l0 0 0 0c2,-3 5,-6 7,-9l0 0 0 0c2,-3 5,-6 7,-9l0 0 0 0c4,-4 7,-8 11,-13l0 0 0 0 2 -2 0 0 0 0c5,-6 11,-12 16,-18l0 0 0 0c6,-6 12,-12 18,-18l0 0 0 0 1 -1 0 0 0 0 1 -1 0 0 0 0 2 -1 0 0 0 0 2 -2 0 0 0 0 2 -2 0 0 0 0c5,-5 11,-10 16,-14l0 0 0 0c4,-3 7,-6 11,-9l0 0 0 0c3,-2 6,-5 9,-7l0 0 0 0c2,-2 5,-4 7,-5l0 0 0 0c2,-1 3,-2 5,-4l0 0 0 0c2,-1 3,-2 5,-3l1 0 0 0c2,-1 3,-2 5,-3l1 0 0 0c2,-1 3,-2 5,-3l0 0 0 0c14,-9 28,-16 41,-21l0 0 0 0c1,-1 3,-1 4,-2l1 0 0 0c3,-1 6,-2 9,-3l0 0 0 0c2,-1 4,-1 5,-2l0 0 0 0c4,-1 9,-3 13,-4l1 0 0 0c2,-1 5,-1 7,-1l0 0 0 0c3,-1 7,-1 10,-2l0 0 0 0c8,-1 17,-2 25,-2 8,0 16,1 24,2l0 0 1 0c6,1 13,2 19,4l0 0 0 0c2,0 3,1 5,1l0 0 1 0c2,1 4,1 6,2l0 0 0 0c5,2 10,3 14,5l0 0 1 0c10,4 19,9 28,14l0 0 1 0 3 2 0 0 0 0c10,6 20,13 30,21l0 0 0 0c17,14 34,30 50,48l0 0 0 0c6,7 12,14 18,21l0 0 0 0c4,5 8,11 12,16l0 0 0 0c3,4 6,8 9,12l0 0 0 0c10,15 21,30 30,47l0 0 0 0c2,3 4,6 5,9l0 0 0 0c5,8 10,16 14,25l0 0 0 0c17,30 33,63 48,97l0 0 0 0c5,11 10,21 14,32l0 0 0 0c12,29 24,59 36,90l0 0 0 0c2,5 4,10 5,14l0 0 0 0c7,18 13,37 20,56l0 0 0 0 2 5 0 0 0 0c4,11 7,21 11,32l0 0 0 0 2 5 0 0 0 0 2 5 0 0 0 0c6,19 12,38 18,57l0 0 0 0c5,16 10,32 14,48l0 0 0 0c4,13 7,25 11,38l0 0 0 0c6,22 12,44 18,66l0 0 0 0c9,36 18,72 27,108l0 0 0 0c4,18 8,36 13,54l0 0 0 0c17,74 32,146 45,214l0 0 0 0c2,13 5,25 7,38l0 0 0 0c8,42 15,82 21,119 1,5 2,10 2,14l0 2 0 0c1,5 1,10 2,15l0 1 0 0c2,19 2,39 0,58l0 0 0 1c-1,9 -2,19 -3,28l0 0 0 1c-1,3 -1,6 -2,10l0 0 0 0c-1,5 -2,11 -3,16l0 0 0 1c-1,2 -1,4 -2,6l0 0 0 1c-1,2 -1,4 -2,6l0 0 0 0c-4,15 -10,30 -16,45l0 0 0 0c-8,19 -18,36 -29,54l0 0 0 0c-4,6 -8,12 -12,18l0 0 0 0c-4,5 -8,11 -12,16l0 0 0 0c-10,13 -22,25 -34,36l0 0 0 0c-16,15 -33,28 -52,40l0 0 0 0c-2,1 -4,2 -5,3l0 0 0 0c-2,1 -4,3 -7,4l-4177 2412 -477 275 0 0 0 0 -345 199c-2,1 -5,3 -7,4l0 0 0 0 -3 2 -1 0 0 0 -3 1 -1 0 0 0 -3 1 -1 0 0 0 -3 1 -1 0 0 0 -3 1 -1 0 0 0 -3 1 -1 0 0 0 -3 1 0 0 0 0 -3 2 0 0 0 0c-6,3 -12,5 -17,7l-1 0 0 0 -4 2 -1 0 0 0 -4 1 -2 0 0 1 -4 1 -2 0 0 1 -4 1 -2 0 0 1 -4 1 -1 0 0 0c-2,0 -3,1 -5,1l0 0 0 0c-5,1 -9,2 -14,3l-3 0 0 1c-2,0 -4,1 -6,1l-3 0 0 1c-2,0 -4,1 -6,1l-3 0 0 1c-2,0 -5,1 -7,1l-2 0 0 0c-4,1 -8,1 -12,2l-4 0 0 0c-6,1 -11,1 -17,1l-10 0 0 0c-3,0 -6,0 -9,0 -4,0 -7,0 -11,0z"/>
  <path class="fil20" d="M2547 6578c-1,0 -1,0 -2,0l-5 -2045 -1545 897c-74,-381 65,-791 527,-1115 510,-359 875,-479 1165,-479 522,0 804,389 1265,479 48,9 92,14 131,14 1,0 2,0 3,0l10 1613 -696 402c-284,164 -576,235 -854,235zm-147 -7l0 0 -2 -1814 -938 545 938 -545 2 1814zm1782 -679l-7 -1573 0 0 7 1573 0 0zm1615 -933l-2 -1963 0 0 2 1963 0 0zm145 -84l-5 -1848c440,139 491,603 950,632 15,1 31,1 47,1 692,0 2581,-849 2581,-849l-3573 2063zm-1297 -1368l0 0 882 -513 0 0 -882 513zm216 -268c71,-60 158,-112 264,-153l-264 153z"/>
  <path class="fil21" d="M10236 21722c-162,0 -324,-42 -469,-127l-9302 -5464c-399,-232 -541,-685 -426,-1075 63,-217 207,-414 429,-542l15192 -8609c144,-83 305,-124 466,-124 162,0 324,42 469,126l9328 5476c221,129 363,325 426,540 116,392 -28,848 -431,1079l-15218 8597c-144,83 -305,124 -465,124zm-6273 -4071l5804 3409c145,84 307,127 469,127 160,0 321,-41 465,-124l15218 -8597c224,-128 367,-326 431,-543 -63,-215 -205,-411 -426,-540l-9328 -5476c-145,-84 -307,-126 -469,-126 -161,0 -322,41 -466,124l-15192 8609c-223,128 -366,325 -429,542 63,215 206,411 426,539l2436 1431 57 82 976 558 29 -17z"/>
  <path class="fil22" d="M10236 21186c-162,0 -324,-42 -469,-127l-5804 -3409 1173 -677 0 772c0,36 29,65 66,65 36,0 66,-29 66,-65l0 -848 519 -300 610 352 0 1504c0,36 29,66 66,66 36,0 66,-29 66,-66l0 -1504 1141 -659 891 -514 16 -9 1822 -1052 0 31c0,36 29,66 66,66 36,0 66,-29 66,-66l0 -106 697 -402 432 -250 0 1467c0,36 29,66 66,66 36,0 66,-29 66,-66l0 -1543 293 -169 110 64 0 -121 -6 -3 6 -3 -1719 -993 -1477 853c-86,-227 -223,-455 -437,-649 128,60 272,95 432,95 46,0 92,-3 141,-9l3945 -2314c480,-261 408,-725 -57,-1012l-485 -300 -4961 1922c0,0 151,887 655,1385 -116,-64 -246,-119 -392,-165l-892 -834 0 0 0 0 -467 102 0 172 -11 2 0 0 -279 61 -188 41 0 247c0,21 2,41 5,61 17,108 80,204 174,263l88 55c-1941,712 -4486,2755 -4486,2755l1120 1609 -2436 -1431c-221,-128 -363,-324 -426,-539 63,-217 207,-414 429,-542l15192 -8609c144,-83 305,-124 466,-124 162,0 324,42 469,126l9328 5476c221,129 363,325 426,540 -64,217 -207,415 -431,543l-15218 8597c-144,83 -305,124 -465,124z"/>
  <path class="fil23" d="M976 15015c58,165 173,304 328,394l8635 5076c228,133 513,134 743,2l14400 -8127c156,-90 273,-230 331,-397 -58,-167 -171,-303 -328,-395l-8658 -5087c-229,-133 -514,-134 -744,-2l-14375 8138c-157,90 -273,230 -331,397zm9336 5811c-171,0 -342,-44 -494,-133l-8635 -5076c-219,-127 -378,-329 -449,-568l-10 -34 10 -34c71,-241 231,-444 452,-572l14376 -8138c305,-175 682,-174 985,2l8658 5087c219,127 378,330 449,569l10 34 -10 34c-71,242 -232,445 -454,572l-14400 8127c-151,87 -320,130 -489,130z"/>
  <path class="fil24" d="M16898 13299l2365 1866 831 65c482,38 928,-254 1087,-710l337 -965 1576 -1124 -552 -1326 -5644 2193z"/>
  <path class="fil25" d="M17784 4091l-150 -329 255 79 70 139 174 96c0,0 212,171 507,-4 121,-72 256,-202 396,-427l0 0 259 -101 38 -246 152 0 119 232 389 200c0,0 461,1387 287,2282l29 186 76 -64 0 110 -244 93 -127 -238 -12 -406 -974 0 -168 -139 126 -927 168 -508c0,0 -30,194 -174,243 -248,83 -659,250 -986,-214l-208 -56z"/>
  <polygon class="fil26" points="19119,8320 19119,9196 18359,9196 18928,8952 18933,8877 18974,8320 "/>
  <polygon class="fil27" points="19119,8877 19119,9196 18359,9196 18928,8952 18933,8877 "/>
  <polygon class="fil28" points="20023,8320 20023,9196 19264,9196 19832,8952 19837,8877 19878,8320 "/>
  <path class="fil29" d="M19992 3730l84 1633 87 180 -162 151 -974 0 -168 -139 139 -1027 39 -884 259 -100c0,0 172,450 308,-14l389 200z"/>
  <polygon class="fil27" points="18812,8407 19026,5693 20001,5693 20187,8407 19781,8564 19499,5857 19218,8564 "/>
  <polygon class="fil27" points="20023,8877 20023,9196 19264,9196 19832,8952 19837,8877 "/>
  <g style="clip-path:url(#id0)">
   <image transform="matrix(432.582 0 0 263.186 -5.70012E+006 -2.8455E+006)" x="13194" y="10847" width="14" height="14" xlink:href="p1e1f700ac2s1nlo1o35hnu1nq84_Images\p1e1f700ac2s1nlo1o35hnu1nq84_ImgID1.png"/>
  </g>
  <polygon class="fil30" points="11599,7811 11599,7325 12862,8054 12437,8299 "/>
  <path class="fil31" d="M12862 8964l0 -910 -4209 2430 0 1458 3734 -2156c294,-170 475,-483 475,-822z"/>
  <path class="fil32" d="M7850 11479l803 464 0 -1458 -1263 -729 0 927c0,329 175,632 460,796z"/>
  <polygon class="fil33" points="7390,9755 11599,7325 11599,7811 7811,9998 "/>
  <polygon class="fil34" points="12437,8299 11599,7811 7811,9998 8653,10484 "/>
  <path class="fil35" d="M11599 8504c0,0 -339,-949 -1047,-655 -708,294 185,1024 -779,530 -964,-494 -738,1582 -738,1582l2564 -1458z"/>
  <path class="fil36" d="M11910 8327c0,0 -37,-1248 -606,-1185 -570,63 211,2007 -584,1176 -795,-830 -571,950 -1365,732 -794,-218 -1316,-1469 -1365,-121 -49,1348 659,1252 659,1252l3261 -1854z"/>
  <path class="fil37" d="M3935 17668l-976 -558 -57 -82 -1120 -1609c0,0 2545,-2043 4486,-2755l924 580 178 778 90 392 0 0 3 14 -2718 1569 11 6 -11 7 0 121 116 -67 278 160 0 751 -1173 677 -29 17zm1332 -769l0 -599 519 300 -519 300zm2525 -2662l-208 -1255 -216 -202 301 189 271 1183 -148 85zm479 -276l-208 -1255 -226 -211c146,45 277,101 392,165 126,69 235,148 329,233 214,194 351,422 437,649l-725 419z"/>
  <polygon class="fil38" points="5201,17811 6150,18935 7608,19791 12525,16677 12148,16479 11788,15456 11657,15456 11868,16301 10932,15769 10528,14747 10397,14747 10769,15866 6462,18520 "/>
  <polygon class="fil39" points="15447,5245 15441,8107 19672,10550 19672,7691 "/>
  <polygon class="fil40" points="21082,6877 21079,9758 19668,10550 19668,7691 "/>
  <polygon class="fil41" points="14809,5064 19512,7787 21082,6881 16372,4161 "/>
  <polygon class="fil42" points="14809,4885 19512,7608 21082,6702 16372,3983 "/>
  <polygon class="fil43" points="14809,4885 14809,5064 19512,7787 19512,7608 "/>
  <polygon class="fil44" points="21082,6702 21082,6881 19512,7787 19512,7608 "/>
  <path class="fil45" d="M17409 9919c0,183 -495,332 -1105,332 -610,0 -1105,-149 -1105,-332 0,-183 495,-332 1105,-332 610,0 1105,149 1105,332z"/>
  <polygon class="fil46" points="17072,9915 16704,9919 16687,9692 16518,7486 16511,7389 16441,6473 16425,6275 16474,6300 16729,6431 16781,6458 16791,7507 16813,9740 "/>
  <polygon class="fil47" points="16735,6405 16729,6431 16511,7389 16489,7482 16023,9529 16112,9739 16304,9919 15973,9916 15842,9577 16249,7465 16441,6473 16474,6300 16479,6274 "/>
  <path class="fil48" d="M17177 7055l33 232c9,63 -12,128 -56,174l-74 -33 -19 -128 115 -246z"/>
  <path class="fil49" d="M17010 3575l198 685c0,0 -139,-50 -358,-35 -218,15 -17,-473 -17,-473l177 -176z"/>
  <path class="fil50" d="M17157 5045l-184 622c-38,129 -47,265 -26,398l87 547c0,0 -157,916 -267,906 -273,-25 -452,-99 -1074,-16 0,0 248,-1141 595,-1486 396,-395 -55,-934 -55,-934l361 -318 562 280z"/>
  <path class="fil51" d="M17224 5133l-203 831 187 1316 -332 -1239 102 -1004 75 -38c91,-47 195,35 171,135z"/>
  <path class="fil52" d="M17206 5207l-268 224 40 -395 -21 -419 183 145c89,70 129,186 102,296l-36 149z"/>
  <path class="fil53" d="M17113 3722c0,0 -82,77 -142,62 0,0 -19,443 113,494l-71 11c0,0 -137,-118 -100,-342 0,0 -250,-23 -37,224 0,0 670,891 38,1061 0,0 -52,-198 -434,-77 -382,121 -976,128 -394,-682 434,-604 410,-1028 981,-945 0,0 127,31 47,194z"/>
  <polygon class="fil27" points="15869,9438 16023,9529 16112,9739 16304,9919 15973,9916 15842,9577 "/>
  <polygon class="fil27" points="17072,9915 16704,9919 16687,9692 16813,9740 "/>
  <polygon class="fil54" points="22649,8998 17945,11722 16376,10815 21086,8096 "/>
  <polygon class="fil55" points="22649,8820 17945,11543 16376,10637 21086,7917 "/>
  <polygon class="fil56" points="22649,8820 22649,8998 17945,11722 17945,11543 "/>
  <polygon class="fil57" points="16376,10637 16376,10815 17945,11722 17945,11543 "/>
  <polygon class="fil58" points="16895,11105 16898,13299 17945,13893 17945,11722 "/>
  <polygon class="fil59" points="22649,8998 22649,11179 17946,13893 17946,11722 18052,11660 22542,9060 "/>
  <polygon class="fil60" points="22542,9060 22542,11102 18052,13693 18052,11660 "/>
  <polygon class="fil61" points="22542,9060 22542,11105 20773,10084 "/>
  <polygon class="fil62" points="18055,12372 18052,12557 21678,10462 21678,11601 21822,11519 21822,10195 "/>
  <polygon class="fil63" points="21680,11606 20689,11033 21678,10462 "/>
  <polygon class="fil64" points="21822,10195 21185,9825 18052,11660 18055,12372 "/>
  <path class="fil65" d="M17445 9814l0 500c0,114 61,220 160,277l9 5c85,49 188,50 274,2l113 -63c46,-26 48,-91 3,-119l-125 -78c-94,-59 -151,-162 -150,-272l1 -418 -286 165z"/>
  <path class="fil66" d="M17483 9783l-10 501c0,114 34,213 133,271l9 5c85,49 188,50 274,2l113 -63c46,-26 48,-91 3,-119l-125 -78c-94,-59 -151,-162 -150,-273l1 -417 -248 171z"/>
  <polygon class="fil67" points="18493,8237 18404,8177 16696,9163 16786,9223 "/>
  <polygon class="fil68" points="16786,10537 16786,9223 18493,8237 18493,9551 "/>
  <polygon class="fil69" points="16696,10477 16786,10537 16786,9223 16696,9163 "/>
  <polygon class="fil70" points="16837,10351 16837,9233 18442,8306 18442,9424 "/>
  <polygon class="fil71" points="18699,10251 17653,10855 18161,11148 19207,10543 "/>
  <polygon class="fil72" points="19207,10543 19207,10602 18161,11206 18161,11148 "/>
  <polygon class="fil73" points="17653,10855 17653,10914 18161,11206 18161,11148 "/>
  <polygon class="fil74" points="18695,10697 18395,10869 18450,10904 18750,10732 "/>
  <polygon class="fil75" points="18150,10920 18021,10995 18073,11024 18202,10950 "/>
  <polygon class="fil76" points="18051,10896 17946,10955 17997,10985 18103,10926 "/>
  <polygon class="fil77" points="18770,10308 18665,10367 18716,10397 18821,10338 "/>
  <polygon class="fil78" points="18901,10394 18796,10453 18847,10483 18953,10424 "/>
  <polygon class="fil79" points="18976,10439 18831,10521 18883,10551 19030,10467 "/>
  <polygon class="fil80" points="17951,10871 17873,10915 17925,10945 18003,10901 "/>
  <polygon class="fil81" points="18176,11004 18229,10973 18281,11004 18229,11034 "/>
  <polygon class="fil82" points="18241,10965 18294,10935 18347,10965 18294,10996 "/>
  <polygon class="fil83" points="18307,10926 18360,10895 18413,10926 18360,10956 "/>
  <polygon class="fil84" points="18109,11043 18161,11013 18214,11043 18161,11073 "/>
  <polygon class="fil85" points="17801,10875 17854,10845 17907,10875 17854,10906 "/>
  <polygon class="fil86" points="18063,10886 18116,10855 18169,10886 18116,10916 "/>
  <polygon class="fil87" points="17965,10863 18018,10833 18070,10863 18018,10894 "/>
  <polygon class="fil88" points="18230,10871 18283,10841 18336,10871 18283,10902 "/>
  <polygon class="fil89" points="18295,10833 18348,10802 18401,10833 18348,10863 "/>
  <polygon class="fil90" points="18362,10793 18414,10763 18467,10793 18414,10824 "/>
  <polygon class="fil91" points="18163,10911 18216,10880 18268,10911 18216,10941 "/>
  <polygon class="fil92" points="18494,10716 18546,10685 18599,10716 18546,10746 "/>
  <polygon class="fil93" points="18559,10677 18612,10647 18665,10677 18612,10708 "/>
  <polygon class="fil94" points="18625,10638 18678,10607 18731,10638 18678,10668 "/>
  <polygon class="fil95" points="18426,10755 18479,10725 18532,10755 18479,10785 "/>
  <polygon class="fil96" points="18758,10561 18810,10531 18863,10561 18810,10592 "/>
  <polygon class="fil97" points="18690,10600 18743,10570 18796,10600 18743,10631 "/>
  <polygon class="fil98" points="18791,10641 18844,10611 18897,10641 18844,10671 "/>
  <polygon class="fil99" points="18724,10680 18777,10650 18829,10680 18777,10711 "/>
  <polygon class="fil100" points="18198,10805 18251,10775 18303,10805 18251,10836 "/>
  <polygon class="fil101" points="18263,10767 18316,10736 18369,10767 18316,10797 "/>
  <polygon class="fil102" points="18329,10727 18382,10697 18435,10727 18382,10758 "/>
  <polygon class="fil103" points="18131,10845 18183,10814 18236,10845 18183,10875 "/>
  <polygon class="fil104" points="18462,10650 18514,10619 18567,10650 18514,10680 "/>
  <polygon class="fil105" points="18527,10611 18580,10581 18632,10611 18580,10642 "/>
  <polygon class="fil106" points="18593,10572 18646,10541 18698,10572 18646,10602 "/>
  <polygon class="fil107" points="18394,10689 18447,10659 18500,10689 18447,10719 "/>
  <polygon class="fil108" points="18725,10495 18778,10465 18831,10495 18778,10526 "/>
  <polygon class="fil109" points="18658,10534 18711,10504 18763,10534 18711,10565 "/>
  <polygon class="fil110" points="18098,10786 18150,10755 18203,10786 18150,10816 "/>
  <polygon class="fil111" points="18163,10747 18216,10717 18268,10747 18216,10778 "/>
  <polygon class="fil112" points="18229,10708 18282,10677 18334,10708 18282,10738 "/>
  <polygon class="fil113" points="18030,10825 18083,10795 18135,10825 18083,10855 "/>
  <polygon class="fil114" points="18361,10630 18414,10600 18466,10630 18414,10661 "/>
  <polygon class="fil115" points="18426,10592 18479,10561 18532,10592 18479,10622 "/>
  <polygon class="fil116" points="18492,10552 18545,10521 18598,10552 18545,10582 "/>
  <polygon class="fil117" points="18294,10669 18346,10639 18399,10669 18346,10700 "/>
  <polygon class="fil118" points="18625,10475 18677,10445 18730,10475 18677,10506 "/>
  <polygon class="fil119" points="18690,10437 18743,10406 18795,10437 18743,10467 "/>
  <polygon class="fil120" points="18756,10397 18809,10367 18862,10397 18809,10428 "/>
  <polygon class="fil121" points="18558,10515 18610,10484 18663,10515 18610,10545 "/>
  <polygon class="fil122" points="17867,10836 17920,10805 17973,10836 17920,10866 "/>
  <polygon class="fil123" points="18000,10757 18053,10727 18106,10757 18053,10788 "/>
  <polygon class="fil124" points="18066,10719 18118,10688 18171,10719 18118,10749 "/>
  <polygon class="fil125" points="18132,10679 18184,10649 18237,10679 18184,10709 "/>
  <polygon class="fil126" points="17933,10796 17986,10766 18039,10796 17986,10827 "/>
  <polygon class="fil127" points="18264,10602 18316,10571 18369,10602 18316,10632 "/>
  <polygon class="fil128" points="18329,10563 18382,10533 18435,10563 18382,10593 "/>
  <polygon class="fil129" points="18395,10523 18448,10493 18501,10523 18448,10554 "/>
  <polygon class="fil130" points="18197,10641 18249,10610 18302,10641 18249,10671 "/>
  <polygon class="fil131" points="18528,10447 18580,10416 18633,10447 18580,10477 "/>
  <polygon class="fil132" points="18593,10408 18646,10378 18699,10408 18646,10439 "/>
  <polygon class="fil133" points="18460,10486 18513,10456 18566,10486 18513,10517 "/>
  <polygon class="fil134" points="18945,10581 18885,10616 18915,10634 18976,10598 "/>
  <polygon class="fil135" points="18714,10277 18653,10313 18683,10330 18744,10295 "/>
  <polygon class="fil136" points="18567,10364 18506,10399 18537,10416 18598,10381 "/>
  <polygon class="fil137" points="18640,10318 18579,10354 18610,10371 18671,10336 "/>
  <polygon class="fil138" points="18488,10408 18427,10443 18457,10461 18518,10425 "/>
  <polygon class="fil139" points="18341,10494 18281,10529 18311,10547 18372,10512 "/>
  <polygon class="fil140" points="18415,10449 18354,10484 18384,10502 18445,10466 "/>
  <polygon class="fil141" points="18272,10538 18211,10573 18241,10591 18302,10556 "/>
  <polygon class="fil142" points="18125,10624 18064,10660 18095,10677 18156,10642 "/>
  <polygon class="fil143" points="18198,10579 18137,10614 18168,10632 18229,10597 "/>
  <polygon class="fil144" points="18046,10668 17985,10704 18015,10721 18076,10686 "/>
  <polygon class="fil145" points="17900,10755 17839,10790 17869,10808 17930,10772 "/>
  <polygon class="fil146" points="17816,10806 17755,10842 17786,10859 17847,10824 "/>
  <polygon class="fil147" points="17973,10710 17912,10745 17942,10762 18003,10727 "/>
  <polygon class="fil148" points="19018,10540 18957,10575 18987,10592 19048,10557 "/>
  <polygon class="fil149" points="18983,10519 18922,10554 18953,10572 19014,10537 "/>
  <polygon class="fil150" points="19091,10499 19030,10534 19060,10552 19121,10517 "/>
  <path class="fil151" d="M19403 10082c0,0 256,-353 427,0 0,0 527,648 1241,248l-13 1090c0,0 -1082,-466 -1277,-1143l-378 -196z"/>
  <path class="fil152" d="M20553 14721c-219,126 -577,126 -796,0 -122,-71 -176,-167 -162,-259 12,-73 65,-144 162,-200 219,-126 577,-126 796,0 96,56 150,127 162,200 15,93 -39,189 -162,259z"/>
  <path class="fil153" d="M20715 14462c-12,73 -65,144 -162,200 -219,126 -577,126 -796,0 -96,-56 -150,-127 -162,-200 12,-73 65,-144 162,-200 219,-126 577,-126 796,0 96,56 150,127 162,200z"/>
  <path class="fil53" d="M19231 13555l-448 79c-35,6 -41,54 -8,68l221 97c48,21 102,23 152,7l174 -59 31 189 41 0 10 -234c0,0 -159,-15 -173,-146z"/>
  <path class="fil154" d="M21027 12139l-1487 -512c-211,-73 -435,72 -456,294l69 976 74 684 26 52c28,56 90,84 151,70l2 -537 55 -965c0,-47 51,-76 92,-52l1143 636 518 -345 -186 -299z"/>
  <path class="fil155" d="M19688 14462c10,61 57,118 133,162 184,106 485,106 669,0 76,-44 123,-101 133,-162 -10,-61 -57,-118 -133,-162 -184,-107 -485,-107 -669,0 -76,44 -123,101 -133,162zm467 261c-125,0 -249,-27 -344,-82 -81,-47 -132,-110 -143,-178l0 -2 0 -2c10,-68 61,-131 143,-178 190,-110 499,-110 689,0 81,47 132,110 143,178l0 2 0 2c-11,67 -61,131 -143,178 -95,55 -220,82 -344,82z"/>
  <path class="fil156" d="M20155 14520c-44,0 -79,-35 -79,-79l0 -2010c0,-44 35,-79 79,-79 44,0 79,35 79,79l0 2010c0,43 -35,79 -79,79z"/>
  <path class="fil157" d="M20155 13524l0 -263 -1273 -851 -1 280c0,61 32,117 85,148l1189 687z"/>
  <path class="fil158" d="M18961 12291l949 -548c151,-87 338,-87 489,0l1192 688 -1436 829 -1194 -689c-108,-62 -108,-218 0,-280z"/>
  <polygon class="fil159" points="21591,12431 21591,12708 20155,13524 20155,13261 "/>
  <path class="fil160" d="M18842 13996l57 -1502c1,-47 51,-76 92,-52l258 139 804 432c85,54 193,57 280,6l873 -441c15,-8 28,-18 40,-28 31,-26 55,-59 71,-94 34,-74 33,-162 -8,-239l-1095 131 -782 -269 -452 -156c-211,-73 -435,71 -456,294l69 976 73 684 25 73c21,63 98,88 152,49z"/>
  <path class="fil53" d="M19995 11726c0,0 -364,333 -565,351l441 152c0,0 595,-212 124,-503z"/>
  <path class="fil53" d="M21317 12455c-16,36 -40,68 -71,94 -12,11 -26,20 -40,28l-873 441c-87,50 -195,48 -280,-6l-804 -432c-111,-414 182,-503 182,-503l782 269 1095 -131c42,77 42,165 8,239z"/>
  <path class="fil161" d="M21240 10491c-12,-293 -309,-487 -581,-379 -370,147 -801,354 -874,542 -132,341 -6,1323 -77,1779 -29,184 363,326 363,326l1237 -543 -69 -1724z"/>
  <path class="fil162" d="M20950 13314c-5,0 -11,-1 -16,-2 -43,-9 -70,-50 -62,-93l216 -1056c16,-82 25,-167 25,-251l0 -1044c0,-44 35,-79 79,-79 44,0 79,35 79,79l0 1044c0,95 -9,190 -28,283l-216 1056c-8,37 -40,63 -77,63z"/>
  <path class="fil163" d="M19785 10654c0,0 -577,1329 -1506,452l106 -143 -281 -105 -68 308c0,0 1109,1009 1975,442 866,-567 -226,-956 -226,-956z"/>
  <path class="fil164" d="M19378 11065l406 -410 251 14c167,9 306,132 334,297 50,298 43,749 -394,937 0,0 -165,-839 -598,-837z"/>
  <path class="fil165" d="M21855 10376l-1214 609c-104,60 -167,170 -167,290l0 891 -213 -123 0 -829c0,-158 84,-304 220,-384l886 -520c138,-81 350,-14 488,66z"/>
  <path class="fil166" d="M20474 11289l0 877 1436 -829 0 -854c0,-102 -111,-166 -200,-115l-1057 610c-111,64 -179,182 -179,310z"/>
  <path class="fil167" d="M19966 9807l42 -73 0 -517c902,74 527,807 527,807l-527 153 0 -370 -42 0z"/>
  <path class="fil53" d="M18665 13874l-448 79c-35,6 -41,54 -8,68l221 97c48,21 103,23 152,7l174 -59 31 189 41 0 14 -259c0,0 -163,10 -177,-121z"/>
  <path class="fil53" d="M19854 9271c36,118 102,253 215,242 0,0 131,420 -26,542 -157,122 182,274 182,274 0,0 577,67 636,-238 35,-181 -43,-500 -111,-729 -48,-161 -198,-270 -365,-267l-405 8c-87,0 -150,84 -125,168z"/>
  <path class="fil168" d="M9966 2062l110 -649c1,-9 8,-15 17,-17 1,0 2,0 3,0 8,0 14,4 18,11l221 408c-13,3 -27,7 -41,12l-188 -348 -89 529c-17,17 -35,35 -51,54z"/>
  <path class="fil169" d="M9914 3152c-147,-23 -245,-157 -245,-372 0,-240 122,-519 297,-717 17,-19 34,-37 51,-54 55,-54 114,-100 175,-135 34,-20 68,-35 102,-46 14,-4 27,-8 41,-12 37,-9 73,-13 107,-13 88,0 167,28 227,82 -5,-4 -11,-8 -16,-11 -9,-6 -18,-11 -28,-16 -22,-10 -46,-17 -71,-22 -16,-3 -32,-4 -49,-4 -14,0 -28,1 -42,3 -58,7 -122,29 -188,67 -285,163 -519,565 -523,897l0 2c0,3 0,5 0,8 0,113 27,204 74,268 7,9 14,18 22,26 19,21 42,38 66,51zm-162 -344l0 0zm96 294l0 0z"/>
  <path class="fil170" d="M10045 3183c-14,0 -28,-1 -41,-3 -32,-4 -62,-14 -90,-28 -24,-13 -46,-30 -66,-51 31,20 67,33 106,38 13,2 27,3 41,3 70,0 148,-23 231,-71 288,-166 523,-574 523,-906 0,-129 -35,-228 -96,-292 -9,-6 -18,-11 -28,-16l0 0c-22,-10 -46,-17 -71,-22 -16,-3 -32,-4 -49,-4 -14,0 -28,1 -42,3 -58,7 -122,29 -188,67 -285,163 -519,565 -523,897l0 2c0,3 0,5 0,8l0 0c0,-3 0,-5 0,-8l0 -2c4,-332 238,-734 523,-897 66,-38 130,-60 188,-67 14,-2 28,-3 42,-3 17,0 33,1 49,4 25,4 49,11 71,22 10,5 19,10 28,16 6,4 11,7 16,11 81,60 129,171 129,322 0,332 -235,740 -523,906 -83,48 -161,71 -231,71z"/>
  <g style="clip-path:url(#id1)">
   <image transform="matrix(67.7585 0 0 94.178 -884216 -1.01972E+006)" x="13194" y="10847" width="14" height="14" xlink:href="p1e1f700ac2s1nlo1o35hnu1nq84_Images\p1e1f700ac2s1nlo1o35hnu1nq84_ImgID2.png"/>
  </g>
  <g style="clip-path:url(#id2)">
   <image transform="matrix(69.8306 0 0 92.7534 -911638 -1.0043E+006)" x="13194" y="10847" width="14" height="14" xlink:href="p1e1f700ac2s1nlo1o35hnu1nq84_Images\p1e1f700ac2s1nlo1o35hnu1nq84_ImgID3.png"/>
  </g>
  <g style="clip-path:url(#id3)">
   <image transform="matrix(36.1586 0 0 34.2158 -467068 -369007)" x="13194" y="10847" width="14" height="14" xlink:href="p1e1f700ac2s1nlo1o35hnu1nq84_Images\p1e1f700ac2s1nlo1o35hnu1nq84_ImgID4.png"/>
  </g>
  <path class="fil171" d="M6303 9753l0 2658 2203 1270 0 -1438c0,-123 -65,-237 -172,-299l-1150 -673 0 -1010 -880 -508z"/>
  <polygon class="fil172" points="6734,11528 8505,12538 4116,15073 2355,14056 "/>
  <path class="fil173" d="M1474 12538l-11 2671 2203 1270 10 -1467c1,-113 -59,-217 -156,-274l-1165 -681 0 -828c0,-113 -60,-217 -158,-273l-723 -417z"/>
  <polygon class="fil174" points="2795,13802 6734,11528 6734,10003 2367,12538 2355,14056 "/>
  <path class="fil175" d="M6743 9498l-440 254 0 0 -4435 2558 0 0 -393 227 710 410c106,61 171,174 171,296l0 813 440 -254 0 -771c0,-148 -79,-284 -207,-358l-228 -131 4374 -2539 241 139c128,74 207,210 207,358l0 771 440 -254 0 -771c0,-148 -79,-284 -207,-358l-674 -389z"/>
  <path class="fil176" d="M7623 11017l-440 254 1132 662c118,69 190,195 190,331l0 273 -4389 2535 0 -197c0,-192 -102,-369 -269,-465l-1052 -607 -440 254 1149 672c107,63 172,178 172,301l-10 1449 439 -253 0 -1 4828 -2784 9 -1348c1,-193 -101,-372 -269,-469l-1050 -606z"/>
  <path class="fil177" d="M721 11323l-36 -5713 309 -180 1545 -897 5 2045 10 3680 -1833 1065zm78 -190l0 0 1604 -932 0 0 -4 -3629 -2 -1814 -938 545 -684 397 0 0 24 5433 0 0 0 0z"/>
  <path class="fil178" d="M800 11133l-24 -5433 251 -146c166,519 721,959 1374,1017l4 3630 -1604 932 0 0z"/>
  <g style="clip-path:url(#id4)">
   <image transform="matrix(100.394 0 0 132.124 -1.32364E+006 -1.42843E+006)" x="13194" y="10847" width="14" height="14" xlink:href="p1e1f700ac2s1nlo1o35hnu1nq84_Images\p1e1f700ac2s1nlo1o35hnu1nq84_ImgID5.png"/>
  </g>
  <g style="clip-path:url(#id5)">
   <image transform="matrix(118.655 0 0 421.056 -1.56482E+006 -4.56199E+006)" x="13194" y="10847" width="14" height="14" xlink:href="p1e1f700ac2s1nlo1o35hnu1nq84_Images\p1e1f700ac2s1nlo1o35hnu1nq84_ImgID6.png"/>
  </g>
  <path class="fil179" d="M4118 9405l-22 -3463 -10 -1613 -4 -637 779 -452 264 -153 811 -471 1 412 5 1848 9 3464 -1833 1065zm78 -190l0 0 1604 -932 0 0 -3 -3324 -2 -1963 0 -157 -268 156 -882 513 -122 71 -351 204 0 0 2 537 7 1573 15 3323 0 0 0 0z"/>
  <path class="fil180" d="M4197 9215l-15 -3323 1615 -933 3 3324 -1604 932m-22 -4896l-2 -537 351 -204 122 -71c-188,345 -177,745 -470,811zm1620 -1322c-42,-6 -87,-8 -135,-8 -42,0 -86,2 -133,7l268 -156 0 157z"/>
  <g style="clip-path:url(#id6)">
   <image transform="matrix(118.267 0 0 210.347 -1.5563E+006 -2.2787E+006)" x="13194" y="10847" width="14" height="14" xlink:href="p1e1f700ac2s1nlo1o35hnu1nq84_Images\p1e1f700ac2s1nlo1o35hnu1nq84_ImgID7.png"/>
  </g>
  <g style="clip-path:url(#id7)">
   <image transform="matrix(119.173 0 0 407.587 -1.56826E+006 -4.41762E+006)" x="13194" y="10847" width="14" height="14" xlink:href="p1e1f700ac2s1nlo1o35hnu1nq84_Images\p1e1f700ac2s1nlo1o35hnu1nq84_ImgID8.png"/>
  </g>
  <path class="fil181" d="M8063 12705l-512 -375 -621 -455 -57 -1656 -13 -368c0,0 33,146 90,368 138,529 415,1487 715,1899 89,122 179,195 268,197 519,9 130,391 130,391z"/>
  <path class="fil182" d="M7665 12117l-114 212 -621 -455 -57 -1656 78 0c138,529 415,1487 715,1899z"/>
  <path class="fil183" d="M7939 14151l-271 -1183 0 0 267 1170 26 0 -23 13zm-1462 -2217l0 -172 467 -102 -467 102 0 172z"/>
  <polygon class="fil53" points="6477,12220 7669,12968 7936,14138 8299,14138 8062,12705 6944,11660 6477,11762 "/>
  <path class="fil184" d="M7461 14427l-3 -14 27 0 -24 14zm-93 -406l-178 -778 -924 -580 -88 -55c-94,-59 -157,-155 -174,-263 17,108 80,204 174,263l1012 635 178 778zm-1182 -2025l279 -61 0 0 0 0 -279 61z"/>
  <path class="fil27" d="M6178 12608l1012 635 267 1170 363 0 -237 -1432 -497 -465c-149,-139 -215,-346 -176,-546l19 -96 -464 61 -467 102 0 247c0,132 68,254 179,324z"/>
  <path class="fil185" d="M5999 12037l307 166 762 -401 15 -1345c3,-236 -253,-384 -457,-265l-373 218 -256 -190 2 1819z"/>
  <path class="fil186" d="M6794 9752l-798 466c0,0 305,211 305,333l4 1651 762 -401 17 -1513 0 -30c2,-209 -109,-403 -290,-507z"/>
  <path class="fil187" d="M7584 12824l0 157 -12 39c-22,73 -88,118 -159,118 -23,0 -47,-5 -69,-15 -45,-21 -79,-61 -91,-110l-70 -278 -70 -57c-122,-25 -234,-55 -336,-91 -1554,-536 -868,-2173 -787,-2353l2 -4 6 -12c0,0 115,6 224,68 122,69 236,207 176,484 -80,365 461,1188 758,1643 35,53 66,101 93,143l226 99c67,29 110,96 110,169z"/>
  <path class="fil188" d="M7155 12413l-378 175c-1357,-469 -1024,-1814 -864,-2267 29,-82 103,-138 190,-144l64 -4c122,69 356,313 295,590 -80,365 395,1197 693,1651z"/>
  <polygon class="fil53" points="7714,14856 8078,15265 7584,14965 7542,14781 7696,14707 "/>
  <polygon class="fil53" points="8062,14689 8030,14548 8180,14477 8193,14580 8557,14990 "/>
  <path class="fil189" d="M6363 9743l0 261 1 20c4,92 54,176 133,224l130 78 91 50c57,31 125,-56 136,-120 0,0 3,-145 -76,-191l-143 -111 0 -174 -272 -36z"/>
  <path class="fil190" d="M6910 9638l-50 -54 0 -476c-1232,-459 -485,743 -485,743l485 141 0 -342 50 -12z"/>
  <path class="fil53" d="M7146 8832c-21,271 -124,521 -437,516l-70 298c0,0 -94,-173 -159,-205 -143,-70 -237,150 110,317l-216 92 -480 -107c-134,-30 -247,-122 -303,-247 -104,-234 -151,-356 -95,-564 43,-163 236,-353 409,-498 255,-212 618,-248 900,-74 199,123 354,300 341,471z"/>
  <path class="fil191" d="M6462 18520c-36,0 -66,-29 -66,-66l0 -1504 66 38 66 -38 0 1504c0,36 -29,66 -66,66z"/>
  <path class="fil192" d="M5201 17811c-36,0 -66,-29 -66,-65l0 -1523 131 76 0 1447c0,36 -29,65 -66,65z"/>
  <path class="fil193" d="M11722 15522c-36,0 -66,-29 -66,-66l0 -1467 131 -76 0 1543c0,36 -29,66 -66,66z"/>
  <path class="fil194" d="M10462 14813c-36,0 -66,-29 -66,-66l0 -31 131 -76 0 106c0,36 -29,66 -66,66z"/>
  <polygon class="fil195" points="4743,16130 4743,16009 4754,16003 4858,16063 "/>
  <polygon class="fil196" points="12191,13808 12081,13744 12186,13684 12191,13687 "/>
  <g style="clip-path:url(#id8)">
   <image transform="matrix(149.478 0 0 111.921 -1.96651E+006 -1.19862E+006)" x="13194" y="10847" width="14" height="14" xlink:href="p1e1f700ac2s1nlo1o35hnu1nq84_Images\p1e1f700ac2s1nlo1o35hnu1nq84_ImgID9.png"/>
  </g>
  <g style="clip-path:url(#id9)">
   <image transform="matrix(229.125 0 0 169.163 -3.01833E+006 -1.82069E+006)" x="13194" y="10847" width="14" height="14" xlink:href="p1e1f700ac2s1nlo1o35hnu1nq84_Images\p1e1f700ac2s1nlo1o35hnu1nq84_ImgID10.png"/>
  </g>
  <g style="clip-path:url(#id10)">
   <image transform="matrix(8.83246 0 0 20.7472 -108587 -210850)" x="13194" y="10847" width="14" height="14" xlink:href="p1e1f700ac2s1nlo1o35hnu1nq84_Images\p1e1f700ac2s1nlo1o35hnu1nq84_ImgID11.png"/>
  </g>
  <g style="clip-path:url(#id11)">
   <image transform="matrix(31.3668 0 0 46.1307 -406388 -485957)" x="13194" y="10847" width="14" height="14" xlink:href="p1e1f700ac2s1nlo1o35hnu1nq84_Images\p1e1f700ac2s1nlo1o35hnu1nq84_ImgID12.png"/>
  </g>
  <polygon class="fil197" points="7821,14413 7716,14413 7812,14358 "/>
  <polygon class="fil198" points="7886,15148 7584,14965 7542,14781 7696,14707 7714,14856 7901,15066 "/>
  <g style="clip-path:url(#id12)">
   <image transform="matrix(11.1636 0 0 24.2439 -140912 -246313)" x="13194" y="10847" width="14" height="14" xlink:href="p1e1f700ac2s1nlo1o35hnu1nq84_Images\p1e1f700ac2s1nlo1o35hnu1nq84_ImgID13.png"/>
  </g>
  <g style="clip-path:url(#id13)">
   <image transform="matrix(11.2931 0 0 25.1504 -143882 -256854)" x="13194" y="10847" width="14" height="14" xlink:href="p1e1f700ac2s1nlo1o35hnu1nq84_Images\p1e1f700ac2s1nlo1o35hnu1nq84_ImgID14.png"/>
  </g>
  <g style="clip-path:url(#id14)">
   <image transform="matrix(231.974 0 0 134.973 -3.05604E+006 -1.44994E+006)" x="13194" y="10847" width="14" height="14" xlink:href="p1e1f700ac2s1nlo1o35hnu1nq84_Images\p1e1f700ac2s1nlo1o35hnu1nq84_ImgID15.png"/>
  </g>
  <g style="clip-path:url(#id15)">
   <image transform="matrix(231.586 0 0 73.0683 -3.04666E+006 -779909)" x="13194" y="10847" width="14" height="14" xlink:href="p1e1f700ac2s1nlo1o35hnu1nq84_Images\p1e1f700ac2s1nlo1o35hnu1nq84_ImgID16.png"/>
  </g>
  <g style="clip-path:url(#id16)">
   <image transform="matrix(53.9012 0 0 31.3668 -702938 -326711)" x="13194" y="10847" width="14" height="14" xlink:href="p1e1f700ac2s1nlo1o35hnu1nq84_Images\p1e1f700ac2s1nlo1o35hnu1nq84_ImgID17.png"/>
  </g>
  <g style="clip-path:url(#id17)">
   <image transform="matrix(4.94723 0 0 3.52264 -57350.4 -24085.3)" x="13194" y="10847" width="14" height="14" xlink:href="p1e1f700ac2s1nlo1o35hnu1nq84_Images\p1e1f700ac2s1nlo1o35hnu1nq84_ImgID18.png"/>
  </g>
  <polygon class="fil199" points="7984,14138 7962,14138 8270,13960 8092,14063 8089,14077 "/>
  <g style="clip-path:url(#id18)">
   <image transform="matrix(4.42919 0 0 3.52264 -50988.4 -23811.9)" x="13194" y="10847" width="14" height="14" xlink:href="p1e1f700ac2s1nlo1o35hnu1nq84_Images\p1e1f700ac2s1nlo1o35hnu1nq84_ImgID19.png"/>
  </g>
  <polygon class="fil200" points="7507,14413 7485,14413 7792,14236 7793,14247 "/>
  <g style="clip-path:url(#id19)">
   <image transform="matrix(72.1618 0 0 175.38 -943588 -1.88903E+006)" x="13194" y="10847" width="14" height="14" xlink:href="p1e1f700ac2s1nlo1o35hnu1nq84_Images\p1e1f700ac2s1nlo1o35hnu1nq84_ImgID20.png"/>
  </g>
  <g style="clip-path:url(#id20)">
   <image transform="matrix(34.3455 0 0 73.9749 -444505 -788782)" x="13194" y="10847" width="14" height="14" xlink:href="p1e1f700ac2s1nlo1o35hnu1nq84_Images\p1e1f700ac2s1nlo1o35hnu1nq84_ImgID21.png"/>
  </g>
  <g style="clip-path:url(#id21)">
   <image transform="matrix(63.4847 0 0 63.4847 -826434 -675267)" x="13194" y="10847" width="14" height="14" xlink:href="p1e1f700ac2s1nlo1o35hnu1nq84_Images\p1e1f700ac2s1nlo1o35hnu1nq84_ImgID22.png"/>
  </g>
  <g style="clip-path:url(#id22)">
   <image transform="matrix(11.1636 0 0 24.2439 -135652 -249314)" x="13194" y="10847" width="14" height="14" xlink:href="p1e1f700ac2s1nlo1o35hnu1nq84_Images\p1e1f700ac2s1nlo1o35hnu1nq84_ImgID23.png"/>
  </g>
  <g style="clip-path:url(#id23)">
   <image transform="matrix(350.086 0 0 207.497 -4.61444E+006 -2.23758E+006)" x="13194" y="10847" width="14" height="14" xlink:href="p1e1f700ac2s1nlo1o35hnu1nq84_Images\p1e1f700ac2s1nlo1o35hnu1nq84_ImgID24.png"/>
  </g>
  <g style="clip-path:url(#id24)">
   <image transform="matrix(54.4192 0 0 35.7701 -706592 -374747)" x="13194" y="10847" width="14" height="14" xlink:href="p1e1f700ac2s1nlo1o35hnu1nq84_Images\p1e1f700ac2s1nlo1o35hnu1nq84_ImgID25.png"/>
  </g>
  <g style="clip-path:url(#id25)">
   <image transform="matrix(208.404 0 0 214.232 -2.74121E+006 -2.31102E+006)" x="13194" y="10847" width="14" height="14" xlink:href="p1e1f700ac2s1nlo1o35hnu1nq84_Images\p1e1f700ac2s1nlo1o35hnu1nq84_ImgID26.png"/>
  </g>
  <g style="clip-path:url(#id26)">
   <image transform="matrix(11.1636 0 0 127.332 -136911 -1.36824E+006)" x="13194" y="10847" width="14" height="14" xlink:href="p1e1f700ac2s1nlo1o35hnu1nq84_Images\p1e1f700ac2s1nlo1o35hnu1nq84_ImgID27.png"/>
  </g>
  <g style="clip-path:url(#id27)">
   <image transform="matrix(136.916 0 0 43.411 -1.79694E+006 -458210)" x="13194" y="10847" width="14" height="14" xlink:href="p1e1f700ac2s1nlo1o35hnu1nq84_Images\p1e1f700ac2s1nlo1o35hnu1nq84_ImgID28.png"/>
  </g>
  <g style="clip-path:url(#id28)">
   <image transform="matrix(68.6651 0 0 49.1094 -896471 -520008)" x="13194" y="10847" width="14" height="14" xlink:href="p1e1f700ac2s1nlo1o35hnu1nq84_Images\p1e1f700ac2s1nlo1o35hnu1nq84_ImgID29.png"/>
  </g>
  <g style="clip-path:url(#id29)">
   <image transform="matrix(74.1044 0 0 50.534 -967308 -535467)" x="13194" y="10847" width="14" height="14" xlink:href="p1e1f700ac2s1nlo1o35hnu1nq84_Images\p1e1f700ac2s1nlo1o35hnu1nq84_ImgID30.png"/>
  </g>
  <g style="clip-path:url(#id30)">
   <image transform="matrix(71.6437 0 0 98.0633 -937640 -1.04878E+006)" x="13194" y="10847" width="14" height="14" xlink:href="p1e1f700ac2s1nlo1o35hnu1nq84_Images\p1e1f700ac2s1nlo1o35hnu1nq84_ImgID31.png"/>
  </g>
  <g style="clip-path:url(#id31)">
   <image transform="matrix(67.888 0 0 117.23 -887920 -1.25783E+006)" x="13194" y="10847" width="14" height="14" xlink:href="p1e1f700ac2s1nlo1o35hnu1nq84_Images\p1e1f700ac2s1nlo1o35hnu1nq84_ImgID32.png"/>
  </g>
  <g style="clip-path:url(#id32)">
   <image transform="matrix(24.6324 0 0 43.411 -317004 -456736)" x="13194" y="10847" width="14" height="14" xlink:href="p1e1f700ac2s1nlo1o35hnu1nq84_Images\p1e1f700ac2s1nlo1o35hnu1nq84_ImgID33.png"/>
  </g>
  <g style="clip-path:url(#id33)">
   <image transform="matrix(9.22098 0 0 5.33575 -113487 -43804.6)" x="13194" y="10847" width="14" height="14" xlink:href="p1e1f700ac2s1nlo1o35hnu1nq84_Images\p1e1f700ac2s1nlo1o35hnu1nq84_ImgID34.png"/>
  </g>
  <g style="clip-path:url(#id34)">
   <image transform="matrix(15.5668 0 0 16.0849 -197524 -159424)" x="13194" y="10847" width="14" height="14" xlink:href="p1e1f700ac2s1nlo1o35hnu1nq84_Images\p1e1f700ac2s1nlo1o35hnu1nq84_ImgID35.png"/>
  </g>
  <g style="clip-path:url(#id35)">
   <image transform="matrix(39.5258 0 0 38.6192 -513502 -404446)" x="13194" y="10847" width="14" height="14" xlink:href="p1e1f700ac2s1nlo1o35hnu1nq84_Images\p1e1f700ac2s1nlo1o35hnu1nq84_ImgID36.png"/>
  </g>
  <g style="clip-path:url(#id36)">
   <image transform="matrix(37.5832 0 0 23.2078 -487631 -238081)" x="13194" y="10847" width="14" height="14" xlink:href="p1e1f700ac2s1nlo1o35hnu1nq84_Images\p1e1f700ac2s1nlo1o35hnu1nq84_ImgID37.png"/>
  </g>
  <g style="clip-path:url(#id37)">
   <image transform="matrix(14.5308 0 0 10.257 -183647 -97314.8)" x="13194" y="10847" width="14" height="14" xlink:href="p1e1f700ac2s1nlo1o35hnu1nq84_Images\p1e1f700ac2s1nlo1o35hnu1nq84_ImgID38.png"/>
  </g>
  <g style="clip-path:url(#id38)">
   <image transform="matrix(52.4766 0 0 39.5258 -684348 -415073)" x="13194" y="10847" width="14" height="14" xlink:href="p1e1f700ac2s1nlo1o35hnu1nq84_Images\p1e1f700ac2s1nlo1o35hnu1nq84_ImgID39.png"/>
  </g>
  <polygon class="fil201" points="6462,16989 6462,17109 4743,16117 4743,15996 "/>
  <polygon class="fil202" points="12191,13680 12191,13801 6462,17109 6462,16989 "/>
  <g style="clip-path:url(#id39)">
   <image transform="matrix(24.1144 0 0 22.6898 -309543 -231476)" x="13194" y="10847" width="14" height="14" xlink:href="p1e1f700ac2s1nlo1o35hnu1nq84_Images\p1e1f700ac2s1nlo1o35hnu1nq84_ImgID40.png"/>
  </g>
  <g style="clip-path:url(#id40)">
   <image transform="matrix(18.416 0 0 24.6324 -234357 -252600)" x="13194" y="10847" width="14" height="14" xlink:href="p1e1f700ac2s1nlo1o35hnu1nq84_Images\p1e1f700ac2s1nlo1o35hnu1nq84_ImgID41.png"/>
  </g>
  <g style="clip-path:url(#id41)">
   <image transform="matrix(3.52264 0 0 3.39313 -37873.8 -21892.6)" x="13194" y="10847" width="14" height="14" xlink:href="p1e1f700ac2s1nlo1o35hnu1nq84_Images\p1e1f700ac2s1nlo1o35hnu1nq84_ImgID42.png"/>
  </g>
  <g style="clip-path:url(#id42)">
   <image transform="matrix(26.1865 0 0 26.4455 -337191 -272267)" x="13194" y="10847" width="14" height="14" xlink:href="p1e1f700ac2s1nlo1o35hnu1nq84_Images\p1e1f700ac2s1nlo1o35hnu1nq84_ImgID43.png"/>
  </g>
  <g style="clip-path:url(#id43)">
   <image transform="matrix(14.5308 0 0 15.0488 -183406 -148506)" x="13194" y="10847" width="14" height="14" xlink:href="p1e1f700ac2s1nlo1o35hnu1nq84_Images\p1e1f700ac2s1nlo1o35hnu1nq84_ImgID44.png"/>
  </g>
  <path class="fil203" d="M8235 13826l12 21c74,130 99,282 70,429l-53 276c-18,96 26,193 111,241l1 0c71,41 157,40 228,0 84,-49 128,-145 110,-241l-53 -275c-28,-148 -3,-301 72,-432l11 -20 -509 0z"/>
  <path class="fil204" d="M8745 13826c0,24 -39,45 -100,59 -43,10 -97,15 -155,15 -58,0 -112,-6 -155,-15 -61,-14 -100,-35 -100,-59 0,-41 114,-74 255,-74 141,0 255,33 255,74z"/>
  <path class="fil34" d="M8645 13884l0 1c-43,10 -97,15 -155,15 -58,0 -112,-6 -155,-15l0 -1c0,-25 69,-45 155,-45 86,0 155,20 155,45z"/>
  <polygon class="fil205" points="8415,13870 8362,11983 8490,13870 "/>
  <polygon class="fil206" points="8818,13278 8744,12941 8781,13345 8490,13870 8565,13870 9129,12720 "/>
  <polygon class="fil207" points="8454,13870 8162,12631 8565,13870 "/>
  <path class="fil208" d="M19199 3326l40 -58 -66 -343c822,-501 452,467 452,467l-329 169 -47 -245 -50 10z"/>
  <path class="fil53" d="M19115 2962c0,0 187,199 293,131 0,0 107,477 33,504 0,0 630,-67 494,-279 -53,-83 -14,-334 -92,-420 -143,-159 -369,-203 -549,-108 -116,62 -212,130 -179,173z"/>
  <polygon class="fil209" points="19231,6341 19634,6574 19634,6886 19364,6730 "/>
  <polygon class="fil210" points="20041,6341 19904,6730 19634,6886 19634,6574 "/>
  <polygon class="fil211" points="19231,6341 19634,6106 19634,6262 19363,6417 "/>
  <polygon class="fil212" points="19906,6419 19634,6262 19634,6106 20041,6341 "/>
  <polygon class="fil34" points="19363,6417 19634,6262 19906,6419 19634,6574 "/>
  <path class="fil213" d="M19481 6436c0,0 -447,-146 -249,-333 198,-187 425,340 425,340l-176 -7z"/>
  <path class="fil214" d="M19773 6445c0,0 382,-624 78,-657 -305,-33 -252,654 -252,654l174 3z"/>
  <path class="fil215" d="M19818 6445c0,0 221,-109 139,-291 -82,-182 -369,287 -369,287l230 4z"/>
  <path class="fil216" d="M19536 6439c0,0 -303,-381 -77,-468 227,-86 244,473 244,473l-168 -5z"/>
 </g>
</svg>
