<svg width="100" height="100" viewBox="0 0 100 100" fill="none" xmlns="http://www.w3.org/2000/svg">
<g clip-path="url(#clip0)">
<g filter="url(#filter0_d)">
<path d="M45.7098 71.9375H37.1395C36.7606 71.9375 36.3973 72.0659 36.1294 72.2945C35.8616 72.523 35.7111 72.833 35.7111 73.1562V80.4687C35.7111 80.792 35.8616 81.102 36.1294 81.3305C36.3973 81.5591 36.7606 81.6875 37.1395 81.6875H45.7098C46.0887 81.6875 46.452 81.5591 46.7198 81.3305C46.9877 81.102 47.1382 80.792 47.1382 80.4687V73.1562C47.1382 72.833 46.9877 72.523 46.7198 72.2945C46.452 72.0659 46.0887 71.9375 45.7098 71.9375ZM44.2814 79.25H38.5679V74.375H44.2814V79.25ZM72.8493 80.8417C72.9613 81.0324 73.13 81.1946 73.3386 81.3123C73.5471 81.4299 73.7882 81.4988 74.0377 81.512H74.1263C74.3615 81.5119 74.5931 81.4622 74.8004 81.3674C75.0077 81.2726 75.1844 81.1355 75.3147 80.9684L81.0283 73.6559C81.1324 73.5228 81.2047 73.3734 81.2412 73.2164C81.2776 73.0594 81.2775 72.8978 81.2407 72.7408C81.204 72.5838 81.1314 72.4346 81.027 72.3016C80.9227 72.1685 80.7887 72.0544 80.6326 71.9655C80.4765 71.8767 80.3015 71.815 80.1175 71.7839C79.9334 71.7528 79.744 71.7529 79.5601 71.7842C79.3761 71.8156 79.2012 71.8775 79.0453 71.9666C78.8893 72.0556 78.7555 72.17 78.6514 72.3031L74.3034 77.8679L72.5636 74.8771C72.3943 74.5878 72.0972 74.3678 71.7377 74.2654C71.3782 74.163 70.9858 74.1866 70.6467 74.3311C70.3076 74.4756 70.0497 74.7291 69.9297 75.0358C69.8097 75.3425 69.8374 75.6774 70.0068 75.9667L72.8493 80.8417ZM71.4209 67.0625H79.9912C80.3701 67.0625 80.7334 66.9341 81.0013 66.7055C81.2691 66.477 81.4196 66.167 81.4196 65.8437V58.5312C81.4196 58.208 81.2691 57.898 81.0013 57.6695C80.7334 57.4409 80.3701 57.3125 79.9912 57.3125H71.4209C71.0421 57.3125 70.6787 57.4409 70.4109 57.6695C70.143 57.898 69.9925 58.208 69.9925 58.5312V65.8437C69.9925 66.167 70.143 66.477 70.4109 66.7055C70.6787 66.9341 71.0421 67.0625 71.4209 67.0625ZM72.8493 59.75H78.5629V64.625H72.8493V59.75ZM71.4209 52.4375H79.9912C80.3701 52.4375 80.7334 52.3091 81.0013 52.0805C81.2691 51.852 81.4196 51.542 81.4196 51.2187V43.9062C81.4196 43.583 81.2691 43.273 81.0013 43.0445C80.7334 42.8159 80.3701 42.6875 79.9912 42.6875H71.4209C71.0421 42.6875 70.6787 42.8159 70.4109 43.0445C70.143 43.273 69.9925 43.583 69.9925 43.9062V51.2187C69.9925 51.542 70.143 51.852 70.4109 52.0805C70.6787 52.3091 71.0421 52.4375 71.4209 52.4375ZM72.8493 45.125H78.5629V50H72.8493V45.125ZM19.9987 67.0625H28.5691C28.9479 67.0625 29.3113 66.9341 29.5791 66.7055C29.847 66.477 29.9975 66.167 29.9975 65.8437V58.5312C29.9975 58.208 29.847 57.898 29.5791 57.6695C29.3113 57.4409 28.9479 57.3125 28.5691 57.3125H19.9987C19.6199 57.3125 19.2566 57.4409 18.9887 57.6695C18.7208 57.898 18.5704 58.208 18.5704 58.5312V65.8437C18.5704 66.167 18.7208 66.477 18.9887 66.7055C19.2566 66.9341 19.6199 67.0625 19.9987 67.0625ZM21.4271 59.75H27.1407V64.625H21.4271V59.75ZM19.9987 81.6875H28.5691C28.9479 81.6875 29.3113 81.5591 29.5791 81.3305C29.847 81.102 29.9975 80.792 29.9975 80.4687V73.1562C29.9975 72.833 29.847 72.523 29.5791 72.2945C29.3113 72.0659 28.9479 71.9375 28.5691 71.9375H19.9987C19.6199 71.9375 19.2566 72.0659 18.9887 72.2945C18.7208 72.523 18.5704 72.833 18.5704 73.1562V80.4687C18.5704 80.792 18.7208 81.102 18.9887 81.3305C19.2566 81.5591 19.6199 81.6875 19.9987 81.6875ZM21.4271 74.375H27.1407V79.25H21.4271V74.375ZM19.9987 52.4375H28.5691C28.9479 52.4375 29.3113 52.3091 29.5791 52.0805C29.847 51.852 29.9975 51.542 29.9975 51.2187V43.9062C29.9975 43.583 29.847 43.273 29.5791 43.0445C29.3113 42.8159 28.9479 42.6875 28.5691 42.6875H19.9987C19.6199 42.6875 19.2566 42.8159 18.9887 43.0445C18.7208 43.273 18.5704 43.583 18.5704 43.9062V51.2187C18.5704 51.542 18.7208 51.852 18.9887 52.0805C19.2566 52.3091 19.6199 52.4375 19.9987 52.4375ZM21.4271 45.125H27.1407V50H21.4271V45.125ZM82.848 20.75H81.4196V15.875C81.4196 14.5821 80.8177 13.3421 79.7462 12.4279C78.6747 11.5136 77.2214 11 75.7061 11C74.1907 11 72.7375 11.5136 71.666 12.4279C70.5945 13.3421 69.9925 14.5821 69.9925 15.875V20.75H29.9975V15.875C29.9975 14.5821 29.3955 13.3421 28.324 12.4279C27.2525 11.5136 25.7993 11 24.2839 11C22.7686 11 21.3153 11.5136 20.2438 12.4279C19.1723 13.3421 18.5704 14.5821 18.5704 15.875V20.75H17.142C15.2478 20.75 13.4312 21.392 12.0918 22.5348C10.7525 23.6776 10 25.2276 10 26.8437V82.9062C10 84.5224 10.7525 86.0724 12.0918 87.2152C13.4312 88.358 15.2478 89 17.142 89H82.848C84.7422 89 86.5588 88.358 87.8982 87.2152C89.2375 86.0724 89.99 84.5224 89.99 82.9062V26.8437C89.99 25.2276 89.2375 23.6776 87.8982 22.5348C86.5588 21.392 84.7422 20.75 82.848 20.75ZM72.8493 15.875C72.8493 15.2285 73.1503 14.6085 73.686 14.1514C74.2218 13.6943 74.9484 13.4375 75.7061 13.4375C76.4637 13.4375 77.1904 13.6943 77.7261 14.1514C78.2619 14.6085 78.5629 15.2285 78.5629 15.875V25.625C78.5629 26.2715 78.2619 26.8915 77.7261 27.3486C77.1904 27.8057 76.4637 28.0625 75.7061 28.0625C74.9484 28.0625 74.2218 27.8057 73.686 27.3486C73.1503 26.8915 72.8493 26.2715 72.8493 25.625V15.875ZM21.4271 15.875C21.4271 15.2285 21.7281 14.6085 22.2639 14.1514C22.7996 13.6943 23.5263 13.4375 24.2839 13.4375C25.0416 13.4375 25.7682 13.6943 26.304 14.1514C26.8397 14.6085 27.1407 15.2285 27.1407 15.875V25.625C27.1407 26.2715 26.8397 26.8915 26.304 27.3486C25.7682 27.8057 25.0416 28.0625 24.2839 28.0625C23.5263 28.0625 22.7996 27.8057 22.2639 27.3486C21.7281 26.8915 21.4271 26.2715 21.4271 25.625V15.875ZM87.1332 82.9062C87.1332 83.8759 86.6817 84.8059 85.8781 85.4916C85.0745 86.1773 83.9845 86.5625 82.848 86.5625H17.142C16.0055 86.5625 14.9155 86.1773 14.1119 85.4916C13.3083 84.8059 12.8568 83.8759 12.8568 82.9062V37.8125H87.1332V82.9062ZM87.1332 35.375H12.8568V26.8437C12.8568 25.8741 13.3083 24.9441 14.1119 24.2584C14.9155 23.5727 16.0055 23.1875 17.142 23.1875H18.5704V25.625C18.5704 26.9179 19.1723 28.1579 20.2438 29.0721C21.3153 29.9864 22.7686 30.5 24.2839 30.5C25.7993 30.5 27.2525 29.9864 28.324 29.0721C29.3955 28.1579 29.9975 26.9179 29.9975 25.625V23.1875H69.9925V25.625C69.9925 26.9179 70.5945 28.1579 71.666 29.0721C72.7375 29.9864 74.1907 30.5 75.7061 30.5C77.2214 30.5 78.6747 29.9864 79.7462 29.0721C80.8177 28.1579 81.4196 26.9179 81.4196 25.625V23.1875H82.848C83.9845 23.1875 85.0745 23.5727 85.8781 24.2584C86.6817 24.9441 87.1332 25.8741 87.1332 26.8437V35.375ZM38.5679 51.5917C38.6799 51.7824 38.8486 51.9446 39.0571 52.0623C39.2657 52.1799 39.5068 52.2488 39.7563 52.262H39.8448C40.0801 52.2619 40.3116 52.2122 40.519 52.1174C40.7263 52.0226 40.9029 51.8855 41.0333 51.7184L46.7468 44.4059C46.8509 44.2728 46.9233 44.1234 46.9597 43.9664C46.9962 43.8094 46.9961 43.6478 46.9593 43.4908C46.9226 43.3338 46.85 43.1846 46.7456 43.0516C46.6413 42.9185 46.5072 42.8044 46.3512 42.7155C46.1951 42.6267 46.0201 42.565 45.836 42.5339C45.652 42.5028 45.4626 42.5029 45.2786 42.5342C45.0947 42.5656 44.9197 42.6275 44.7638 42.7166C44.6079 42.8056 44.4741 42.92 44.37 43.0531L40.022 48.6179L38.2822 45.6271C38.1983 45.4839 38.0822 45.3561 37.9405 45.2512C37.7988 45.1462 37.6343 45.0661 37.4563 45.0154C37.2783 44.9647 37.0903 44.9444 36.9031 44.9557C36.7159 44.967 36.5332 45.0096 36.3653 45.0811C36.1974 45.1527 36.0477 45.2517 35.9246 45.3726C35.8016 45.4935 35.7077 45.6339 35.6483 45.7858C35.5889 45.9377 35.5651 46.0981 35.5783 46.2578C35.5915 46.4175 35.6415 46.5734 35.7254 46.7167L38.5679 51.5917ZM54.2802 52.4375H62.8505C63.2294 52.4375 63.5927 52.3091 63.8606 52.0805C64.1284 51.852 64.2789 51.542 64.2789 51.2187V43.9062C64.2789 43.583 64.1284 43.273 63.8606 43.0445C63.5927 42.8159 63.2294 42.6875 62.8505 42.6875H54.2802C53.9013 42.6875 53.538 42.8159 53.2701 43.0445C53.0023 43.273 52.8518 43.583 52.8518 43.9062V51.2187C52.8518 51.542 53.0023 51.852 53.2701 52.0805C53.538 52.3091 53.9013 52.4375 54.2802 52.4375ZM55.7086 45.125H61.4221V50H55.7086V45.125ZM54.2802 81.6875H62.8505C63.2294 81.6875 63.5927 81.5591 63.8606 81.3305C64.1284 81.102 64.2789 80.792 64.2789 80.4687V73.1562C64.2789 72.833 64.1284 72.523 63.8606 72.2945C63.5927 72.0659 63.2294 71.9375 62.8505 71.9375H54.2802C53.9013 71.9375 53.538 72.0659 53.2701 72.2945C53.0023 72.523 52.8518 72.833 52.8518 73.1562V80.4687C52.8518 80.792 53.0023 81.102 53.2701 81.3305C53.538 81.5591 53.9013 81.6875 54.2802 81.6875ZM55.7086 74.375H61.4221V79.25H55.7086V74.375ZM54.2802 67.0625H62.8505C63.2294 67.0625 63.5927 66.9341 63.8606 66.7055C64.1284 66.477 64.2789 66.167 64.2789 65.8437V58.5312C64.2789 58.208 64.1284 57.898 63.8606 57.6695C63.5927 57.4409 63.2294 57.3125 62.8505 57.3125H54.2802C53.9013 57.3125 53.538 57.4409 53.2701 57.6695C53.0023 57.898 52.8518 58.208 52.8518 58.5312V65.8437C52.8518 66.167 53.0023 66.477 53.2701 66.7055C53.538 66.9341 53.9013 67.0625 54.2802 67.0625ZM55.7086 59.75H61.4221V64.625H55.7086V59.75ZM45.7098 57.3125H37.1395C36.7606 57.3125 36.3973 57.4409 36.1294 57.6695C35.8616 57.898 35.7111 58.208 35.7111 58.5312V65.8437C35.7111 66.167 35.8616 66.477 36.1294 66.7055C36.3973 66.9341 36.7606 67.0625 37.1395 67.0625H45.7098C46.0887 67.0625 46.452 66.9341 46.7198 66.7055C46.9877 66.477 47.1382 66.167 47.1382 65.8437V58.5312C47.1382 58.208 46.9877 57.898 46.7198 57.6695C46.452 57.4409 46.0887 57.3125 45.7098 57.3125ZM44.2814 64.625H38.5679V59.75H44.2814V64.625Z" fill="#FEFEFE" stroke="white" stroke-width="2"/>
</g>
</g>
<defs>
<filter id="filter0_d" x="-1" y="0" width="102" height="102" filterUnits="userSpaceOnUse" color-interpolation-filters="sRGB">
<feFlood flood-opacity="0" result="BackgroundImageFix"/>
<feColorMatrix in="SourceAlpha" type="matrix" values="0 0 0 0 0 0 0 0 0 0 0 0 0 0 0 0 0 0 127 0"/>
<feOffset dy="1"/>
<feGaussianBlur stdDeviation="0.5"/>
<feColorMatrix type="matrix" values="0 0 0 0 0 0 0 0 0 0 0 0 0 0 0 0 0 0 0.25 0"/>
<feBlend mode="normal" in2="BackgroundImageFix" result="effect1_dropShadow"/>
<feBlend mode="normal" in="SourceGraphic" in2="effect1_dropShadow" result="shape"/>
</filter>
<clipPath id="clip0">
<rect width="100" height="100" fill="white"/>
</clipPath>
</defs>
</svg>
