<svg id="SvgjsSvg1001" width="288" height="288" xmlns="http://www.w3.org/2000/svg" version="1.1" xmlns:xlink="http://www.w3.org/1999/xlink" xmlns:svgjs="http://svgjs.com/svgjs"><defs id="SvgjsDefs1002"></defs><g id="SvgjsG1008" transform="matrix(0.9167,0,0,0.9167,11.995199682235722,11.995200000000011)"><!--?xml version="1.0" encoding="UTF-8"?--><svg xmlns="http://www.w3.org/2000/svg" xmlns:xlink="http://www.w3.org/1999/xlink" version="1.1" id="Layer_1" x="0px" y="0px" viewBox="0 0 101 101" xml:space="preserve" width="288" height="288"><path d="M82.1 57.6c1.3 0 2.4-1.1 2.4-2.4v-9.4c0-1.3-1.1-2.4-2.4-2.4h-4.5c-.6-2.5-1.6-4.9-2.9-7.1l3.1-3.1c.9-.9.9-2.5 0-3.4l-6.6-6.6c-.9-.9-2.5-.9-3.4 0l-3.1 3.1c-2.2-1.3-4.6-2.3-7.1-3v-4.4c0-1.3-1.1-2.4-2.4-2.4h-9.4c-1.3 0-2.4 1.1-2.4 2.4v4.4c-2.5.6-4.9 1.6-7.2 2.9l-3.1-3.1c-.9-.9-2.5-.9-3.4 0l-6.6 6.6c-.9.9-.9 2.5 0 3.4l3.1 3.1c-1.3 2.2-2.3 4.6-3 7.2h-4.3c-1.3 0-2.4 1.1-2.4 2.4v9.4c0 1.3 1.1 2.4 2.4 2.4h4.3c.7 2.5 1.7 4.9 3 7.2l-3.1 3.1c-.9.9-.9 2.5 0 3.4l6.6 6.6c.9.9 2.5.9 3.4 0l3.1-3.1c2.2 1.3 4.6 2.3 7.2 2.9v4.4c0 1.3 1.1 2.4 2.4 2.4h9.4c1.3 0 2.4-1.1 2.4-2.4v-4.4c2.5-.7 4.9-1.6 7.1-3l3.1 3.1c.9.9 2.5.9 3.4 0l6.6-6.6c.9-.9.9-2.5 0-3.4l-3.1-3.2c1.3-2.2 2.3-4.6 2.9-7.1h4.5zm-8.7-2.8c-.6 3.2-1.8 6.2-3.7 8.9-.7 1-.5 2.2.3 3.1l2.8 2.8-3.3 3.3-2.8-2.9c-.8-.8-2.1-.9-3.1-.3-2.7 1.9-5.7 3.1-8.9 3.7-1.1.2-2 1.2-2 2.4v4h-4.6v-3.9c0-1.2-.8-2.2-2-2.4-3.3-.6-6.3-1.8-9-3.7-1-.7-2.2-.5-3.1.3l-2.8 2.8-3.3-3.3 2.7-2.7c.8-.8.9-2.1.3-3.1-1.9-2.7-3.1-5.7-3.7-9-.2-1.1-1.2-2-2.4-2h-3.9v-4.6h3.9c1.2 0 2.2-.8 2.4-2 .6-3.3 1.9-6.3 3.7-9 .7-1 .5-2.2-.3-3.1l-2.7-2.7 3.3-3.3 2.7 2.7c.8.8 2.1.9 3.1.3 2.7-1.9 5.7-3.1 9-3.7 1.1-.2 2-1.2 2-2.4v-3.9h4.6V25c0 1.2.8 2.1 2 2.4 3.2.6 6.2 1.9 8.9 3.7.9.7 2.2.5 3.1-.3l2.8-2.8 3.3 3.3-2.7 3c-.8.8-.9 2.1-.3 3.1 1.8 2.7 3.1 5.7 3.7 8.9.2 1.1 1.2 2 2.4 2h4v4.6h-4c-1.2-.1-2.2.7-2.4 1.9z" fill="#ffffff" class="color000 svgShape"></path><path d="M50.4 34.4c-9.1 0-16.5 7.4-16.5 16.5s7.4 16.5 16.5 16.5S66.9 60 66.9 50.9s-7.4-16.5-16.5-16.5zm0 28.1c-6.4 0-11.7-5.2-11.7-11.7S44 39.2 50.4 39.2s11.7 5.2 11.7 11.7-5.2 11.6-11.7 11.6z" fill="#ffffff" class="color000 svgShape"></path><metadata><rdf:rdf xmlns:rdf="http://www.w3.org/1999/02/22-rdf-syntax-ns#" xmlns:rdfs="http://www.w3.org/2000/01/rdf-schema#" xmlns:dc="http://purl.org/dc/elements/1.1/"><rdf:description about="https://iconscout.com/legal#licenses" dc:title="setting,config,gear" dc:description="setting,config,gear" dc:publisher="Iconscout" dc:date="2017-11-15" dc:format="image/svg+xml" dc:language="en"><dc:creator><rdf:bag><rdf:li>Lucía González</rdf:li></rdf:bag></dc:creator></rdf:description></rdf:rdf></metadata></svg></g></svg>