<svg id="SvgjsSvg1001" width="288" height="288" xmlns="http://www.w3.org/2000/svg" version="1.1" xmlns:xlink="http://www.w3.org/1999/xlink" xmlns:svgjs="http://svgjs.com/svgjs"><path id="SvgjsPath1042" d="M 144,0 C 5,0 0,5 0,144 0,283 5,288 144,288 283,288 288,283 288,144 288,5 283,0 144,0 Z" transform="matrix(0.66,0,0,0.66,48.959999999999994,48.959999999999994)" fill="#3d82c2"></path><defs id="SvgjsDefs1002"></defs><g id="SvgjsG1008" transform="matrix(0.56,0,0,0.56,63.359999999999985,63.359999999999985)"><svg xmlns="http://www.w3.org/2000/svg" data-name="Layer 1" viewBox="0 0 512 512" width="288" height="288"><path fill="#f2f2f2" d="M384.5,147.5h90a30,30,0,0,1,30,30v297a30,30,0,0,1-30,30h-90a0,0,0,0,1,0,0v-357A0,0,0,0,1,384.5,147.5Z" class="colorf2f2f2 svgShape"></path><rect width="10" height="357" x="384.5" y="147.5" fill="#dedede" class="colordedede svgShape"></rect><path fill="#f2f2f2" d="M157.5,102.5h197a30,30,0,0,1,30,30v372a0,0,0,0,1,0,0h-257a0,0,0,0,1,0,0v-372A30,30,0,0,1,157.5,102.5Z" class="colorf2f2f2 svgShape"></path><path fill="#bebebe" d="M343.70935,102.5H168.29065c7.07922,42.51062,43.71167,75,87.70935,75S336.63013,145.01062,343.70935,102.5Z" class="colorbebebe svgShape"></path><path fill="#f2f2f2" d="M7.5,147.5h90a30,30,0,0,1,30,30v297a30,30,0,0,1-30,30H7.5a0,0,0,0,1,0,0v-357A0,0,0,0,1,7.5,147.5Z" transform="rotate(180 67.5 326)" class="colorf2f2f2 svgShape"></path><ellipse cx="256" cy="87.5" fill="#f2f2f2" rx="78.952" ry="80" class="colorf2f2f2 svgShape"></ellipse><path fill="#ff6666" d="M294,72.5H271v-23a10,10,0,0,0-10-10H251a10,10,0,0,0-10,10v23H218a10,10,0,0,0-10,10v10a10,10,0,0,0,10,10h23v23a10,10,0,0,0,10,10h10a10,10,0,0,0,10-10v-23h23a10,10,0,0,0,10-10v-10A10,10,0,0,0,294,72.5Z" class="colorf66 svgShape"></path><path fill="#676e87" d="M229.5,396.5h53a15,15,0,0,1,15,15v93a0,0,0,0,1,0,0h-83a0,0,0,0,1,0,0v-93A15,15,0,0,1,229.5,396.5Z" class="color676e87 svgShape"></path><path fill="#595f74" d="M282.5,396.5h-20a15,15,0,0,1,15,15v93h20v-93A15,15,0,0,0,282.5,396.5Z" class="color595f74 svgShape"></path><rect width="68.5" height="42" x="271" y="222.5" fill="#b3e0ff" rx="6" class="colorb3e0ff svgShape"></rect><path fill="#8cd0ff" d="M333.5,222.5h-20a6,6,0,0,1,6,6v30a6,6,0,0,1-6,6h20a6,6,0,0,0,6-6v-30A6,6,0,0,0,333.5,222.5Z" class="color8cd0ff svgShape"></path><path fill="#b3e0ff" d="M384.5,222.5h69a6,6,0,0,1,6,6v30a6,6,0,0,1-6,6h-69Z" class="colorb3e0ff svgShape"></path><path fill="#8cd0ff" d="M453.5,222.5h-20a6,6,0,0,1,6,6v30a6,6,0,0,1-6,6h20a6,6,0,0,0,6-6v-30A6,6,0,0,0,453.5,222.5Z" class="color8cd0ff svgShape"></path><rect width="10" height="42" x="384.5" y="222.5" fill="#8cd0ff" class="color8cd0ff svgShape"></rect><path fill="#b3e0ff" d="M384.5,309.5h69a6,6,0,0,1,6,6v30a6,6,0,0,1-6,6h-69Z" class="colorb3e0ff svgShape"></path><path fill="#8cd0ff" d="M453.5,309.5h-20a6,6,0,0,1,6,6v30a6,6,0,0,1-6,6h20a6,6,0,0,0,6-6v-30A6,6,0,0,0,453.5,309.5Z" class="color8cd0ff svgShape"></path><rect width="10" height="42" x="384.5" y="309.5" fill="#8cd0ff" class="color8cd0ff svgShape"></rect><path fill="#b3e0ff" d="M58.5 222.5h69v42h-69a6 6 0 0 1-6-6v-30A6 6 0 0 1 58.5 222.5zM58.5 309.5h69v42h-69a6 6 0 0 1-6-6v-30A6 6 0 0 1 58.5 309.5z" class="colorb3e0ff svgShape"></path><rect width="68.5" height="42" x="172.5" y="222.5" fill="#b3e0ff" rx="6" class="colorb3e0ff svgShape"></rect><path fill="#8cd0ff" d="M235,222.5H215a6,6,0,0,1,6,6v30a6,6,0,0,1-6,6h20a6,6,0,0,0,6-6v-30A6,6,0,0,0,235,222.5Z" class="color8cd0ff svgShape"></path><rect width="68.5" height="42" x="271" y="309.5" fill="#b3e0ff" rx="6" class="colorb3e0ff svgShape"></rect><rect width="68.5" height="42" x="172.5" y="309.5" fill="#b3e0ff" rx="6" class="colorb3e0ff svgShape"></rect><path fill="#8cd0ff" d="M235,309.5H215a6,6,0,0,1,6,6v30a6,6,0,0,1-6,6h20a6,6,0,0,0,6-6v-30A6,6,0,0,0,235,309.5Z" class="color8cd0ff svgShape"></path><rect width="10" height="357" x="117.5" y="147.5" fill="#dedede" class="colordedede svgShape"></rect><rect width="10" height="42" x="117.5" y="222.5" fill="#8cd0ff" class="color8cd0ff svgShape"></rect><rect width="10" height="42" x="117.5" y="309.5" fill="#8cd0ff" class="color8cd0ff svgShape"></rect><path fill="#8cd0ff" d="M333.5,309.5h-20a6,6,0,0,1,6,6v30a6,6,0,0,1-6,6h20a6,6,0,0,0,6-6v-30A6,6,0,0,0,333.5,309.5Z" class="color8cd0ff svgShape"></path><path fill="#313440" d="M218,110h15.5v15.5A17.52,17.52,0,0,0,251,143h10a17.52,17.52,0,0,0,17.5-17.5V110H294a17.52,17.52,0,0,0,17.5-17.5v-10A17.52,17.52,0,0,0,294,65H278.5V49.5A17.52,17.52,0,0,0,261,32H251a17.52,17.52,0,0,0-17.5,17.5V65H218a17.52,17.52,0,0,0-17.5,17.5v10A17.52,17.52,0,0,0,218,110Zm-2.5-27.5A2.50294,2.50294,0,0,1,218,80h23a7.50006,7.50006,0,0,0,7.5-7.5v-23A2.50294,2.50294,0,0,1,251,47h10a2.50294,2.50294,0,0,1,2.5,2.5v23A7.50006,7.50006,0,0,0,271,80h23a2.50294,2.50294,0,0,1,2.5,2.5v10A2.50294,2.50294,0,0,1,294,95H271a7.50006,7.50006,0,0,0-7.5,7.5v23A2.50294,2.50294,0,0,1,261,128H251a2.50294,2.50294,0,0,1-2.5-2.5v-23A7.50006,7.50006,0,0,0,241,95H218a2.50294,2.50294,0,0,1-2.5-2.5Zm259,57.5H392v-7.5A37.54227,37.54227,0,0,0,354.5,95H342.13062c.20849-2.473.321-4.97327.321-7.5C342.45166,39.25244,303.66943,0,256,0s-86.45166,39.25244-86.45166,87.5c0,2.52673.11255,5.027.321,7.5H157.5A37.54227,37.54227,0,0,0,120,132.5V140H37.5A37.54227,37.54227,0,0,0,0,177.5v297A37.54227,37.54227,0,0,0,37.5,512h437A37.54227,37.54227,0,0,0,512,474.5v-297A37.54227,37.54227,0,0,0,474.5,140ZM120,344H60V317h60Zm0-87H60V230h60Zm0-42H58.5A13.51539,13.51539,0,0,0,45,228.5v30A13.51539,13.51539,0,0,0,58.5,272H120v30H58.5A13.51539,13.51539,0,0,0,45,315.5v30A13.51539,13.51539,0,0,0,58.5,359H120V497H37.5A22.52523,22.52523,0,0,1,15,474.5v-297A22.52523,22.52523,0,0,1,37.5,155H120ZM256,15c39.39844,0,71.45166,32.52344,71.45166,72.5S295.39844,160,256,160s-71.45166-32.52344-71.45166-72.5S216.60156,15,256,15Zm34,482H222V411.5a7.5082,7.5082,0,0,1,7.5-7.5h53a7.5082,7.5082,0,0,1,7.5,7.5Zm87,0H305V411.5A22.52523,22.52523,0,0,0,282.5,389h-53A22.52523,22.52523,0,0,0,207,411.5V497H135V132.5A22.52523,22.52523,0,0,1,157.5,110h14.95117C182.28662,147.37921,216.014,175,256,175s73.71338-27.62079,83.54883-65H354.5A22.52523,22.52523,0,0,1,377,132.5Zm15-267h60v27H392Zm0,87h60v27H392ZM497,474.5A22.52523,22.52523,0,0,1,474.5,497H392V359h61.5A13.51539,13.51539,0,0,0,467,345.5v-30A13.51539,13.51539,0,0,0,453.5,302H392V272h61.5A13.51539,13.51539,0,0,0,467,258.5v-30A13.51539,13.51539,0,0,0,453.5,215H392V155h82.5A22.52523,22.52523,0,0,1,497,177.5ZM333.5,215H277a13.51539,13.51539,0,0,0-13.5,13.5v30A13.51539,13.51539,0,0,0,277,272h56.5A13.51539,13.51539,0,0,0,347,258.5v-30A13.51539,13.51539,0,0,0,333.5,215ZM332,257H278.5V230H332Zm1.5,45H277a13.51539,13.51539,0,0,0-13.5,13.5v30A13.51539,13.51539,0,0,0,277,359h56.5A13.51539,13.51539,0,0,0,347,345.5v-30A13.51539,13.51539,0,0,0,333.5,302ZM332,344H278.5V317H332Zm-97-42H178.5A13.51539,13.51539,0,0,0,165,315.5v30A13.51539,13.51539,0,0,0,178.5,359H235a13.51539,13.51539,0,0,0,13.5-13.5v-30A13.51539,13.51539,0,0,0,235,302Zm-1.5,42H180V317h53.5ZM235,215H178.5A13.51539,13.51539,0,0,0,165,228.5v30A13.51539,13.51539,0,0,0,178.5,272H235a13.51539,13.51539,0,0,0,13.5-13.5v-30A13.51539,13.51539,0,0,0,235,215Zm-1.5,42H180V230h53.5Z" class="color313440 svgShape"></path></svg></g></svg>